<svg xmlns="http://www.w3.org/2000/svg" viewBox="0 0 122.8 48.2"><g fill="#FFF"><path d="M79.1 9.6c-.8-1.4-1.8-2.7-3-3.9-1.2-1.2-2.5-2.2-3.9-3S69.3 1.2 67.6.8 64.3.1 62.5.1H43.3v9.6h19.2c1.3 0 2.6.3 3.7.8 1.2.5 2.2 1.2 3 2.1.9.9 1.6 1.9 2.1 3.1s.8 2.4.8 3.7-.3 2.6-.8 3.7c-.5 1.2-1.2 2.2-2.1 3.1-.9.9-1.9 1.6-3 2.1-1.2.5-2.4.8-3.7.8h-9.6v-9.3h-9.6V48h9.6v-9.6l10.3-.1c3.2 5.9 9.5 9.7 17.2 9.7v-9.6c-2.8 0-5.7-1-7.5-3 1.3-.9 2.6-1.9 3.7-3 1.1-1.2 2.1-2.5 2.8-3.9.8-1.4 1.4-2.9 1.8-4.5.4-1.6.6-3.2.6-4.8 0-1.8-.2-3.5-.7-5.1-.5-1.6-1.2-3.1-2-4.5zM121.9 17.7c-.6-2-1.4-4-2.4-5.7-1-1.8-2.3-3.4-3.8-4.9s-3.1-2.7-4.9-3.8c-1.8-1-3.7-1.9-5.7-2.4s-4.2-.9-6.4-.9H88.1v9.6h10.6c2 0 3.9.4 5.6 1.1 1.8.8 3.3 1.8 4.6 3.1 1.3 1.3 2.3 2.8 3.1 4.6.7 1.7 1.1 3.6 1.1 5.6s-.4 3.9-1.1 5.6c-.7 1.8-1.8 3.3-3.1 4.6-1.3 1.3-2.8 2.3-4.6 3.1-1.8.7-3.6 1.1-5.6 1.1H88.2V48h10.5c2.2 0 4.3-.3 6.4-.9s4-1.4 5.7-2.4c1.8-1 3.4-2.3 4.9-3.8s2.7-3.1 3.8-4.9c1-1.8 1.9-3.7 2.4-5.7s.9-4.2.9-6.4-.3-4.2-.9-6.2zM18.5 37.3c-1.8-.7-3.3-1.8-4.6-3.1-1.3-1.3-2.3-2.8-3.1-4.6-.7-1.8-1.1-3.6-1.1-5.6s.4-3.9 1.1-5.6 1.8-3.3 3.1-4.6c1.3-1.3 2.8-2.3 4.6-3.1 1.8-.8 3.6-1.1 5.6-1.1h10.6V0H24.1c-2.2 0-4.3.3-6.4.9s-4 1.4-5.7 2.4c-1.8 1-3.4 2.3-4.9 3.8S4.4 10.2 3.3 12c-1 1.8-1.9 3.7-2.4 5.7S0 21.9 0 24.1s.3 4.3.9 6.4 1.4 4 2.4 5.7c1 1.8 2.3 3.4 3.8 4.9s3.1 2.7 4.9 3.8c1.8 1 3.7 1.9 5.7 2.4s4.2.9 6.4.9h10.5v-9.6H24.1c-1.9-.2-3.8-.5-5.6-1.3z"/><path d="M22.4 19.5c-2.7 0-4.8 2.1-4.8 4.8s2.1 4.8 4.8 4.8H34.7v-9.6H22.4z"/></g></svg>