<svg id="Layer_1" xmlns="http://www.w3.org/2000/svg" xmlns:xlink="http://www.w3.org/1999/xlink" viewBox="0 0 47.6 52.2">
  <style>
    .st0{fill:#602700;} .st1{clip-path:url(#SVGID_2_);} .st2{clip-path:url(#SVGID_4_);} .st3{fill:#6D5524;} .st4{fill:#D8A977;} .st5{fill:#E9C886;} .st6{opacity:0.3;fill:#BC905C;} .st7{opacity:0.4;fill:#C6803E;} .st8{opacity:0.3;} .st9{fill:#D7A456;} .st10{fill:#FFFFFF;}
  </style>
  <circle class="st0" cx="23.8" cy="24.1" r="23.8"/>
  <defs>
    <circle id="SVGID_1_" cx="23.8" cy="24.1" r="21.5"/>
  </defs>
  <clipPath id="SVGID_2_">
    <use xlink:href="#SVGID_1_" overflow="visible"/>
  </clipPath>
  <g class="st1">
    <defs>
      <path id="SVGID_3_" d="M-11.6.9h334.9v69.7H-11.6z"/>
    </defs>
    <clipPath id="SVGID_4_">
      <use xlink:href="#SVGID_3_" overflow="visible"/>
    </clipPath>
    <g class="st2">
      <path class="st3" d="M45.3 17.4c-2.1-6.8-8.4-14-15.7-15.3C22.8.8 16.1 3.3 9.3 3.3c-.2.1-.3.2-.4.3C6.4 5.2 4 7 1.8 8.9c-.5 9-3.4 17.5.9 26.1 1.8 3.6 3.2 6.4 6.8 8.6 1.7 1 3.5 1.9 5.3 2.8.9.2 1.8.3 2.8.4 1.7.2 3.6.6 5.6 1 2.6-.2 5.1-.5 7.6-1.1 2.8-.7 7.4-2.4 9.8-5 .2-.2.4-.5.6-.7.3-.4.5-.9.7-1.3.4-1.2 1.2-2.1 2-2.6 1.2-3.4 1.8-7 2.3-10 .1-.8.4-1.5.8-2.1-.4-2.8-1-5.3-1.7-7.6z"/>
      <path class="st4" d="M2.7 35l1.2 2.4c.4-1.1.9-2.2 1.4-3.4 1.1-4.2 1.6-6.3 2.6-10.4 0 0-5.3-2.1-7.3-3.6-.5 5-.4 10 2.1 15z"/>
      <path class="st5" d="M45.3 17.4c-2.1-6.8-8.4-14-15.7-15.3C22.8.8 16.1 3.3 9.3 3.3c-.2.1-.3.2-.4.3C6.4 5.2 4 7 1.8 8.9 1.5 14.4.3 19.7.4 24.9c1.4.3 2.8.5 3.8.7-1.2.3-2.4.8-3.7 1.3.2 2.7.9 5.3 2.2 8 1.8 3.6 3.2 6.4 6.8 8.6 1.7 1 3.5 1.9 5.3 2.8.9.2 1.8.3 2.8.4 1.7.2 3.6.6 5.6 1 2.6-.2 5.1-.5 7.6-1.1 2.8-.7 7.4-2.4 9.8-5 .2-.2.4-.5.6-.7.3-.4.5-.9.7-1.3.4-1.2 1.2-2.1 2-2.6 1.2-3.4 1.8-7 2.3-10 .1-.8.4-1.5.8-2.1-.4-2.7-1-5.2-1.7-7.5z"/>
      <path class="st6" d="M44.3 35.7c-8.5.6-16.9 1.2-25.4 1.9 8.2-.3 16.6-.6 25.1-.8.1-.4.2-.8.3-1.1z"/>
      <path class="st7" d="M.5 27.4c14.9-3.8 29.8-7 44.9-9.5-.1-.2-.1-.4-.2-.5-.3-1.1-.8-2.1-1.3-3.2-12.4 1.1-24.8 2.1-37.2 3-1.6 0-3.6.2-6 .5-.2 3.3-.5 6.5-.2 9.7z"/>
      <path class="st8 st9" d="M11.9 33.8c-1.7-3 1.6-21.7 4.3-25.6 1.1-1.6 8.6-3.4 17.1-4.9-1.2-.5-2.4-1-3.7-1.2-1.4-.3-2.9-.4-4.3-.3-1.5 0-2.9.1-4.3.2-3.9.5-7.8 1.3-11.7 1.3-.2.1-.3.2-.4.3C6.4 5.2 4 7 1.8 8.9c0 .8-.1 1.6-.2 2.4-.2 4.2-.4 7.8-.6 13.2 2.2.5 3.3.7 5.4 1.1-2.4.6-3.6.8-5.9 1.4.2 2.6.9 5.3 2.2 7.9 1.8 3.6 3.2 6.4 6.8 8.6 1.7 1 3.5 1.9 5.3 2.8.9.2 1.8.3 2.8.4 1.7.2 3.6.6 5.6 1 2.6-.2 5.1-.5 7.6-1.1 2.6-.7 6.8-2.2 9.3-4.5-14.1-.8-25.2-3-28.2-8.3z"/>
      <g>
        <path class="st10" d="M.4 24.9c1.3.3 2.3.5 3.8.8-1.5.4-2.6.6-3.8.9 0 .6.1 1.2.2 1.8 2.2-.9 3.5-1.4 5.8-2.4-2.4-1-3.7-1.6-6-2.6v1.5zM29.6 2.1C22.8.8 16.1 3.3 9.3 3.3c-.2.1-.3.2-.4.3-.5.3-.9.6-1.4.9 7.6-.8 15.2-1.5 22.8-2.2-.2-.1-.5-.2-.7-.2z"/>
      </g>
    </g>
  </g>
  <g>
    <path class="st0" d="M28.1 28.4l.5 2.6c0 .3.1 1.2.4 2.5s.4 2.2.4 2.6c0 .6-.2 1-.7 1.2-.6 0-1-.1-1.4-.3s-.5-.6-.5-1.1c0-1.2-.2-2.9-.6-5.2l-4.2-.6c-.3.9-.5 1.9-.6 3.1-.1 1.1-.3 1.9-.4 2.4-.2 1-.7 1.6-1.4 1.6-.3 0-.6-.1-.9-.3-.3-.2-.4-.5-.4-.8l.1-.4c1.9-7.3 3.3-14.4 4.2-21.3 0-.2.1-.8.1-1.7.1-2.1.4-3.4.8-3.9h1.4c.4 0 .7.1 1 .3s.4.4.4.8c0 2.1.3 5.3.9 9.5.6 4.1.9 7.1.9 9zm-2.2.8c-.1-.4-.1-1.1-.1-2.1s-.1-2.3-.2-3.8-.3-3.3-.5-5.3-.4-3.5-.5-4.4c-1.3 7-2.1 12-2.5 14.9.5.3 1.8.6 3.8.7z"/>
  </g>
</svg>
