<svg id="Layer_1" xmlns="http://www.w3.org/2000/svg" viewBox="0 0 1374.3 1234">
  <style>
    .st0{fill:#7F3503;} .st1{fill:#DE5D00;}
  </style>
  <path class="st0" d="M688.7 617l685.6 608.7V1115L689.4 617h-.7z"/>
  <path class="st1" d="M690 617l684.3 431.1v-87.2L691.2 617H690z"/>
  <path class="st0" d="M692.4 617l681.9 287.5v-74L694.8 617h-2.4z"/>
  <path class="st1" d="M697.6 617l676.7 164.6v-67.1L705.8 617h-8.2zM687.7 617l495.8 616.9h110.1L688.2 617h-.5z"/>
  <path class="st0" d="M687 617l344.4 616.9h87L687.4 617h-.4z"/>
  <path class="st1" d="M686.3 617L903 1233.9h73.9L686.7 617h-.4z"/>
  <path class="st0" d="M685.8 617l104 616.9h67L686.1 617h-.3z"/>
  <path class="st1" d="M685.3 617l-6.1 616.9h64.3L685.6 617h-.3z"/>
  <path class="st0" d="M684.8 617l-109.3 616.9h65L685.1 617h-.3z"/>
  <path class="st1" d="M684.2 617l-232 616.9h70.1L684.5 617h-.3z"/>
  <path class="st0" d="M683.5 617l-369.1 616.9H395L684 617h-.5z"/>
  <path class="st1" d="M682.7 617l-540 616.9h100.5l440-616.9h-.5z"/>
  <path class="st0" d="M681.5 617L0 1159.3v74.7h45.8l636.4-617h-.7z"/>
  <path class="st1" d="M679.8 617L0 987.3v90.4L680.9 617h-1.1z"/>
  <path class="st0" d="M676.5 617L0 847.9V923l678.6-306h-2.1z"/>
  <path class="st1" d="M666.7 617L0 724.3v67.2L673.7 617h-7z"/>
  <path class="st0" d="M688.7 617L1374.3 8.3V119L689.4 617h-.7z"/>
  <path class="st1" d="M690 617l684.3-431.1v87.2L691.2 617H690z"/>
  <path class="st0" d="M692.4 617l681.9-287.5v74L694.8 617h-2.4z"/>
  <path class="st1" d="M697.6 617l676.7-164.6v67.1L705.8 617h-8.2zM687.7 617L1183.5.1h110.1L688.2 617h-.5z"/>
  <path class="st0" d="M687 617L1031.4.1h87L687.4 617h-.4z"/>
  <path class="st1" d="M686.3 617L903 .1h73.9L686.7 617h-.4z"/>
  <path class="st0" d="M685.8 617L789.8.1h67L686.1 617h-.3z"/>
  <path class="st1" d="M685.3 617L679.1.1h64.3L685.6 617h-.3z"/>
  <path class="st0" d="M684.8 617L575.5.1h65L685.1 617h-.3z"/>
  <path class="st1" d="M684.2 617L452.2.1h70.1L684.5 617h-.3z"/>
  <path class="st0" d="M683.5 617L314.4.1H395L684 617h-.5z"/>
  <path class="st1" d="M682.7 617L142.7.1h100.5l440 616.9h-.5z"/>
  <path class="st0" d="M681.5 617L0 74.7V.8 0h45.8l636.4 617h-.7z"/>
  <path class="st1" d="M679.8 617L0 246.7v-90.4L680.9 617h-1.1z"/>
  <path class="st0" d="M676.5 617L0 386.1V311l678.6 306h-2.1z"/>
  <path class="st1" d="M666.7 617L0 509.7v-67.2L673.7 617h-7z"/>
  <path class="st0" d="M722.1 617l652.2 53v-53-53l-652.2 53zM0 615.8c0 .6-.1 1.1.4 1.2-.5.1-.4.6-.4 1.2v53.1L649.5 617 0 562.7v53.1z"/>
</svg>
