<svg id="Layer_1" xmlns="http://www.w3.org/2000/svg" xmlns:xlink="http://www.w3.org/1999/xlink" viewBox="0 0 581.4 655.2">
  <style>
    .st0{opacity:0.3;} .st1{fill:#602700;} .st2{fill:#BC905C;} .st3{fill:#E4B16B;} .st4{clip-path:url(#SVGID_2_);} .st5{opacity:0.3;fill:#D7A456;} .st6{opacity:0.3;fill:#BC905C;} .st7{opacity:0.4;fill:#C6803E;} .st8{opacity:0.3;fill:#C6803E;} .st9{opacity:0.4;fill:#D3BC89;} .st10{opacity:0.4;fill:#D7A456;} .st11{opacity:0.5;fill:#D7A456;} .st12{opacity:0.5;fill:#C6803E;} .st13{opacity:0.5;fill:#BC905C;} .st14{fill:#D7A456;} .st15{fill:#f3dcb6;} .st16{fill:none;stroke:#602700;stroke-width:3;stroke-miterlimit:10;} .st17{fill:url(#SVGID_3_);stroke:#B89772;stroke-width:0.3734;stroke-miterlimit:10;} .st18{fill:url(#SVGID_4_);stroke:#B89772;stroke-width:0.3734;stroke-miterlimit:10;} .st19{fill:url(#SVGID_5_);stroke:#B89772;stroke-width:0.3734;stroke-miterlimit:10;} .st20{fill:url(#SVGID_6_);stroke:#B89772;stroke-width:0.3734;stroke-miterlimit:10;} .st21{fill:url(#SVGID_7_);stroke:#B89772;stroke-width:0.3734;stroke-miterlimit:10;} .st22{fill:url(#SVGID_8_);stroke:#B89772;stroke-width:0.3734;stroke-miterlimit:10;} .st23{fill:url(#SVGID_9_);stroke:#B89772;stroke-width:0.3734;stroke-miterlimit:10;} .st24{fill:url(#SVGID_10_);stroke:#B89772;stroke-width:0.3734;stroke-miterlimit:10;} .st25{fill:url(#SVGID_11_);stroke:#B89772;stroke-width:0.3734;stroke-miterlimit:10;} .st26{fill:url(#SVGID_12_);stroke:#B89772;stroke-width:0.3734;stroke-miterlimit:10;} .st27{fill:url(#SVGID_13_);stroke:#B89772;stroke-width:0.3734;stroke-miterlimit:10;} .st28{fill:url(#SVGID_14_);stroke:#B89772;stroke-width:0.3734;stroke-miterlimit:10;} .st29{fill:url(#SVGID_15_);stroke:#B89772;stroke-width:0.3734;stroke-miterlimit:10;} .st30{fill:url(#SVGID_16_);stroke:#B89772;stroke-width:0.3734;stroke-miterlimit:10;} .st31{fill:url(#SVGID_17_);stroke:#B89772;stroke-width:0.3734;stroke-miterlimit:10;} .st32{fill:url(#SVGID_18_);stroke:#B89772;stroke-width:0.3734;stroke-miterlimit:10;} .st33{fill:url(#SVGID_19_);stroke:#B89772;stroke-width:0.3734;stroke-miterlimit:10;} .st34{fill:url(#SVGID_20_);stroke:#B89772;stroke-width:0.3734;stroke-miterlimit:10;} .st35{fill:url(#SVGID_21_);stroke:#B89772;stroke-width:0.3734;stroke-miterlimit:10;} .st36{fill:url(#SVGID_22_);stroke:#B89772;stroke-width:0.3734;stroke-miterlimit:10;} .st37{fill:url(#SVGID_23_);stroke:#B89772;stroke-width:0.3734;stroke-miterlimit:10;} .st38{fill:url(#SVGID_24_);stroke:#B89772;stroke-width:0.3734;stroke-miterlimit:10;} .st39{fill:url(#SVGID_25_);stroke:#B89772;stroke-width:0.3734;stroke-miterlimit:10;} .st40{fill:url(#SVGID_26_);stroke:#B89772;stroke-width:0.3734;stroke-miterlimit:10;} .st41{fill:url(#SVGID_27_);stroke:#B89772;stroke-width:0.3734;stroke-miterlimit:10;} .st42{fill:url(#SVGID_28_);stroke:#B89772;stroke-width:0.3734;stroke-miterlimit:10;} .st43{fill:url(#SVGID_29_);stroke:#B89772;stroke-width:0.3734;stroke-miterlimit:10;} .st44{fill:url(#SVGID_30_);stroke:#B89772;stroke-width:0.3734;stroke-miterlimit:10;} .st45{fill:url(#SVGID_31_);stroke:#B89772;stroke-width:0.3734;stroke-miterlimit:10;} .st46{opacity:0.2;} .st47{fill:#DE5D00;} .st48{fill:url(#SVGID_32_);stroke:#B89772;stroke-width:0.3734;stroke-miterlimit:10;} .st49{fill:url(#SVGID_33_);stroke:#B89772;stroke-width:0.3734;stroke-miterlimit:10;} .st50{fill:url(#SVGID_34_);stroke:#B89772;stroke-width:0.3734;stroke-miterlimit:10;} .st51{fill:url(#SVGID_35_);stroke:#B89772;stroke-width:0.3734;stroke-miterlimit:10;} .st52{fill:url(#SVGID_36_);stroke:#B89772;stroke-width:0.3734;stroke-miterlimit:10;} .st53{fill:url(#SVGID_37_);stroke:#B89772;stroke-width:0.3734;stroke-miterlimit:10;} .st54{fill:url(#SVGID_38_);stroke:#B89772;stroke-width:0.3734;stroke-miterlimit:10;} .st55{fill:url(#SVGID_39_);stroke:#B89772;stroke-width:0.3734;stroke-miterlimit:10;} .st56{fill:url(#SVGID_40_);stroke:#B89772;stroke-width:0.3734;stroke-miterlimit:10;} .st57{fill:url(#SVGID_41_);stroke:#B89772;stroke-width:0.3734;stroke-miterlimit:10;} .st58{fill:url(#SVGID_42_);stroke:#B89772;stroke-width:0.3734;stroke-miterlimit:10;} .st59{fill:url(#SVGID_43_);stroke:#B89772;stroke-width:0.3734;stroke-miterlimit:10;} .st60{fill:url(#SVGID_44_);stroke:#B89772;stroke-width:0.3734;stroke-miterlimit:10;} .st61{fill:url(#SVGID_45_);stroke:#B89772;stroke-width:0.3734;stroke-miterlimit:10;} .st62{fill:url(#SVGID_46_);stroke:#B89772;stroke-width:0.3734;stroke-miterlimit:10;} .st63{fill:url(#SVGID_47_);stroke:#B89772;stroke-width:0.3734;stroke-miterlimit:10;} .st64{fill:url(#SVGID_48_);stroke:#B89772;stroke-width:0.3734;stroke-miterlimit:10;} .st65{fill:url(#SVGID_49_);stroke:#B89772;stroke-width:0.3734;stroke-miterlimit:10;} .st66{fill:url(#SVGID_50_);stroke:#B89772;stroke-width:0.3734;stroke-miterlimit:10;} .st67{fill:url(#SVGID_51_);stroke:#B89772;stroke-width:0.3734;stroke-miterlimit:10;} .st68{fill:url(#SVGID_52_);stroke:#B89772;stroke-width:0.3734;stroke-miterlimit:10;} .st69{fill:url(#SVGID_53_);stroke:#B89772;stroke-width:0.3734;stroke-miterlimit:10;} .st70{fill:url(#SVGID_54_);stroke:#B89772;stroke-width:0.3734;stroke-miterlimit:10;} .st71{fill:url(#SVGID_55_);stroke:#B89772;stroke-width:0.3734;stroke-miterlimit:10;} .st72{fill:url(#SVGID_56_);stroke:#B89772;stroke-width:0.3734;stroke-miterlimit:10;} .st73{fill:url(#SVGID_57_);stroke:#B89772;stroke-width:0.3734;stroke-miterlimit:10;} .st74{fill:url(#SVGID_58_);stroke:#B89772;stroke-width:0.3734;stroke-miterlimit:10;} .st75{fill:url(#SVGID_59_);stroke:#B89772;stroke-width:0.3734;stroke-miterlimit:10;} .st76{fill:url(#SVGID_60_);stroke:#B89772;stroke-width:0.3734;stroke-miterlimit:10;}
  </style>
  <path d="M432.3 279c1.6-.2 29.1 8.6 29.1 8.6 23-1.7 32.8 0 55.7-2.6 19.9-3.2 36.4 5.7 56.2 1.7.3 26.9-4.4 13-4.1 40.1-1.3 1.4-2 2.1-3.4 3.4.1 8.3.1 12.5.2 20.9-2 2.9-2.9 4.4-4.9 7.3.3 24.1.5 36.1.8 60.3-1.2 2.2-1.8 3.3-2.9 5.5 0 4 .1 6.1.1 10.1 2.1 2.8 3.1 4.2 5.2 7l1.5 5.5c0 18-.1 26.9-.1 44.9.2 1.2.3 1.9.4 3.1l.5 34c-1.7 3.2-2.6 4.8-4.4 7.9-2.2 1.3-3.2 2-5.4 3.3 1.1 2.8 1.6 4.2 2.7 6.9 1.2 21.2 1.8 31.8 2.9 53.1-3.9 4.6-5.8 6.8-9.7 11.3 4.4 3.4 6.7 5.1 11.1 8.7-1.3 7.7-1.9 11.6-3.2 19.3-4.9 1.4-7.3 2.1-12.1 3.5-77.5-15.3-154.6-24.8-233.4-28.7C217 611 121.2 617.2 24 632.8c-3.9-1.6-5.9-2.4-9.8-4.1 1.1-30.1-7.2-68-6-98 2.1-9.2 12 9.1 14.1 0l4-4.5c-1.6-1.2-2.4-1.8-4.1-3 .5-12.3.8-18.4 1.3-30.7-1.4-6.9-2.1-10.3-3.5-17.2 0 0 4.6-39.4 6.7-38.8 2.1.6-7-4.9-7-4.9s1.3-16.1-.3-17.4c-1.6-1.3-4.8-5-4.8-5l2-65c5.6-.3 8.4-.5 14-.8 2-1.7 2.9-2.5 4.9-4.2-.1-5.9-.2-8.9-.3-14.8-2.1-4.5-3.1-6.8-5.2-11.4 1.2-21.5-6.6-19.6-5.5-41 3.3-2 2.4-7.6 5.7-9.6 71 14.2 153.7 14.6 225.8 16.9 3.9 1.8 5.8 2.7 9.7 4.4 40.1.9 60.1.6 100.2-1.6 26.6-.5 39.9-1.1 66.4-3.1z" class="st0"/>
  <path class="st1" d="M429.8 269.1c1.6-.2 28.6 8.5 28.6 8.5 22.6-1.6 32.2 0 54.7-2.5 19.5-3.2 35.8 5.6 55.3 1.7.3 26.5-4.3 12.8-4.1 39.4-1.3 1.3-2 2-3.3 3.4.1 8.2.1 12.3.2 20.5-1.9 2.9-2.9 4.3-4.8 7.2.3 23.7.5 35.5.8 59.3-1.1 2.2-1.7 3.3-2.9 5.4 0 4 .1 6 .1 10 2.1 2.7 3.1 4.1 5.1 6.9.6 2.2.9 3.3 1.5 5.4 0 17.6 0 26.5-.1 44.1.2 1.2.2 1.8.4 3.1l.5 33.4c-1.7 3.1-2.6 4.7-4.3 7.8-2.1 1.3-3.2 1.9-5.3 3.2 1.1 2.7 1.6 4.1 2.6 6.8 1.2 20.8 1.7 31.2 2.9 52.2-3.8 4.5-5.7 6.7-9.6 11.1 4.4 3.4 6.6 5.1 10.9 8.5-1.2 7.6-1.9 11.4-3.1 18.9-4.8 1.4-7.1 2-11.9 3.4-76.3-15.1-152-24.5-229.5-28.3-96.4-3-190.5 3.1-286 18.3-3.9-1.6-5.8-2.4-9.6-4 1.1-29.6-7-66.8-5.9-96.3 2.1-9 11.8 8.9 13.9 0 1.6-1.8 2.4-2.7 3.9-4.4-1.6-1.2-2.4-1.8-4-2.9.5-12.1.8-18.1 1.3-30.1-1.4-6.7-2.1-10.1-3.4-16.9 0 0 4.5-38.7 6.6-38.1 2.1.6-6.9-4.8-6.9-4.8s1.3-15.8-.3-17.1c-1.6-1.2-4.7-4.9-4.7-4.9.8-25.6 1.2-38.3 2-63.8 5.5-.3 8.2-.4 13.7-.7 1.9-1.6 2.9-2.5 4.8-4.1-.1-5.8-.2-8.7-.3-14.6-2.1-4.4-3.1-6.7-5.1-11.2 1.1-21.1-6.5-19.3-5.4-40.3 3.2-1.9 2.4-7.5 5.6-9.4 69.7 13.9 151 14.3 221.8 16.6 3.8 1.8 5.7 2.6 9.6 4.4 39.4.9 59.1.6 98.4-1.5 26.2-1.1 39.3-1.7 65.3-3.6z"/>
  <path class="st2" d="M299.4 580.6c82.6 4.3 163.4 14.6 244.7 31.4v14.6c-76.3-15.1-152.2-14.1-229.7-17.9-96.4-3-190.3-7.3-285.8 7.9-.1-5.2-.2-7.7-.3-12.9 90.4-15.5 179.8-23 271.1-23.1zM24.8 461.9s2.6-22.1 4.7-32.6c.8-2.2 1.1-3.3 1.9-5.5 10.5 16 15.8 23.7 26.4 38.8.1 7.2.2 10.8.4 18-9.9 10.6-14.9 16-24.9 27.1-2.6.5-3.8.7-6.4 1.3.5-12.1.8-18.1 1.3-30.1-1.3-6.8-2-10.2-3.4-17z"/>
  <path class="st1" d="M27 516.3s-.3 24.4 2.8 26.9c3.1 2.5 12.2 6.1 12.2 6.1-1.7 6.8-2.6 10.2-4.3 17.1-5.2 12.7-7.8 19.1-13 32.2-2.3 5.6-3.4 8.4-5.6 14 1.1-29.6-7-66.8-5.9-96.3 2-9 11.7 9 13.8 0z"/>
  <path class="st2" d="M490.8 579l9-10.5c9.7-5.8 14.5-8.7 24.1-14.7 10.5-11 15.8-16.7 26.3-28.3 1.9 3 2.8 4.5 4.7 7.5 1.1 20.6 1.7 30.9 2.9 51.7-3.8 4.5-5.7 6.7-9.6 11.1-22.1-4.6-33.2-6.6-55.4-10.3-.7-2.7-1.2-4-2-6.5z"/>
  <path class="st3" d="M429.8 269.1c1.6-.2 29.3 5.9 29.3 5.9 22.6-1.6 32.6-.3 55.1-2.8 19.5-3.2 28.4 3.9 47.9 0 .3 26.5-2.7 59.4-2.8 67.9-35.9 3.5-71.9 6.2-108 8.2 33.5 0 71.6-.2 105.1-1.2.3 23.8-.2 44.5-3.9 59.3-2.5.5-3.8.8-6.4 1.3 2.5 1.1 3.8 1.7 6.3 2.9-.1 4.8-.1 7.2-.2 12-44.6 2.2-89.2 3.9-133.9 5.4 47.1.3 91.6-2.9 138.6-2.8.6 2.2 5.6 0 4.1 8.9 0 17.6-.3 16.5-.4 34.1-4.2.2-4.1.2-8.3.4 4 1 4 1.4 8 2.3-.6 13.3-.9 30.1-1.5 43.4-1.5 2.3-2.3 3.4-3.8 5.6-38.5-4-76.9-7.5-115.4-10.4 37 4.3 73.8 9.6 110.6 15.9 1.2 2.5 1.8 3.8 3.1 6.4-.7 21.3-1.1 31.9-1.8 53.2-3.8 2.7-5.8 4-9.6 6.6-19.6-2.7-29.4-4-49.1-6.1 18.6 3.6 27.9 5.6 46.4 9.8l9 .5c2.3 1.6 3.4 2.5 5.8 4.1-.5 4.5-.7 6.7-1.2 11.2-3.4.7-5.1 1.1-8.5 1.8-76.4-14-152.6-6.3-229.9-9.8-96.2-2.9-185-1.4-285.9 6.6-1.7-1.8-2.2-9.2-3.8-11 .5-17.4-2.1-23.8-1.6-41.2 4-1 8.8-3.7 12.9-4.6-3.6-.7-9.3-1.7-12.9-2.5.6-13.9-7.1-22.8-6.5-36.6 35.6-2.9 83.1-2.4 118.7-3.8-33.3-.1-66.6.3-99.9 1.2-.8-1.3-1.2-2-2.1-3.3-.3-10-.4-15-.7-25 7.8-.6 11.7-.9 19.6-1.4-7.6-1.1-11.4-1.6-19-2.7-1.2-6.7-1.8-10.1-2.9-16.8 0 0 .7-38.3 2.6-38 50.1 8.6 113.1 4.3 169.6 5.9-59.4-3.2-118.7-6.7-178-10.8 0 0 1.3-15.8-.3-17.1-1.6-1.2-4.7-4.9-4.7-4.9.8-25.6 1.2-38.3 2-63.8 5.5-.3 8.2-.4 13.7-.7 45.2 7 90.6 12.6 136.1 16.7-43.9-5.5-87.8-12.3-131.3-20.8-.1-5.8-.2-8.7-.3-14.6-2.1-4.4-3.1-6.7-5.1-11.2 1.1-21.1-.9-26.2.2-47.2 3.2-1.9 3.2.7 6.4-1.2 69.7 13.9 144.6 13.1 215.4 15.4 3.8 1.8 68.6 4.9 108 2.8 26.1-.9 39.2-1.5 65.2-3.4z"/>
  <defs>
    <path id="SVGID_1_" d="M429.8 269.1c1.6-.2 28.8-5.3 28.8-5.3 22.6-1.6 33.8-2.7 56.3-5.2 19.5-3.2 29.3-4.9 48.7-8.8.3 26.5.4 39.7.7 66.3-1.9 1.2-2.9 1.8-4.8 3-.1 8.4-.2 12.6-.3 21.1-35.9 3.5-71.9 6.2-108 8.2 33.5 0 67-.6 100.5-1.6.3 23.8.5 35.8.8 59.7-2.5.5-3.8.8-6.4 1.3 2.5 1.1 3.8 1.7 6.3 2.9-.1 4.8-.1 7.2-.2 12-44.6 2.2-89.2 3.9-133.9 5.4 47.1.3 94.1.6 141.2.7.6 2.2.9 3.3 1.5 5.4 0 17.6 0 26.5-.1 44.1l-10.5.5 10 2.5c-.6 13.3-.9 19.9-1.5 33.1-1.5 2.3-2.3 3.4-3.8 5.6-38.5-4-76.9-7.5-115.4-10.4 37 4.3 73.8 9.6 110.6 15.9 1.2 2.5 1.8 3.8 3.1 6.4-.7 21.3-1.1 31.9-1.8 53.2-3.8 2.7-5.8 4-9.6 6.6-19.6-2.7-29.4-4-49.1-6.1 18.6 3.6 27.9 5.6 46.4 9.8l9 .5c2.3 1.6 3.4 2.5 5.8 4.1-.5 4.5-.7 6.7-1.2 11.2-3.4.7-5.1 1.1-8.5 1.8-76.4-14-152.2-22.8-229.5-26.3-96.2-2.9-190.5 2.6-286 16.6-1.7-1.8-2.5-2.7-4.2-4.5.5-17.4.7-26.1 1.1-43.5 4-1 6-1.4 10.1-2.4-3.6-.7-5.4-1.1-9-1.9l1.5-34.7c35.6-2.9 71.2-5 106.8-6.4-33.3-.1-66.6.3-99.9 1.2-.8-1.3-1.2-2-2.1-3.3-.3-10-.4-15-.7-25 7.8-.6 11.7-.9 19.6-1.4-7.6-1.1-11.4-1.6-19-2.7-1.2-6.7-1.8-10.1-2.9-16.8 0 0 .7-38.3 2.6-38 50.1 8.6 113.1 4.3 169.6 5.9-59.4-3.2-118.7-6.7-178-10.8 0 0 1.3-15.8-.3-17.1-1.6-1.2-4.7-4.9-4.7-4.9.8-25.6 1.2-38.3 2-63.8 5.5-.3 8.2-.4 13.7-.7 45.2 7 90.6 12.6 136.1 16.7-43.9-5.5-87.8-12.3-131.3-20.8-.1-5.8-.2-8.7-.3-14.6-2.1-4.4-3.1-6.7-5.1-11.2 1.1-21.1-1.6-21.7-.5-42.7 3.2-1.9 3.9-3.9 7.1-5.8 69.7 13.9 144.6 13.1 215.4 15.4 3.8 1.8 5.7 2.6 9.6 4.4 39.4.9 59.1.6 98.4-1.5 26.2-.8 39.3-1.4 65.3-3.3z"/>
  </defs>
  <clipPath id="SVGID_2_">
    <use xlink:href="#SVGID_1_" overflow="visible"/>
  </clipPath>
  <g class="st4">
    <path class="st5" d="M573.1 582.9c-62.2-29.2-127.3-42.3-193.5-49.8-83.4-5.8-168.3-2.4-251.1 11.8.7 1.3 1.1 1.9 1.8 3.2 132.7-11.4 287.9-15.5 412.1 48.7 0 .1 33.8 2.9 30.7-13.9z"/>
    <path class="st6" d="M394.6 613.8c-74.3-29.5-154.9-50.9-233.4-48.4-33.7 1.9-67.4 4.2-101 6.8 62.7-2.1 129.9-6.1 191.4 9.9 18.9 8.2 31 16.6 31 16.6 37.2 4.6 74.5 12.6 112 15.1z"/>
    <path class="st7" d="M212.5 607.5s-49.6-15.4-80.2-15.7c-40.2-.8-80.4-1.7-120.6-1.7-1.6 15-2.4 22.6-4 37.7 68-10.1 136.9-10 204.8-20.3z"/>
    <path class="st8" d="M276.2 456.1c.3 5.8 25.1 12.4 55.6 15.1 30.7 2.7 55.6.3 55.3-5.8-.3-6.1-25.6-13.2-56.4-15.7-30.5-2.4-54.8.5-54.5 6.4zm11.8 1.3c-.1-2.2 10.2-3.2 23.1-2.1 13 1 23.6 3.7 23.7 5.9.1 2.2-10.3 3.1-23.3 2-12.8-1-23.4-3.6-23.5-5.8z"/>
    <path class="st9" d="M242.3 452.1c34-6.1 68.9-9.9 103.3-5.6 32 5.6 63.4 12.3 72.4 22.4 9 10.1-59.7 14-82.6 14.5-22.8.5-37.6-.6-42.9-2.1-9.1-2.6-19.5-4-25.3-5.6-5.8-1.5-12.4-2.6-10.6-5.2 1.8-2.6 5.6-8.9-2-9.2-7.6-.2-23.1 1.1-27.6-.7-4.6-1.7-.7-5.5 15.3-8.5z"/>
    <path class="st7" d="M-17.5 568.8c50.1-15 101.1-27 152.3-33.4 40.8-4.7 60.3-8.3 60.3-8.3-51.7 2.5-103.3 8.1-155 11.8-16.1.1-58.8 10.1-67.5 16.8-8.9 6.9 9.9 13.1 9.9 13.1zM521.9 634.3C470.8 611.5 418 593 364.3 581.5c-42.6-8.8-62.5-13.9-62.5-13.9 54.7 7 108.8 18 163 29.2 17.3 2.6 61.6 19.4 69.8 27.3 8.5 8.1-12.7 10.2-12.7 10.2z"/>
    <path class="st10" d="M551.1 538.7c-37.7-6-75.2-14.4-113.1-18.8-60.6-7.7-121-15.7-181.8-21.2 62 .6 124.1 2.7 186 8.2 36.6-.1 79.7 1.4 108.9 31.8z"/>
    <path class="st9" d="M548 509s-32.1-24.8-63.1-37.9c-30.7-13-55.5-23.6-59.5-23.7-4.1-.1 71.8 16.3 90.5 27.5 18.8 11.3 46.3 29.2 46.3 29.2s-7.1 6.6-14.2 4.9z"/>
    <path class="st11" d="M-13.6 402.2c2.7 10 4.1 14.9 6.8 24.8 1.6 2.2 2.4 3.3 3.9 5.4 0 0 48.8-3.3 79.9-7.9 51.6-5.4 103.6-5.5 155.4-6.4 44.1.7 59.3-8.6 103.4-9.3 34.3.4 98 13.8 131.7 21.6 34.7 10.7 68.8 25.1 102.1 41.1 11.9-6.6 12.8-26.1 19-48.8 6.1-22.8-4.6-31-4.6-31-46.2 3.3-92.4 5.9-138.5 9.9-43.9 4.2-71.6 4-93.7-1.9-11.9-23.2-125.6-3.9-187.1-11.7 0 0-84-5.6-86.9-6.2-2.9-.6-43 1.8-66 8.6-22.8 6.8-25.4 11.8-25.4 11.8zm18.5 15s64-17.6 96.4-19.6c32.7-2 65.6-4.2 88.1-2 33.6 4 80.4-8.1 102 11.4-52.3 6.7-85.9 5-145.7 2.1-46.9 3.8-93.8 5.5-140.8 8.1z"/>
    <path class="st9" d="M467.8 353.5c-32.3 3.6-65.8 6.9-98.2-.6-33.3-10.6-66.4-22.9-99.9-30.7-24.2-4.6-50.3-7.1-69.9-5.7-58.2.7-129.2-2.7-184.1-37 0 0 10.1.2 16.5-1.8 46.8 15.4 94.7 27.1 142.4 30.1 51.7 2.2 103.7-3.4 154.6-14.3 47.4-7.7 96.4-5.4 144.2-6.1 14.1.1 10 10.1 10 10.1-40.8 3.3-32 7.5-72.9 5.3-13.3-1.4-56.6-.6-44.2 13.7 26.9 21.4 29.3 5.6 59 7.4 26.1.7 35.9 12.7 35.9 12.7 2.6 6.8 3.9 10.1 6.6 16.9z"/>
    <path class="st12" d="M481 238.8C419.1 264 353.5 284 288.3 288.2c-42.2 1.8-84.9 1.6-126.9-3.2-43.8-7.3-87.5-14.3-130.9-24.2 51 10.3 102.5 18.1 154.1 22.1 10.8.6 30.2-8 54.9-11.8 24.9-3.8 79.3-18.9 79.3-18.9 13.6-.4 20.4-.7 34-1.5 0 0-15.2 10.2-30 12.7-14.8 2.4-47.6 8.2-50.1 8.6-2.5.3-30.4 8.7-30.4 8.7s-4.7 2.2 29.1 2.6C323.9 282 381 270 429.7 245.7c20.5-2.3 30.8-3.7 51.3-6.9z"/>
    <path class="st8" d="M573.8 361.6c-47.2 3.7-97 11.5-143.8 2.1-59.5-14.7-120.8-21.1-181-29.6-30.4-3.8-106.1-12.2-92.7-6.2 13.4 6 125.1 7.6 102.8 17.1-35.9 11.6-92.6 13.1-129.4 9.8-36.5-6.5-79.1-16.9-108.3-45.7-6.3 2.5-9.5 3.8-15.8 6.4 36.6 22.9 76.5 43.3 117.6 49.3 44.4 3.4 93.5 3.2 136.8-11.1 15.1-7.6 22.3-10.1 68.6-1.4 57.2 10.5 115.6 19.8 173.5 21 30.1-.4 78.9-.1 78.9-.1-2.9-4.7-4.3-7-7.2-11.6z"/>
    <path class="st9" d="M352.8 507.8c-101.6-10.9-213.7-26.9-315-6.2 2.1 2.5 3.2 3.7 5.3 6.2 44.8-4.6 90.3-8.8 135.2-6.5 58.2 2.7 116.3 3.1 174.5 6.5z"/>
    <path class="st13" d="M204.3 487.3c-65.6-.1-132.3 3.3-197.4 13.3C3 496.4 1 494.3-2.9 490c0 0 45.6-6.6 69.7-5.2 45.8 1.5 91.6 1.4 137.5 2.5z"/>
  </g>
  <g class="st0">
    <path class="st14" d="M30.3 461.8s.5-38.6 2.6-38c.8.2 22.4 1.1 50.2 2.1-3 1.8-9.7 3.8-13.8 4.3-7.5 1-22.7 7.7-22.8 14.3-.1 6.6 4.2 19.2 5 28 .7 8.8 5.3 17.6 2 17.9-3.4.3-11.9.8-2.3 7.3 9.6 6.5 67.3 12.1 70.8 12.1-34.7 0-52 .3-86.5 1.2-.8-1.3-1.2-2-2.1-3.3-.3-10-.4-15-.7-25 7.8-.6 11.7-.9 19.6-1.4-7.6-1.1-11.4-1.6-19-2.7-1.2-6.7-1.8-10.1-3-16.8zM57.7 261.5s-.9-2.6-2.3 17-8 31.1-1.6 36.4c6.4 5.3-7.1-.8 6.4 5.2 31.5 14.2 69.1 20.9 104.2 28.1-41.5-5.3-83-11.9-124.2-19.9-.1-5.8-.2-8.7-.3-14.6-2.1-4.4-3.1-6.7-5.1-11.2 1.1-21.1-3.6-17.7-2.5-38.7 3.2-1.9-.5-6.6 2.7-8.5 69.7 13.9 151 11.8 221.8 14.2 3.8 1.8 5.7 2.6 9.6 4.4 7.8.2 11.7.2 19.4.3-76.7.7-152-3.6-228.1-12.7zM457.2 597.8c-46.1-6.1-92.4-9.9-138.7-11.2-96.2-2.9-190.5 2.6-286 16.6-1.7-1.8-2.5-2.7-4.2-4.5.5-17.4.7-26.1 1.1-43.5 4-1 6-1.4 10.1-2.4-3.6-.7-5.4-1.1-9-1.9l1.5-34.7c34.6-2.8 51.9-3.9 86.7-5.5-17 2-59.9 8.2-63.3 13.2-4.4 6.5-9.8 37.2-7 42.1 12.8 22.7 114.6 11.4 161.7 13.7 82.5 4 165 7 247.1 18.1zM35.3 332.4c15.2 2.4 22.9 3.5 38.2 5.6-10.6-.9-18.9-1.2-22.1-.3-13.2 3.7-16.3 3.4-14.3 12.7 2 9.3 3.9 24.1 3.9 31-.1 6.9-.4 11.3 1.9 19.3.5 1.8.5 2.7.3 3.1.9 0 3.2.6 8.4 3.5 14.4 8 13.1 14.4 27.4 15.3-21.9-1.4-32.8-2.1-54.5-3.6 0 0 1.3-15.8-.3-17.1-1.6-1.2-4.7-4.9-4.7-4.9.8-25.6 1.2-38.3 2-63.8 5.6-.4 8.3-.5 13.8-.8zM489.8 603.1c-.1 0-.1-.1 0 0-.1-.1 0 0 0 0z"/>
  </g>
  <path class="st2" d="M550.3 525.4c1.9-2.2 2.9-3.3 4.8-5.4-36.9-4.1-73.9-7.5-111-10.1 35.5 4.3 70.9 9.4 106.2 15.5zM559.6 428.6c-45.7-.1-91.5-.3-137.2-.6 43.3-1.5 86.6-3.2 129.9-5.4.9-.3 1.3-.5 2.2-.9 2 2.8 3 4.2 5.1 6.9z"/>
  <g>
    <path class="st15" d="M558.9 514.3c-1.5 2.3-2.3 3.4-3.8 5.6-36.9-4.1-73.9-7.5-111-10.1 36 1.4 71.9 3.3 107.8 5.8 0 0 2.6-3.9 3.9-5.2 1.3-1.3 2.9-26.6 2.9-26.6-3.4-2.1-5-3.1-8.4-5.1l10 2.5c-.5 13.3-.8 19.9-1.4 33.1zM42.9 333.5c-6.3 3.4-9.5 5.2-15.8 8.7 0 0-3.5 42.9-2.9 45.3.6 2.5 2.4 10.5 3.3 13.3.9 2.8.5 12.7.5 12.7 13.9 3.3 20.9 4.9 34.8 8-15.3-1-23-1.5-38.3-2.6 0 0 1.3-15.8-.3-17.1-1.6-1.2-4.7-4.9-4.7-4.9.8-25.6 1.2-38.3 2-63.8 5.5-.3 8.2-.4 13.7-.7 3.1.4 4.7.7 7.7 1.1zM560.4 464.7s-2.2-29.1-2.8-29.6c-18.6-14.5-88.4-6.1-131.6-7-1.7 0 42.4.3 79.9.4h8.4c17.2.1 25.7.1 42.8.1 1.1.4 1.6.7 2.7 1.1.5 1.8.7 2.6 1.2 4.4 0 17.6-.3 21.4-.4 39-4.2.2-5.8-3.2-10.3-5.3 3.3-1.4 6.9-1.8 10.1-3.1zM549.7 607.7c.4-1.5.6-2.2 1-3.7-1-1.8-1.5-2.6-2.5-4.4 0 0-3.2-.6-5.8-.8-2.6-.1-49.6-13.5-49.6-13.5 18.6 3.6 27.9 5.6 46.4 9.8l9 .5c2.3 1.6 3.4 2.5 5.8 4.1 6.4 4.5 2.5 10.7 2 15.2-3.4.7-8.5 1.2-11.8 1.9-76.4-14-147.8-16.4-229.8-22.6-96.2-2.9-190-5.2-285.5 8.9-1.7-1.8-2.5-2.7-4.2-4.5.5-17.4.7-26.1 1.1-43.5 4-1 6-1.4 10.1-2.4-3.6-.7-5.4-1.1-9-1.9l1.5-34.7c35.6-2.9 71.2-5 106.8-6.4-34.9 2.3-69.8 5.3-104.5 9.2-.7 11.8-1 17.7-1.7 29.6 4.2 1.8 6.3 2.8 10.5 4.6-4.1 1.7-6.2 2.5-10.3 4.3 0 0-1.1 32-.8 34.3.3 2.3 2.4 8.1 2.4 8.1 65.9-11 132.7-17.5 199.1-18.1 103.6-1 207.2 6.5 309.5 26.6 4.2-.2 6.2-.3 10.3-.6z"/>
    <path class="st15" d="M548.2 581.8c.9-16.1 1.3-24.2 2.2-40.3 0 0-1.1-10.3-2.7-11.9-1.3-1.3-74-15.1-96.8-18.7 33.2 4.1 61.2 6.4 94.2 12 1.2 2.5 5.6 6.8 6.8 9.4.9 21.2.4 31.5-.3 52.7-1.1 6.5-.9 8-9.6 6.6-19.6-2.7-29.4-4-49.1-6.1 19.3.6 29 1.1 48.2 2.1 2.8-2.4 4.2-3.5 7.1-5.8zM33.4 507.7c-.3-10-.4-15-.7-25 7.8-.6 11.7-.9 19.6-1.4-7.6-1.1-11.4-1.6-19-2.7-1.2-6.7-1.8-10.1-2.9-16.8 0 0 .5-38.6 2.6-38 .8.2 22.5 1.1 50.2 2.1l-46 1.5c-1.6 12.8-2.4 19.2-4 32.1 0 0 2.1 13.2 3 14.6.9 1.3 22.1 6.5 22.1 6.5-8.9 1.7-13.3 2.6-22.2 4.4 0 0 .3 21.8.7 22 11.6 9.8 65.7 1.8 98.6 2.8-33.3-.1-66.6.3-99.9 1.2-.9-1.3-1.3-2-2.1-3.3z"/>
  </g>
  <path class="st16" d="M34.7 253s118.5 19 216.8 16.2c0 0 100.3 7.7 178.6 0l28.7 5.7s57-1 60.5-3.4c0 0 40.8 2.4 42.7.5"/>
  <g>
    <path class="st1" d="M246 455.7c0 2.1-.5 3.8-1.6 5.1-1 1.3-2.6 2-4.6 2-4.9 0-11.1-26.3-18.6-78.8-1.1-7.7-1.7-12.2-2-13.4-2.5 18.2-4.5 33.9-5.8 47.2-1.3 13.2-2 26.4-2 39.4 0 1.5-.6 2.8-1.9 4-1.2 1.2-2.6 1.8-4.1 1.8-5 0-7.5-5.2-7.5-15.6 0-6.4-2.8-29.8-8.5-70.2-5.6-40.4-9.2-62.5-10.8-66.3 1.7-3.3 4.2-4.9 7.3-4.9 3.1 0 6 7.1 8.6 21.3 2.6 14.2 4.8 31.4 6.6 51.7 1.8 20.3 2.8 30.5 2.9 30.8.2-1.9.9-7.6 2.1-17.3 1.2-9.6 2.1-17.4 2.8-23.3 2-17.7 3-30.4 3-37.8v-3.9c0-1.5.6-2.9 1.7-4.3s2.4-2.1 3.8-2.1c4.9 0 7.3 2 7.3 6v3.1c0 13.2 3.1 32.3 9.2 57.4 2.7 10.9 4.6 19.7 5.7 26.3.7-7.5 2.1-18.4 4-32.7 4.2-31.1 6.3-55.1 6.3-71.9 0-3 .5-5.2 1.5-6.6 1-1.4 2.6-2.1 4.9-2.1 2.3 0 4.1.5 5.4 1.6 1.3 1.1 2 2.4 2 4.1 0 1.7-.7 3.2-2.1 4.6 0 19.9-2.6 44-7.8 72.3-5.3 28.4-7.8 52.5-7.8 72.5zM295 391.8l1 43.5v6.1l-.1 5.7h2.7l5.9-.2c5.6 0 8.4 1.7 8.4 5.1 0 1.7-.7 3.2-2.1 4.5-1.4 1.2-3 1.9-4.8 1.9h-9c-6.2 0-10.2-.1-11.9-.4-1.1.1-1.9.2-2.5.2-4.9 0-7.3-1.5-7.3-4.6 0-1.3.4-2.5 1.2-3.6.8-1.1 1.6-1.7 2.4-1.8h5.8l.4-2.7-1.4-43.5 1.1-45.6c0-7.8-.3-15.1-1-22H280l-4.7.2c-2 0-3.6-.4-4.7-1.2-1.1-.8-1.7-2.2-1.7-4.4 0-3.1 3.4-4.7 10.1-4.7h24.4c5.5 0 8.3 1.4 8.3 4.3 0 1.3-.6 2.4-1.8 3.5-1.2 1.1-2.6 1.6-4.1 1.6h-10.5c.5 5.6.8 11.9.8 19l-1.1 39.1zM322.7 377l1.2-38.2c0-6.3 2.5-11.4 7.5-15.1v1.3c.5-.3 1-.5 1.5-.5 3.2 0 7.2 5.5 12 16.6 4.8 11 9.1 23.2 13 36.4 3.9 13.2 7.7 26.5 11.6 40 3.8 13.4 6.2 21.3 7.2 23.7 2.7-28.6 4.1-63.3 4.1-104l-.3-5.5c0-4.1 1.7-6.1 5.1-6.1 1.9 0 3.4.8 4.4 2.4 1 1.6 1.5 3.5 1.5 5.6V349c-.1 16.1-.9 37.6-2.2 64.4-1.3 26.9-3.1 42-5.3 45.5-3.7 1.1-6.3 1.7-7.8 1.7-1.4 0-2.5-.5-3.3-1.5-.8-1-1.4-2.5-1.9-4.5s-.9-3.3-1.2-4l.1-.9c0-5.1-4.9-21.2-14.7-48.3-9.8-27.2-16.9-45.8-21.3-56.1v103.2c.1.3.4.7.8 1.4.9 1.5 1.3 2.8 1.3 4.1 0 1.3-.6 2.5-1.9 3.8-1.2 1.3-2.7 1.9-4.4 1.9-4.5 0-6.7-4.2-6.7-12.5l-.3-70.2z"/>
    <g>
      <path class="st1" d="M156.5 485.9c0-2 1.1-3 3.4-3s3.4.9 3.4 2.8c0 2.6-.1 4.2-.3 5v.7c-1.1 3.4-1.7 7.1-1.7 11.2v8.9c0 5.1-.6 12.7-1.9 22.9-1.2 10.2-1.9 17.5-1.9 22 0 8.2-1.6 12.3-4.7 12.3-2.3 0-3.5-1.7-3.5-5.2s-.1-6.9-.4-10.5c-.2-3.5-.6-7.4-1.2-11.6-.5-4.2-1-7.7-1.4-10.5-.4-2.7-1-6.7-1.8-11.8-.8-5.1-1.3-8.6-1.6-10.4-.3 2.7-.4 5.4-.4 8.1 0 2.7-.3 7.9-.9 15.5-.6 7.6-1.7 15.3-3.2 23.1-1.5 7.8-3.3 11.7-5.2 11.7-3.1 0-5.5-8.5-7.1-25.4-.7-7.3-1.3-14.6-1.9-21.9-1.4-18.8-2.7-29.4-3.7-31.9.7-1.4 1.8-2.1 3.5-2.1 2.6 0 3.9 2.9 3.9 8.8s.8 14.8 2.6 26.9c1.7 12 2.6 20.8 2.8 26.4 3.4-23.4 5.2-41.3 5.2-53.6l3.3-1.4c1 0 1.8.3 2.6.8.7.5 1.1 1.2 1.1 2.2v1c2.3 7.8 4.1 19.1 5.5 33.9.6 6.8 1.2 12 1.8 15.7 1.5-11.2 2.3-24.6 2.3-40.2 0-2.1.3-5.1.9-9.1.6-4 .9-7.1.9-9.1-.2-.8-.4-1.5-.4-2.2zM183.4 524.2l.6 25.8v7h1.6l3.5-.1c3.3 0 5 1 5 3 0 1-.4 1.9-1.2 2.6-.8.7-1.7 1.1-2.8 1.1h-5.3c-3.7 0-6-.1-7.1-.2-.6.1-1.1.1-1.5.1-2.9 0-4.3-.9-4.3-2.7 0-.8.2-1.5.7-2.1.5-.7.9-1 1.4-1.1h3.4l.2-1.6-.8-25.8.7-27c0-4.6-.2-9-.6-13h-2.3l-2.8.1c-1.2 0-2.1-.2-2.8-.7-.7-.5-1-1.3-1-2.6 0-1.9 2-2.8 6-2.8h14.5c3.3 0 4.9.9 4.9 2.6 0 .8-.4 1.4-1.1 2.1s-1.5.9-2.4.9h-6.2c.3 3.3.5 7.1.5 11.3l-.8 23.1zM211.3 562.7l-.2-9.3s.1-1.4.2-4.2c-.3-1-1-10.2-1.9-27.4-1-17.2-1.5-27.8-1.6-31.6h-.5c-6.6-.1-9.8-1.3-9.8-3.6 0-.8.4-1.4 1.3-1.9s1.7-.7 2.6-.7l16.5 1.1 2-.1c2.5 0 3.8 1 3.8 2.9 0 1-.4 1.8-1.2 2.4-.8.6-1.8.9-2.8.9l-5.6-.8-.2 1.2c0 7.7.7 19.2 2 34.5s2 26.8 2 34.5c0 .9-.4 1.8-1.3 2.5s-1.8 1.1-2.8 1.1l-2.5-1.5zM236.7 491.5l-.5 30.3c1.5.4 3.7.6 6.6.6h4.4c.2-.4.3-1.7.3-3.9s-.3-7.2-.8-14.9-.8-13.4-.8-17.3c0-.9.4-1.7 1.1-2.3.7-.6 1.4-.9 2-.9.6 0 1.1.1 1.5.2.4.1.8.3 1.3.5s.8.3 1.1.4c0 10.5.4 25.9 1.2 46.1.8 20.2 1.2 30.7 1.2 31.3 0 .7-.4 1.3-1.3 2s-1.8 1-2.8 1c-1 0-1.9-.8-2.5-2.3-.6-1.5-1.1-3.8-1.3-6.9-.2-3-.4-5.6-.4-7.9v-3.3c0-1.7 0-3.6.1-5.7.1-3.8.1-5.9.1-6.5v-.5l.2-3.5-.7-1.1v-.1c-.7.2-1.4.2-2.2.2l-7.8-1.1V540l.7 20c0 1.1-.3 2.2-.9 3.1-.6.9-1.4 1.3-2.6 1.3-1.6 0-2.7-1.5-3.4-4.4-.6-2.9-.9-7-.9-12.1l.4-18.5c0-3.8-.1-6-.2-6.3v-.6c.3-4.2.5-6.6.5-7.1l-.8-27.4c0-.9.3-1.8 1-2.5s1.5-1.1 2.4-1.1c2.5-.1 3.8 2.3 3.8 7.1zM277.9 537.1l-.4-47c0-5.3.1-10.5.2-15.7l3.4-1.9c2.4.2 5.2 6.6 8.2 19.3 2.5 10.4 4.5 19.7 6.1 28s2.4 12.8 2.6 13.5c.6-2.6 1.6-7.3 3.1-14s2.6-11.9 3.4-15.7c2.2-10.9 3.6-20.5 4.1-29v-.7c.2-1 .7-1.9 1.5-2.5.8-.6 1.7-.9 2.6-.9.9 0 1.7.3 2.2 1 .6.7.9 1.4.9 2.1 0 9.7.4 24.2 1.1 43.5.7 19.3 1.1 33.8 1.1 43.5 0 1.9-.5 3.6-1.5 5s-2 2.1-3 2.1c-2 0-3-1.6-3-4.8l-.5-51.1v-6.2c-.6 3.1-1.8 8.6-3.7 16.4-1.9 7.8-3.2 13.8-3.7 17.9v.8c-.1.3-.2 1.1-.4 2.3-.2 1.2-.3 2.2-.5 2.9-.2.8-.4 1.6-.8 2.6-.8 1.9-2 2.8-3.7 2.8-2.9 0-4.3-3.8-4.3-11.3 0-7.5-1.8-17.9-5.5-31.4-1.8-6.7-3-11.3-3.5-13.6-.2 6.5-.2 11.4-.2 14.7l1 49.9c0 1.7-.6 3.3-1.8 4.6-2.1 0-3.5-.7-4.2-2-.7-1.3-1.1-3.2-1.1-5.5l.3-19.6zM324.9 527.5l.1-4.6c0-.4-.1-.6-.2-.6v-2.2c0-12.7.7-21.8 2.2-27.2 1.2-4.5 2.4-7.4 3.6-8.4 1.1-1.1 2.3-1.6 3.4-1.6 9.4 0 15.9 4.7 19.5 14.2 2.1 5.5 3.1 12.2 3.1 20.2v.9l.2 13.8c0 23.3-5.4 34.9-16.2 34.9-4.5 0-7.9-2.5-10.3-7.4-2.3-4.7-3.6-9.4-4.2-14-.8-6.9-1.2-12.9-1.2-18zm7.2-16.6l-.6 11.2c0 11.7.9 22 2.8 30.7 2 5.1 3.9 8.1 5.8 9 1.5 0 2.8-.6 4-1.8 1.2-1.2 2.1-2.8 2.8-4.8.7-2 1.3-4.1 1.8-6.3.4-2.2.8-4.5 1-7 .4-4.3.6-8 .6-11s-.3-7.7-.8-14-.8-11-.8-14.1v-2.1c-.1-3-1-5.6-2.9-7.9-1.9-2.3-4.2-3.5-7.1-3.5-2.8 0-4.6 1.6-5.5 4.7-.8 2.6-1.1 5.8-1.1 9.7v7.2zM365.5 512.1l.2-11.6c0-4.9-.3-8.7-.9-11.3.6-2.8 1.6-4.3 3.3-4.3h5.3c4.7 0 7.9 1.9 9.8 5.8 1.7 3.4 2.5 7.4 2.5 11.9 0 5.7-.1 9.1-.4 10.4-.3 1.3-.6 2.5-.9 3.6-.3 1.1-.7 2.1-1.2 2.8-.5.7-1 1.5-1.8 2.3-.7.9-1.5 1.6-2.4 2.2-2 1.3-4.4 2.4-7.3 3.3v13l.9 23c0 1-.4 1.8-1.2 2.5-.8.7-1.8 1-2.8 1l-2.6-1.5c-1-4.5-1.5-10.4-1.5-17.9l.5-21.3c-.5-1.1-.7-2.1-.7-3v-.4c.8-1.6 1.2-5.1 1.2-10.5zm6-13.6l.2 23.7v.2c4.8-.6 7.2-7.5 7.2-20.5 0-3.8-.5-6.4-1.4-7.8-1-1.5-2.6-2.2-4.7-2.2 0-.1-.4-.2-1.3-.2v6.8zM419.9 540l1.3 7.5c0 1 .4 3.4 1.2 7.2.8 3.8 1.2 6.3 1.2 7.5v.1c0 1.8-.7 2.9-2 3.4-1.7 0-3-.3-4-.8-.9-.6-1.4-1.6-1.4-3.2 0-3.4-.6-8.4-1.8-15l-12-1.8c-.8 2.7-1.3 5.6-1.7 8.8-.4 3.2-.8 5.5-1.1 7-.7 3-2 4.5-4 4.5-.9 0-1.8-.3-2.6-.9-.8-.6-1.2-1.4-1.2-2.3l.3-1.1c5.5-21.1 9.5-41.6 12.2-61.6.1-.6.2-2.2.4-4.9.4-5.9 1.1-9.7 2.3-11.3h4.1c1.1 0 2.1.3 2.9.8.8.5 1.2 1.3 1.2 2.3 0 6.2.8 15.3 2.5 27.5 1.4 12.2 2.2 20.9 2.2 26.3zm-6.4 2.4c-.2-1.2-.4-3.3-.4-6.2 0-2.9-.2-6.6-.5-11s-.8-9.5-1.5-15.2c-.6-5.8-1.1-10-1.3-12.6-3.7 20.4-6.1 34.7-7.1 43.1 1.5.8 5.1 1.5 10.8 1.9zM435.8 523.9l-.1 13.2c0 10.7.8 19.2 2.3 25.3l-1.4 3.3h-3.4l-1.6-1.8c.1-3.6.1-7.7.1-12.2 0-4.5-.3-14.2-1-29s-1-25.9-1-33.2c0-3.8 1.3-5.8 4-5.8 4.2 0 7.8 1.1 10.7 3.3 2.9 2.2 4.3 5.4 4.3 9.5v8.5c0 2.3-.4 4.5-1.3 6.4-.9 1.9-1.9 3.9-3 6s-1.8 3.3-1.9 3.5c.4 2 1.2 5.9 2.3 11.6 2.4 12.6 5 21.7 7.9 27.2.8 1.6 1.2 2.8 1.2 3.7s-.2 1.6-.7 2.3c-.5.6-1.2.9-2 .9-1.7 0-3.3-1.9-4.9-5.8-1.6-3.9-2.8-8.2-3.8-13-2.9-14.5-4.6-22.5-5.3-24h-1.4zm.5-35.7l-.4 1.7c0 3.3.1 8.1.2 14.4.2 6.3.2 10.8.2 13.7 1.9-1 3.4-3.6 4.6-7.7 1.2-4.2 1.8-7.4 1.8-9.6 0-2.2-.1-3.8-.2-4.9-.1-1-.4-2.2-.8-3.5-.7-2.6-2.5-4-5.4-4.1z"/>
    </g>
  </g>
  <ellipse class="st1" cx="62.1" cy="292.2" rx="13.4" ry="5.7"/>
  <g>
    <linearGradient id="SVGID_3_" gradientUnits="userSpaceOnUse" x1="62.677" y1="296.2" x2="62.677" y2="280.783">
      <stop offset=".159" stop-color="#B3987A"/>
      <stop offset=".754" stop-color="#DECAAB"/>
      <stop offset="1" stop-color="#B3987A"/>
    </linearGradient>
    <path class="st17" d="M72 294.2c-1.2 2-3.8 2.6-5.8 1.4l-11.4-7c-2-1.2-2.6-3.8-1.4-5.8 1.2-2 3.8-2.6 5.8-1.4l11.4 7c2 1.2 2.6 3.8 1.4 5.8z"/>
    <linearGradient id="SVGID_4_" gradientUnits="userSpaceOnUse" x1="62.677" y1="286.202" x2="62.677" y2="270.785">
      <stop offset=".159" stop-color="#B3987A"/>
      <stop offset=".754" stop-color="#DECAAB"/>
      <stop offset="1" stop-color="#B3987A"/>
    </linearGradient>
    <path class="st18" d="M72 284.2c-1.2 2-3.8 2.6-5.8 1.4l-11.4-7c-2-1.2-2.6-3.8-1.4-5.8 1.2-2 3.8-2.6 5.8-1.4l11.4 7c2 1.2 2.6 3.8 1.4 5.8z"/>
    <linearGradient id="SVGID_5_" gradientUnits="userSpaceOnUse" x1="62.677" y1="276.204" x2="62.677" y2="260.787">
      <stop offset=".159" stop-color="#B3987A"/>
      <stop offset=".754" stop-color="#DECAAB"/>
      <stop offset="1" stop-color="#B3987A"/>
    </linearGradient>
    <path class="st19" d="M72 274.2c-1.2 2-3.8 2.6-5.8 1.4l-11.4-7c-2-1.2-2.6-3.8-1.4-5.8 1.2-2 3.8-2.6 5.8-1.4l11.4 7c2 1.2 2.6 3.8 1.4 5.8z"/>
    <linearGradient id="SVGID_6_" gradientUnits="userSpaceOnUse" x1="62.677" y1="266.206" x2="62.677" y2="250.789">
      <stop offset=".159" stop-color="#B3987A"/>
      <stop offset=".754" stop-color="#DECAAB"/>
      <stop offset="1" stop-color="#B3987A"/>
    </linearGradient>
    <path class="st20" d="M72 264.2c-1.2 2-3.8 2.6-5.8 1.4l-11.4-7c-2-1.2-2.6-3.8-1.4-5.8 1.2-2 3.8-2.6 5.8-1.4l11.4 7c2 1.2 2.6 3.8 1.4 5.8z"/>
    <linearGradient id="SVGID_7_" gradientUnits="userSpaceOnUse" x1="62.677" y1="256.209" x2="62.677" y2="240.792">
      <stop offset=".159" stop-color="#B3987A"/>
      <stop offset=".754" stop-color="#DECAAB"/>
      <stop offset="1" stop-color="#B3987A"/>
    </linearGradient>
    <path class="st21" d="M72 254.2c-1.2 2-3.8 2.6-5.8 1.4l-11.4-7c-2-1.2-2.6-3.8-1.4-5.8 1.2-2 3.8-2.6 5.8-1.4l11.4 7c2 1.2 2.6 3.8 1.4 5.8z"/>
    <linearGradient id="SVGID_8_" gradientUnits="userSpaceOnUse" x1="62.677" y1="246.21" x2="62.677" y2="230.794">
      <stop offset=".159" stop-color="#B3987A"/>
      <stop offset=".754" stop-color="#DECAAB"/>
      <stop offset="1" stop-color="#B3987A"/>
    </linearGradient>
    <path class="st22" d="M72 244.2c-1.2 2-3.8 2.6-5.8 1.4l-11.4-7c-2-1.2-2.6-3.8-1.4-5.8 1.2-2 3.8-2.6 5.8-1.4l11.4 7c2 1.2 2.6 3.8 1.4 5.8z"/>
    <linearGradient id="SVGID_9_" gradientUnits="userSpaceOnUse" x1="62.677" y1="236.212" x2="62.677" y2="220.796">
      <stop offset=".159" stop-color="#B3987A"/>
      <stop offset=".754" stop-color="#DECAAB"/>
      <stop offset="1" stop-color="#B3987A"/>
    </linearGradient>
    <path class="st23" d="M72 234.2c-1.2 2-3.8 2.6-5.8 1.4l-11.4-7c-2-1.2-2.6-3.8-1.4-5.8 1.2-2 3.8-2.6 5.8-1.4l11.4 7c2 1.2 2.6 3.8 1.4 5.8z"/>
    <linearGradient id="SVGID_10_" gradientUnits="userSpaceOnUse" x1="62.677" y1="226.214" x2="62.677" y2="210.798">
      <stop offset=".159" stop-color="#B3987A"/>
      <stop offset=".754" stop-color="#DECAAB"/>
      <stop offset="1" stop-color="#B3987A"/>
    </linearGradient>
    <path class="st24" d="M72 224.2c-1.2 2-3.8 2.6-5.8 1.4l-11.4-7c-2-1.2-2.6-3.8-1.4-5.8 1.2-2 3.8-2.6 5.8-1.4l11.4 7c2 1.2 2.6 3.8 1.4 5.8z"/>
    <linearGradient id="SVGID_11_" gradientUnits="userSpaceOnUse" x1="62.677" y1="216.216" x2="62.677" y2="200.8">
      <stop offset=".159" stop-color="#B3987A"/>
      <stop offset=".754" stop-color="#DECAAB"/>
      <stop offset="1" stop-color="#B3987A"/>
    </linearGradient>
    <path class="st25" d="M72 214.2c-1.2 2-3.8 2.6-5.8 1.4l-11.4-7c-2-1.2-2.6-3.8-1.4-5.8 1.2-2 3.8-2.6 5.8-1.4l11.4 7c2 1.2 2.6 3.8 1.4 5.8z"/>
    <linearGradient id="SVGID_12_" gradientUnits="userSpaceOnUse" x1="62.677" y1="206.219" x2="62.677" y2="190.802">
      <stop offset=".159" stop-color="#B3987A"/>
      <stop offset=".754" stop-color="#DECAAB"/>
      <stop offset="1" stop-color="#B3987A"/>
    </linearGradient>
    <path class="st26" d="M72 204.2c-1.2 2-3.8 2.6-5.8 1.4l-11.4-7c-2-1.2-2.6-3.8-1.4-5.8 1.2-2 3.8-2.6 5.8-1.4l11.4 7c2 1.2 2.6 3.8 1.4 5.8z"/>
    <linearGradient id="SVGID_13_" gradientUnits="userSpaceOnUse" x1="62.677" y1="196.221" x2="62.677" y2="180.804">
      <stop offset=".159" stop-color="#B3987A"/>
      <stop offset=".754" stop-color="#DECAAB"/>
      <stop offset="1" stop-color="#B3987A"/>
    </linearGradient>
    <path class="st27" d="M72 194.2c-1.2 2-3.8 2.6-5.8 1.4l-11.4-7c-2-1.2-2.6-3.8-1.4-5.8 1.2-2 3.8-2.6 5.8-1.4l11.4 7c2 1.2 2.6 3.8 1.4 5.8z"/>
    <linearGradient id="SVGID_14_" gradientUnits="userSpaceOnUse" x1="62.677" y1="186.223" x2="62.677" y2="170.806">
      <stop offset=".159" stop-color="#B3987A"/>
      <stop offset=".754" stop-color="#DECAAB"/>
      <stop offset="1" stop-color="#B3987A"/>
    </linearGradient>
    <path class="st28" d="M72 184.2c-1.2 2-3.8 2.6-5.8 1.4l-11.4-7c-2-1.2-2.6-3.8-1.4-5.8 1.2-2 3.8-2.6 5.8-1.4l11.4 7c2 1.2 2.6 3.8 1.4 5.8z"/>
    <linearGradient id="SVGID_15_" gradientUnits="userSpaceOnUse" x1="62.677" y1="176.226" x2="62.677" y2="160.808">
      <stop offset=".159" stop-color="#B3987A"/>
      <stop offset=".754" stop-color="#DECAAB"/>
      <stop offset="1" stop-color="#B3987A"/>
    </linearGradient>
    <path class="st29" d="M72 174.2c-1.2 2-3.8 2.6-5.8 1.4l-11.4-7c-2-1.2-2.6-3.8-1.4-5.8 1.2-2 3.8-2.6 5.8-1.4l11.4 7c2 1.3 2.6 3.8 1.4 5.8z"/>
    <linearGradient id="SVGID_16_" gradientUnits="userSpaceOnUse" x1="62.677" y1="166.227" x2="62.677" y2="150.81">
      <stop offset=".159" stop-color="#B3987A"/>
      <stop offset=".754" stop-color="#DECAAB"/>
      <stop offset="1" stop-color="#B3987A"/>
    </linearGradient>
    <path class="st30" d="M72 164.2c-1.2 2-3.8 2.6-5.8 1.4l-11.4-7c-2-1.2-2.6-3.8-1.4-5.8 1.2-2 3.8-2.6 5.8-1.4l11.4 7c2 1.3 2.6 3.8 1.4 5.8z"/>
    <linearGradient id="SVGID_17_" gradientUnits="userSpaceOnUse" x1="62.677" y1="156.229" x2="62.677" y2="140.813">
      <stop offset=".159" stop-color="#B3987A"/>
      <stop offset=".754" stop-color="#DECAAB"/>
      <stop offset="1" stop-color="#B3987A"/>
    </linearGradient>
    <path class="st31" d="M72 154.2c-1.2 2-3.8 2.6-5.8 1.4l-11.4-7c-2-1.2-2.6-3.8-1.4-5.8 1.2-2 3.8-2.6 5.8-1.4l11.4 7c2 1.3 2.6 3.8 1.4 5.8z"/>
    <linearGradient id="SVGID_18_" gradientUnits="userSpaceOnUse" x1="62.677" y1="146.231" x2="62.677" y2="130.815">
      <stop offset=".159" stop-color="#B3987A"/>
      <stop offset=".754" stop-color="#DECAAB"/>
      <stop offset="1" stop-color="#B3987A"/>
    </linearGradient>
    <path class="st32" d="M72 144.2c-1.2 2-3.8 2.6-5.8 1.4l-11.4-7c-2-1.2-2.6-3.8-1.4-5.8 1.2-2 3.8-2.6 5.8-1.4l11.4 7c2 1.3 2.6 3.8 1.4 5.8z"/>
    <linearGradient id="SVGID_19_" gradientUnits="userSpaceOnUse" x1="62.677" y1="136.233" x2="62.677" y2="120.817">
      <stop offset=".159" stop-color="#B3987A"/>
      <stop offset=".754" stop-color="#DECAAB"/>
      <stop offset="1" stop-color="#B3987A"/>
    </linearGradient>
    <path class="st33" d="M72 134.2c-1.2 2-3.8 2.6-5.8 1.4l-11.4-7c-2-1.2-2.6-3.8-1.4-5.8 1.2-2 3.8-2.6 5.8-1.4l11.4 7c2 1.3 2.6 3.8 1.4 5.8z"/>
    <linearGradient id="SVGID_20_" gradientUnits="userSpaceOnUse" x1="62.677" y1="126.236" x2="62.677" y2="110.819">
      <stop offset=".159" stop-color="#B3987A"/>
      <stop offset=".754" stop-color="#DECAAB"/>
      <stop offset="1" stop-color="#B3987A"/>
    </linearGradient>
    <path class="st34" d="M72 124.2c-1.2 2-3.8 2.6-5.8 1.4l-11.4-7c-2-1.2-2.6-3.8-1.4-5.8 1.2-2 3.8-2.6 5.8-1.4l11.4 7c2 1.3 2.6 3.8 1.4 5.8z"/>
    <linearGradient id="SVGID_21_" gradientUnits="userSpaceOnUse" x1="62.677" y1="116.238" x2="62.677" y2="100.821">
      <stop offset=".159" stop-color="#B3987A"/>
      <stop offset=".754" stop-color="#DECAAB"/>
      <stop offset="1" stop-color="#B3987A"/>
    </linearGradient>
    <path class="st35" d="M72 114.2c-1.2 2-3.8 2.6-5.8 1.4l-11.4-7c-2-1.2-2.6-3.8-1.4-5.8 1.2-2 3.8-2.6 5.8-1.4l11.4 7c2 1.3 2.6 3.9 1.4 5.8z"/>
    <linearGradient id="SVGID_22_" gradientUnits="userSpaceOnUse" x1="62.677" y1="106.24" x2="62.677" y2="90.823">
      <stop offset=".159" stop-color="#B3987A"/>
      <stop offset=".754" stop-color="#DECAAB"/>
      <stop offset="1" stop-color="#B3987A"/>
    </linearGradient>
    <path class="st36" d="M72 104.2c-1.2 2-3.8 2.6-5.8 1.4l-11.4-7c-2-1.2-2.6-3.8-1.4-5.8 1.2-2 3.8-2.6 5.8-1.4l11.4 7c2 1.3 2.6 3.9 1.4 5.8z"/>
    <linearGradient id="SVGID_23_" gradientUnits="userSpaceOnUse" x1="62.677" y1="96.242" x2="62.677" y2="80.826">
      <stop offset=".159" stop-color="#B3987A"/>
      <stop offset=".754" stop-color="#DECAAB"/>
      <stop offset="1" stop-color="#B3987A"/>
    </linearGradient>
    <path class="st37" d="M72 94.2c-1.2 2-3.8 2.6-5.8 1.4l-11.4-7c-2-1.2-2.6-3.8-1.4-5.8 1.2-2 3.8-2.6 5.8-1.4l11.4 7c2 1.3 2.6 3.9 1.4 5.8z"/>
    <linearGradient id="SVGID_24_" gradientUnits="userSpaceOnUse" x1="62.677" y1="86.244" x2="62.677" y2="70.827">
      <stop offset=".159" stop-color="#B3987A"/>
      <stop offset=".754" stop-color="#DECAAB"/>
      <stop offset="1" stop-color="#B3987A"/>
    </linearGradient>
    <path class="st38" d="M72 84.2c-1.2 2-3.8 2.6-5.8 1.4l-11.4-7c-2-1.2-2.6-3.8-1.4-5.8 1.2-2 3.8-2.6 5.8-1.4l11.4 7c2 1.3 2.6 3.9 1.4 5.8z"/>
    <linearGradient id="SVGID_25_" gradientUnits="userSpaceOnUse" x1="62.677" y1="76.246" x2="62.677" y2="60.83">
      <stop offset=".159" stop-color="#B3987A"/>
      <stop offset=".754" stop-color="#DECAAB"/>
      <stop offset="1" stop-color="#B3987A"/>
    </linearGradient>
    <path class="st39" d="M72 74.2c-1.2 2-3.8 2.6-5.8 1.4l-11.4-7c-2-1.2-2.6-3.8-1.4-5.8 1.2-2 3.8-2.6 5.8-1.4l11.4 7c2 1.3 2.6 3.9 1.4 5.8z"/>
    <linearGradient id="SVGID_26_" gradientUnits="userSpaceOnUse" x1="62.677" y1="66.248" x2="62.677" y2="50.832">
      <stop offset=".159" stop-color="#B3987A"/>
      <stop offset=".754" stop-color="#DECAAB"/>
      <stop offset="1" stop-color="#B3987A"/>
    </linearGradient>
    <path class="st40" d="M72 64.2c-1.2 2-3.8 2.6-5.8 1.4l-11.4-7c-2-1.2-2.6-3.8-1.4-5.8 1.2-2 3.8-2.6 5.8-1.4l11.4 7c2 1.3 2.6 3.9 1.4 5.8z"/>
    <linearGradient id="SVGID_27_" gradientUnits="userSpaceOnUse" x1="62.677" y1="56.25" x2="62.677" y2="40.834">
      <stop offset=".159" stop-color="#B3987A"/>
      <stop offset=".754" stop-color="#DECAAB"/>
      <stop offset="1" stop-color="#B3987A"/>
    </linearGradient>
    <path class="st41" d="M72 54.2c-1.2 2-3.8 2.6-5.8 1.4l-11.4-7c-2-1.2-2.6-3.8-1.4-5.8 1.2-2 3.8-2.6 5.8-1.4l11.4 7c2 1.3 2.6 3.9 1.4 5.8z"/>
    <linearGradient id="SVGID_28_" gradientUnits="userSpaceOnUse" x1="62.677" y1="46.253" x2="62.677" y2="30.836">
      <stop offset=".159" stop-color="#B3987A"/>
      <stop offset=".754" stop-color="#DECAAB"/>
      <stop offset="1" stop-color="#B3987A"/>
    </linearGradient>
    <path class="st42" d="M72 44.2c-1.2 2-3.8 2.6-5.8 1.4l-11.4-7c-2-1.2-2.6-3.8-1.4-5.8 1.2-2 3.8-2.6 5.8-1.4l11.4 7c2 1.3 2.6 3.9 1.4 5.8z"/>
    <linearGradient id="SVGID_29_" gradientUnits="userSpaceOnUse" x1="62.677" y1="36.255" x2="62.677" y2="20.838">
      <stop offset=".159" stop-color="#B3987A"/>
      <stop offset=".754" stop-color="#DECAAB"/>
      <stop offset="1" stop-color="#B3987A"/>
    </linearGradient>
    <path class="st43" d="M72 34.2c-1.2 2-3.8 2.6-5.8 1.4l-11.4-7c-2-1.2-2.6-3.8-1.4-5.8 1.2-2 3.8-2.6 5.8-1.4l11.4 7c2 1.3 2.6 3.9 1.4 5.8z"/>
    <linearGradient id="SVGID_30_" gradientUnits="userSpaceOnUse" x1="62.677" y1="26.257" x2="62.677" y2="10.84">
      <stop offset=".159" stop-color="#B3987A"/>
      <stop offset=".754" stop-color="#DECAAB"/>
      <stop offset="1" stop-color="#B3987A"/>
    </linearGradient>
    <path class="st44" d="M72 24.2c-1.2 2-3.8 2.6-5.8 1.4l-11.4-7c-2-1.2-2.6-3.8-1.4-5.8 1.2-2 3.8-2.6 5.8-1.4l11.4 7c2 1.3 2.6 3.9 1.4 5.8z"/>
    <linearGradient id="SVGID_31_" gradientUnits="userSpaceOnUse" x1="62.677" y1="16.259" x2="62.677" y2=".842">
      <stop offset=".159" stop-color="#B3987A"/>
      <stop offset=".754" stop-color="#DECAAB"/>
      <stop offset="1" stop-color="#B3987A"/>
    </linearGradient>
    <path class="st45" d="M72 14.3c-1.2 2-3.8 2.6-5.8 1.4l-11.4-7c-2-1.2-2.6-3.8-1.4-5.8 1.2-2 3.8-2.6 5.8-1.4l11.4 7c2 1.2 2.6 3.8 1.4 5.8z"/>
    <g class="st46">
      <path class="st47" d="M72 294.2c-1.2 2-3.8 2.6-5.8 1.4l-11.4-7c-2-1.2-2.6-3.8-1.4-5.8 1.2-2 3.8-2.6 5.8-1.4l11.4 7c2 1.2 2.6 3.8 1.4 5.8zM72 284.2c-1.2 2-3.8 2.6-5.8 1.4l-11.4-7c-2-1.2-2.6-3.8-1.4-5.8 1.2-2 3.8-2.6 5.8-1.4l11.4 7c2 1.2 2.6 3.8 1.4 5.8zM72 274.2c-1.2 2-3.8 2.6-5.8 1.4l-11.4-7c-2-1.2-2.6-3.8-1.4-5.8 1.2-2 3.8-2.6 5.8-1.4l11.4 7c2 1.2 2.6 3.8 1.4 5.8zM72 264.2c-1.2 2-3.8 2.6-5.8 1.4l-11.4-7c-2-1.2-2.6-3.8-1.4-5.8 1.2-2 3.8-2.6 5.8-1.4l11.4 7c2 1.2 2.6 3.8 1.4 5.8zM72 254.2c-1.2 2-3.8 2.6-5.8 1.4l-11.4-7c-2-1.2-2.6-3.8-1.4-5.8 1.2-2 3.8-2.6 5.8-1.4l11.4 7c2 1.2 2.6 3.8 1.4 5.8zM72 244.2c-1.2 2-3.8 2.6-5.8 1.4l-11.4-7c-2-1.2-2.6-3.8-1.4-5.8 1.2-2 3.8-2.6 5.8-1.4l11.4 7c2 1.2 2.6 3.8 1.4 5.8zM72 234.2c-1.2 2-3.8 2.6-5.8 1.4l-11.4-7c-2-1.2-2.6-3.8-1.4-5.8 1.2-2 3.8-2.6 5.8-1.4l11.4 7c2 1.2 2.6 3.8 1.4 5.8zM72 224.2c-1.2 2-3.8 2.6-5.8 1.4l-11.4-7c-2-1.2-2.6-3.8-1.4-5.8 1.2-2 3.8-2.6 5.8-1.4l11.4 7c2 1.2 2.6 3.8 1.4 5.8zM72 214.2c-1.2 2-3.8 2.6-5.8 1.4l-11.4-7c-2-1.2-2.6-3.8-1.4-5.8 1.2-2 3.8-2.6 5.8-1.4l11.4 7c2 1.2 2.6 3.8 1.4 5.8zM72 204.2c-1.2 2-3.8 2.6-5.8 1.4l-11.4-7c-2-1.2-2.6-3.8-1.4-5.8 1.2-2 3.8-2.6 5.8-1.4l11.4 7c2 1.2 2.6 3.8 1.4 5.8zM72 194.2c-1.2 2-3.8 2.6-5.8 1.4l-11.4-7c-2-1.2-2.6-3.8-1.4-5.8 1.2-2 3.8-2.6 5.8-1.4l11.4 7c2 1.2 2.6 3.8 1.4 5.8zM72 184.2c-1.2 2-3.8 2.6-5.8 1.4l-11.4-7c-2-1.2-2.6-3.8-1.4-5.8 1.2-2 3.8-2.6 5.8-1.4l11.4 7c2 1.2 2.6 3.8 1.4 5.8zM72 174.2c-1.2 2-3.8 2.6-5.8 1.4l-11.4-7c-2-1.2-2.6-3.8-1.4-5.8 1.2-2 3.8-2.6 5.8-1.4l11.4 7c2 1.3 2.6 3.8 1.4 5.8zM72 164.2c-1.2 2-3.8 2.6-5.8 1.4l-11.4-7c-2-1.2-2.6-3.8-1.4-5.8 1.2-2 3.8-2.6 5.8-1.4l11.4 7c2 1.3 2.6 3.8 1.4 5.8zM72 154.2c-1.2 2-3.8 2.6-5.8 1.4l-11.4-7c-2-1.2-2.6-3.8-1.4-5.8 1.2-2 3.8-2.6 5.8-1.4l11.4 7c2 1.3 2.6 3.8 1.4 5.8zM72 144.2c-1.2 2-3.8 2.6-5.8 1.4l-11.4-7c-2-1.2-2.6-3.8-1.4-5.8 1.2-2 3.8-2.6 5.8-1.4l11.4 7c2 1.3 2.6 3.8 1.4 5.8zM72 134.2c-1.2 2-3.8 2.6-5.8 1.4l-11.4-7c-2-1.2-2.6-3.8-1.4-5.8 1.2-2 3.8-2.6 5.8-1.4l11.4 7c2 1.3 2.6 3.8 1.4 5.8zM72 124.2c-1.2 2-3.8 2.6-5.8 1.4l-11.4-7c-2-1.2-2.6-3.8-1.4-5.8 1.2-2 3.8-2.6 5.8-1.4l11.4 7c2 1.3 2.6 3.8 1.4 5.8zM72 114.2c-1.2 2-3.8 2.6-5.8 1.4l-11.4-7c-2-1.2-2.6-3.8-1.4-5.8 1.2-2 3.8-2.6 5.8-1.4l11.4 7c2 1.3 2.6 3.9 1.4 5.8zM72 104.2c-1.2 2-3.8 2.6-5.8 1.4l-11.4-7c-2-1.2-2.6-3.8-1.4-5.8 1.2-2 3.8-2.6 5.8-1.4l11.4 7c2 1.3 2.6 3.9 1.4 5.8zM72 94.2c-1.2 2-3.8 2.6-5.8 1.4l-11.4-7c-2-1.2-2.6-3.8-1.4-5.8 1.2-2 3.8-2.6 5.8-1.4l11.4 7c2 1.3 2.6 3.9 1.4 5.8zM72 84.2c-1.2 2-3.8 2.6-5.8 1.4l-11.4-7c-2-1.2-2.6-3.8-1.4-5.8 1.2-2 3.8-2.6 5.8-1.4l11.4 7c2 1.3 2.6 3.9 1.4 5.8zM72 74.2c-1.2 2-3.8 2.6-5.8 1.4l-11.4-7c-2-1.2-2.6-3.8-1.4-5.8 1.2-2 3.8-2.6 5.8-1.4l11.4 7c2 1.3 2.6 3.9 1.4 5.8zM72 64.2c-1.2 2-3.8 2.6-5.8 1.4l-11.4-7c-2-1.2-2.6-3.8-1.4-5.8 1.2-2 3.8-2.6 5.8-1.4l11.4 7c2 1.3 2.6 3.9 1.4 5.8zM72 54.2c-1.2 2-3.8 2.6-5.8 1.4l-11.4-7c-2-1.2-2.6-3.8-1.4-5.8 1.2-2 3.8-2.6 5.8-1.4l11.4 7c2 1.3 2.6 3.9 1.4 5.8zM72 44.2c-1.2 2-3.8 2.6-5.8 1.4l-11.4-7c-2-1.2-2.6-3.8-1.4-5.8 1.2-2 3.8-2.6 5.8-1.4l11.4 7c2 1.3 2.6 3.9 1.4 5.8zM72 34.2c-1.2 2-3.8 2.6-5.8 1.4l-11.4-7c-2-1.2-2.6-3.8-1.4-5.8 1.2-2 3.8-2.6 5.8-1.4l11.4 7c2 1.3 2.6 3.9 1.4 5.8zM72 24.2c-1.2 2-3.8 2.6-5.8 1.4l-11.4-7c-2-1.2-2.6-3.8-1.4-5.8 1.2-2 3.8-2.6 5.8-1.4l11.4 7c2 1.3 2.6 3.9 1.4 5.8z"/>
      <path class="st47" d="M72 14.3c-1.2 2-3.8 2.6-5.8 1.4l-11.4-7c-2-1.2-2.6-3.8-1.4-5.8 1.2-2 3.8-2.6 5.8-1.4l11.4 7c2 1.2 2.6 3.8 1.4 5.8z"/>
    </g>
  </g>
  <ellipse class="st1" cx="534.9" cy="292.2" rx="13.4" ry="5.7"/>
  <g>
    <linearGradient id="SVGID_32_" gradientUnits="userSpaceOnUse" x1="-11331.591" y1="296.2" x2="-11331.591" y2="280.783" gradientTransform="matrix(-1 0 0 1 -10797.233 0)">
      <stop offset=".159" stop-color="#B3987A"/>
      <stop offset=".754" stop-color="#DECAAB"/>
      <stop offset="1" stop-color="#B3987A"/>
    </linearGradient>
    <path class="st48" d="M525.1 294.2c1.2 2 3.8 2.6 5.8 1.4l11.4-7c2-1.2 2.6-3.8 1.4-5.8-1.2-2-3.8-2.6-5.8-1.4l-11.4 7c-2 1.2-2.7 3.8-1.4 5.8z"/>
    <linearGradient id="SVGID_33_" gradientUnits="userSpaceOnUse" x1="-11331.591" y1="286.202" x2="-11331.591" y2="270.785" gradientTransform="matrix(-1 0 0 1 -10797.233 0)">
      <stop offset=".159" stop-color="#B3987A"/>
      <stop offset=".754" stop-color="#DECAAB"/>
      <stop offset="1" stop-color="#B3987A"/>
    </linearGradient>
    <path class="st49" d="M525.1 284.2c1.2 2 3.8 2.6 5.8 1.4l11.4-7c2-1.2 2.6-3.8 1.4-5.8-1.2-2-3.8-2.6-5.8-1.4l-11.4 7c-2 1.2-2.7 3.8-1.4 5.8z"/>
    <linearGradient id="SVGID_34_" gradientUnits="userSpaceOnUse" x1="-11331.591" y1="276.204" x2="-11331.591" y2="260.787" gradientTransform="matrix(-1 0 0 1 -10797.233 0)">
      <stop offset=".159" stop-color="#B3987A"/>
      <stop offset=".754" stop-color="#DECAAB"/>
      <stop offset="1" stop-color="#B3987A"/>
    </linearGradient>
    <path class="st50" d="M525.1 274.2c1.2 2 3.8 2.6 5.8 1.4l11.4-7c2-1.2 2.6-3.8 1.4-5.8-1.2-2-3.8-2.6-5.8-1.4l-11.4 7c-2 1.2-2.7 3.8-1.4 5.8z"/>
    <linearGradient id="SVGID_35_" gradientUnits="userSpaceOnUse" x1="-11331.591" y1="266.206" x2="-11331.591" y2="250.789" gradientTransform="matrix(-1 0 0 1 -10797.233 0)">
      <stop offset=".159" stop-color="#B3987A"/>
      <stop offset=".754" stop-color="#DECAAB"/>
      <stop offset="1" stop-color="#B3987A"/>
    </linearGradient>
    <path class="st51" d="M525.1 264.2c1.2 2 3.8 2.6 5.8 1.4l11.4-7c2-1.2 2.6-3.8 1.4-5.8-1.2-2-3.8-2.6-5.8-1.4l-11.4 7c-2 1.2-2.7 3.8-1.4 5.8z"/>
    <linearGradient id="SVGID_36_" gradientUnits="userSpaceOnUse" x1="-11331.591" y1="256.209" x2="-11331.591" y2="240.792" gradientTransform="matrix(-1 0 0 1 -10797.233 0)">
      <stop offset=".159" stop-color="#B3987A"/>
      <stop offset=".754" stop-color="#DECAAB"/>
      <stop offset="1" stop-color="#B3987A"/>
    </linearGradient>
    <path class="st52" d="M525.1 254.2c1.2 2 3.8 2.6 5.8 1.4l11.4-7c2-1.2 2.6-3.8 1.4-5.8-1.2-2-3.8-2.6-5.8-1.4l-11.4 7c-2 1.2-2.7 3.8-1.4 5.8z"/>
    <linearGradient id="SVGID_37_" gradientUnits="userSpaceOnUse" x1="-11331.591" y1="246.21" x2="-11331.591" y2="230.794" gradientTransform="matrix(-1 0 0 1 -10797.233 0)">
      <stop offset=".159" stop-color="#B3987A"/>
      <stop offset=".754" stop-color="#DECAAB"/>
      <stop offset="1" stop-color="#B3987A"/>
    </linearGradient>
    <path class="st53" d="M525.1 244.2c1.2 2 3.8 2.6 5.8 1.4l11.4-7c2-1.2 2.6-3.8 1.4-5.8-1.2-2-3.8-2.6-5.8-1.4l-11.4 7c-2 1.2-2.7 3.8-1.4 5.8z"/>
    <linearGradient id="SVGID_38_" gradientUnits="userSpaceOnUse" x1="-11331.591" y1="236.212" x2="-11331.591" y2="220.796" gradientTransform="matrix(-1 0 0 1 -10797.233 0)">
      <stop offset=".159" stop-color="#B3987A"/>
      <stop offset=".754" stop-color="#DECAAB"/>
      <stop offset="1" stop-color="#B3987A"/>
    </linearGradient>
    <path class="st54" d="M525.1 234.2c1.2 2 3.8 2.6 5.8 1.4l11.4-7c2-1.2 2.6-3.8 1.4-5.8-1.2-2-3.8-2.6-5.8-1.4l-11.4 7c-2 1.2-2.7 3.8-1.4 5.8z"/>
    <linearGradient id="SVGID_39_" gradientUnits="userSpaceOnUse" x1="-11331.591" y1="226.214" x2="-11331.591" y2="210.798" gradientTransform="matrix(-1 0 0 1 -10797.233 0)">
      <stop offset=".159" stop-color="#B3987A"/>
      <stop offset=".754" stop-color="#DECAAB"/>
      <stop offset="1" stop-color="#B3987A"/>
    </linearGradient>
    <path class="st55" d="M525.1 224.2c1.2 2 3.8 2.6 5.8 1.4l11.4-7c2-1.2 2.6-3.8 1.4-5.8-1.2-2-3.8-2.6-5.8-1.4l-11.4 7c-2 1.2-2.7 3.8-1.4 5.8z"/>
    <linearGradient id="SVGID_40_" gradientUnits="userSpaceOnUse" x1="-11331.591" y1="216.216" x2="-11331.591" y2="200.8" gradientTransform="matrix(-1 0 0 1 -10797.233 0)">
      <stop offset=".159" stop-color="#B3987A"/>
      <stop offset=".754" stop-color="#DECAAB"/>
      <stop offset="1" stop-color="#B3987A"/>
    </linearGradient>
    <path class="st56" d="M525.1 214.2c1.2 2 3.8 2.6 5.8 1.4l11.4-7c2-1.2 2.6-3.8 1.4-5.8-1.2-2-3.8-2.6-5.8-1.4l-11.4 7c-2 1.2-2.7 3.8-1.4 5.8z"/>
    <linearGradient id="SVGID_41_" gradientUnits="userSpaceOnUse" x1="-11331.591" y1="206.219" x2="-11331.591" y2="190.802" gradientTransform="matrix(-1 0 0 1 -10797.233 0)">
      <stop offset=".159" stop-color="#B3987A"/>
      <stop offset=".754" stop-color="#DECAAB"/>
      <stop offset="1" stop-color="#B3987A"/>
    </linearGradient>
    <path class="st57" d="M525.1 204.2c1.2 2 3.8 2.6 5.8 1.4l11.4-7c2-1.2 2.6-3.8 1.4-5.8-1.2-2-3.8-2.6-5.8-1.4l-11.4 7c-2 1.2-2.7 3.8-1.4 5.8z"/>
    <linearGradient id="SVGID_42_" gradientUnits="userSpaceOnUse" x1="-11331.591" y1="196.221" x2="-11331.591" y2="180.804" gradientTransform="matrix(-1 0 0 1 -10797.233 0)">
      <stop offset=".159" stop-color="#B3987A"/>
      <stop offset=".754" stop-color="#DECAAB"/>
      <stop offset="1" stop-color="#B3987A"/>
    </linearGradient>
    <path class="st58" d="M525.1 194.2c1.2 2 3.8 2.6 5.8 1.4l11.4-7c2-1.2 2.6-3.8 1.4-5.8-1.2-2-3.8-2.6-5.8-1.4l-11.4 7c-2 1.2-2.7 3.8-1.4 5.8z"/>
    <linearGradient id="SVGID_43_" gradientUnits="userSpaceOnUse" x1="-11331.591" y1="186.223" x2="-11331.591" y2="170.806" gradientTransform="matrix(-1 0 0 1 -10797.233 0)">
      <stop offset=".159" stop-color="#B3987A"/>
      <stop offset=".754" stop-color="#DECAAB"/>
      <stop offset="1" stop-color="#B3987A"/>
    </linearGradient>
    <path class="st59" d="M525.1 184.2c1.2 2 3.8 2.6 5.8 1.4l11.4-7c2-1.2 2.6-3.8 1.4-5.8-1.2-2-3.8-2.6-5.8-1.4l-11.4 7c-2 1.2-2.7 3.8-1.4 5.8z"/>
    <linearGradient id="SVGID_44_" gradientUnits="userSpaceOnUse" x1="-11331.591" y1="176.226" x2="-11331.591" y2="160.808" gradientTransform="matrix(-1 0 0 1 -10797.233 0)">
      <stop offset=".159" stop-color="#B3987A"/>
      <stop offset=".754" stop-color="#DECAAB"/>
      <stop offset="1" stop-color="#B3987A"/>
    </linearGradient>
    <path class="st60" d="M525.1 174.2c1.2 2 3.8 2.6 5.8 1.4l11.4-7c2-1.2 2.6-3.8 1.4-5.8-1.2-2-3.8-2.6-5.8-1.4l-11.4 7c-2 1.3-2.7 3.8-1.4 5.8z"/>
    <linearGradient id="SVGID_45_" gradientUnits="userSpaceOnUse" x1="-11331.591" y1="166.227" x2="-11331.591" y2="150.81" gradientTransform="matrix(-1 0 0 1 -10797.233 0)">
      <stop offset=".159" stop-color="#B3987A"/>
      <stop offset=".754" stop-color="#DECAAB"/>
      <stop offset="1" stop-color="#B3987A"/>
    </linearGradient>
    <path class="st61" d="M525.1 164.2c1.2 2 3.8 2.6 5.8 1.4l11.4-7c2-1.2 2.6-3.8 1.4-5.8-1.2-2-3.8-2.6-5.8-1.4l-11.4 7c-2 1.3-2.7 3.8-1.4 5.8z"/>
    <linearGradient id="SVGID_46_" gradientUnits="userSpaceOnUse" x1="-11331.591" y1="156.229" x2="-11331.591" y2="140.813" gradientTransform="matrix(-1 0 0 1 -10797.233 0)">
      <stop offset=".159" stop-color="#B3987A"/>
      <stop offset=".754" stop-color="#DECAAB"/>
      <stop offset="1" stop-color="#B3987A"/>
    </linearGradient>
    <path class="st62" d="M525.1 154.2c1.2 2 3.8 2.6 5.8 1.4l11.4-7c2-1.2 2.6-3.8 1.4-5.8-1.2-2-3.8-2.6-5.8-1.4l-11.4 7c-2 1.3-2.7 3.8-1.4 5.8z"/>
    <linearGradient id="SVGID_47_" gradientUnits="userSpaceOnUse" x1="-11331.591" y1="146.231" x2="-11331.591" y2="130.815" gradientTransform="matrix(-1 0 0 1 -10797.233 0)">
      <stop offset=".159" stop-color="#B3987A"/>
      <stop offset=".754" stop-color="#DECAAB"/>
      <stop offset="1" stop-color="#B3987A"/>
    </linearGradient>
    <path class="st63" d="M525.1 144.2c1.2 2 3.8 2.6 5.8 1.4l11.4-7c2-1.2 2.6-3.8 1.4-5.8-1.2-2-3.8-2.6-5.8-1.4l-11.4 7c-2 1.3-2.7 3.8-1.4 5.8z"/>
    <linearGradient id="SVGID_48_" gradientUnits="userSpaceOnUse" x1="-11331.591" y1="136.233" x2="-11331.591" y2="120.817" gradientTransform="matrix(-1 0 0 1 -10797.233 0)">
      <stop offset=".159" stop-color="#B3987A"/>
      <stop offset=".754" stop-color="#DECAAB"/>
      <stop offset="1" stop-color="#B3987A"/>
    </linearGradient>
    <path class="st64" d="M525.1 134.2c1.2 2 3.8 2.6 5.8 1.4l11.4-7c2-1.2 2.6-3.8 1.4-5.8-1.2-2-3.8-2.6-5.8-1.4l-11.4 7c-2 1.3-2.7 3.8-1.4 5.8z"/>
    <linearGradient id="SVGID_49_" gradientUnits="userSpaceOnUse" x1="-11331.591" y1="126.236" x2="-11331.591" y2="110.819" gradientTransform="matrix(-1 0 0 1 -10797.233 0)">
      <stop offset=".159" stop-color="#B3987A"/>
      <stop offset=".754" stop-color="#DECAAB"/>
      <stop offset="1" stop-color="#B3987A"/>
    </linearGradient>
    <path class="st65" d="M525.1 124.2c1.2 2 3.8 2.6 5.8 1.4l11.4-7c2-1.2 2.6-3.8 1.4-5.8-1.2-2-3.8-2.6-5.8-1.4l-11.4 7c-2 1.3-2.7 3.8-1.4 5.8z"/>
    <linearGradient id="SVGID_50_" gradientUnits="userSpaceOnUse" x1="-11331.591" y1="116.238" x2="-11331.591" y2="100.821" gradientTransform="matrix(-1 0 0 1 -10797.233 0)">
      <stop offset=".159" stop-color="#B3987A"/>
      <stop offset=".754" stop-color="#DECAAB"/>
      <stop offset="1" stop-color="#B3987A"/>
    </linearGradient>
    <path class="st66" d="M525.1 114.2c1.2 2 3.8 2.6 5.8 1.4l11.4-7c2-1.2 2.6-3.8 1.4-5.8-1.2-2-3.8-2.6-5.8-1.4l-11.4 7c-2 1.3-2.7 3.9-1.4 5.8z"/>
    <linearGradient id="SVGID_51_" gradientUnits="userSpaceOnUse" x1="-11331.591" y1="106.24" x2="-11331.591" y2="90.823" gradientTransform="matrix(-1 0 0 1 -10797.233 0)">
      <stop offset=".159" stop-color="#B3987A"/>
      <stop offset=".754" stop-color="#DECAAB"/>
      <stop offset="1" stop-color="#B3987A"/>
    </linearGradient>
    <path class="st67" d="M525.1 104.2c1.2 2 3.8 2.6 5.8 1.4l11.4-7c2-1.2 2.6-3.8 1.4-5.8-1.2-2-3.8-2.6-5.8-1.4l-11.4 7c-2 1.3-2.7 3.9-1.4 5.8z"/>
    <linearGradient id="SVGID_52_" gradientUnits="userSpaceOnUse" x1="-11331.591" y1="96.242" x2="-11331.591" y2="80.826" gradientTransform="matrix(-1 0 0 1 -10797.233 0)">
      <stop offset=".159" stop-color="#B3987A"/>
      <stop offset=".754" stop-color="#DECAAB"/>
      <stop offset="1" stop-color="#B3987A"/>
    </linearGradient>
    <path class="st68" d="M525.1 94.2c1.2 2 3.8 2.6 5.8 1.4l11.4-7c2-1.2 2.6-3.8 1.4-5.8-1.2-2-3.8-2.6-5.8-1.4l-11.4 7c-2 1.3-2.7 3.9-1.4 5.8z"/>
    <linearGradient id="SVGID_53_" gradientUnits="userSpaceOnUse" x1="-11331.591" y1="86.244" x2="-11331.591" y2="70.827" gradientTransform="matrix(-1 0 0 1 -10797.233 0)">
      <stop offset=".159" stop-color="#B3987A"/>
      <stop offset=".754" stop-color="#DECAAB"/>
      <stop offset="1" stop-color="#B3987A"/>
    </linearGradient>
    <path class="st69" d="M525.1 84.2c1.2 2 3.8 2.6 5.8 1.4l11.4-7c2-1.2 2.6-3.8 1.4-5.8-1.2-2-3.8-2.6-5.8-1.4l-11.4 7c-2 1.3-2.7 3.9-1.4 5.8z"/>
    <linearGradient id="SVGID_54_" gradientUnits="userSpaceOnUse" x1="-11331.591" y1="76.246" x2="-11331.591" y2="60.83" gradientTransform="matrix(-1 0 0 1 -10797.233 0)">
      <stop offset=".159" stop-color="#B3987A"/>
      <stop offset=".754" stop-color="#DECAAB"/>
      <stop offset="1" stop-color="#B3987A"/>
    </linearGradient>
    <path class="st70" d="M525.1 74.2c1.2 2 3.8 2.6 5.8 1.4l11.4-7c2-1.2 2.6-3.8 1.4-5.8-1.2-2-3.8-2.6-5.8-1.4l-11.4 7c-2 1.3-2.7 3.9-1.4 5.8z"/>
    <linearGradient id="SVGID_55_" gradientUnits="userSpaceOnUse" x1="-11331.591" y1="66.248" x2="-11331.591" y2="50.832" gradientTransform="matrix(-1 0 0 1 -10797.233 0)">
      <stop offset=".159" stop-color="#B3987A"/>
      <stop offset=".754" stop-color="#DECAAB"/>
      <stop offset="1" stop-color="#B3987A"/>
    </linearGradient>
    <path class="st71" d="M525.1 64.2c1.2 2 3.8 2.6 5.8 1.4l11.4-7c2-1.2 2.6-3.8 1.4-5.8-1.2-2-3.8-2.6-5.8-1.4l-11.4 7c-2 1.3-2.7 3.9-1.4 5.8z"/>
    <linearGradient id="SVGID_56_" gradientUnits="userSpaceOnUse" x1="-11331.591" y1="56.25" x2="-11331.591" y2="40.834" gradientTransform="matrix(-1 0 0 1 -10797.233 0)">
      <stop offset=".159" stop-color="#B3987A"/>
      <stop offset=".754" stop-color="#DECAAB"/>
      <stop offset="1" stop-color="#B3987A"/>
    </linearGradient>
    <path class="st72" d="M525.1 54.2c1.2 2 3.8 2.6 5.8 1.4l11.4-7c2-1.2 2.6-3.8 1.4-5.8-1.2-2-3.8-2.6-5.8-1.4l-11.4 7c-2 1.3-2.7 3.9-1.4 5.8z"/>
    <linearGradient id="SVGID_57_" gradientUnits="userSpaceOnUse" x1="-11331.591" y1="46.253" x2="-11331.591" y2="30.836" gradientTransform="matrix(-1 0 0 1 -10797.233 0)">
      <stop offset=".159" stop-color="#B3987A"/>
      <stop offset=".754" stop-color="#DECAAB"/>
      <stop offset="1" stop-color="#B3987A"/>
    </linearGradient>
    <path class="st73" d="M525.1 44.2c1.2 2 3.8 2.6 5.8 1.4l11.4-7c2-1.2 2.6-3.8 1.4-5.8-1.2-2-3.8-2.6-5.8-1.4l-11.4 7c-2 1.3-2.7 3.9-1.4 5.8z"/>
    <linearGradient id="SVGID_58_" gradientUnits="userSpaceOnUse" x1="-11331.591" y1="36.255" x2="-11331.591" y2="20.838" gradientTransform="matrix(-1 0 0 1 -10797.233 0)">
      <stop offset=".159" stop-color="#B3987A"/>
      <stop offset=".754" stop-color="#DECAAB"/>
      <stop offset="1" stop-color="#B3987A"/>
    </linearGradient>
    <path class="st74" d="M525.1 34.2c1.2 2 3.8 2.6 5.8 1.4l11.4-7c2-1.2 2.6-3.8 1.4-5.8-1.2-2-3.8-2.6-5.8-1.4l-11.4 7c-2 1.3-2.7 3.9-1.4 5.8z"/>
    <linearGradient id="SVGID_59_" gradientUnits="userSpaceOnUse" x1="-11331.591" y1="26.257" x2="-11331.591" y2="10.84" gradientTransform="matrix(-1 0 0 1 -10797.233 0)">
      <stop offset=".159" stop-color="#B3987A"/>
      <stop offset=".754" stop-color="#DECAAB"/>
      <stop offset="1" stop-color="#B3987A"/>
    </linearGradient>
    <path class="st75" d="M525.1 24.2c1.2 2 3.8 2.6 5.8 1.4l11.4-7c2-1.2 2.6-3.8 1.4-5.8-1.2-2-3.8-2.6-5.8-1.4l-11.4 7c-2 1.3-2.7 3.9-1.4 5.8z"/>
    <linearGradient id="SVGID_60_" gradientUnits="userSpaceOnUse" x1="-11331.591" y1="16.259" x2="-11331.591" y2=".842" gradientTransform="matrix(-1 0 0 1 -10797.233 0)">
      <stop offset=".159" stop-color="#B3987A"/>
      <stop offset=".754" stop-color="#DECAAB"/>
      <stop offset="1" stop-color="#B3987A"/>
    </linearGradient>
    <path class="st76" d="M525.1 14.3c1.2 2 3.8 2.6 5.8 1.4l11.4-7c2-1.2 2.6-3.8 1.4-5.8-1.2-2-3.8-2.6-5.8-1.4l-11.4 7c-2 1.2-2.7 3.8-1.4 5.8z"/>
    <g class="st46">
      <path class="st47" d="M525.1 294.2c1.2 2 3.8 2.6 5.8 1.4l11.4-7c2-1.2 2.6-3.8 1.4-5.8-1.2-2-3.8-2.6-5.8-1.4l-11.4 7c-2 1.2-2.7 3.8-1.4 5.8zM525.1 284.2c1.2 2 3.8 2.6 5.8 1.4l11.4-7c2-1.2 2.6-3.8 1.4-5.8-1.2-2-3.8-2.6-5.8-1.4l-11.4 7c-2 1.2-2.7 3.8-1.4 5.8zM525.1 274.2c1.2 2 3.8 2.6 5.8 1.4l11.4-7c2-1.2 2.6-3.8 1.4-5.8-1.2-2-3.8-2.6-5.8-1.4l-11.4 7c-2 1.2-2.7 3.8-1.4 5.8zM525.1 264.2c1.2 2 3.8 2.6 5.8 1.4l11.4-7c2-1.2 2.6-3.8 1.4-5.8-1.2-2-3.8-2.6-5.8-1.4l-11.4 7c-2 1.2-2.7 3.8-1.4 5.8zM525.1 254.2c1.2 2 3.8 2.6 5.8 1.4l11.4-7c2-1.2 2.6-3.8 1.4-5.8-1.2-2-3.8-2.6-5.8-1.4l-11.4 7c-2 1.2-2.7 3.8-1.4 5.8zM525.1 244.2c1.2 2 3.8 2.6 5.8 1.4l11.4-7c2-1.2 2.6-3.8 1.4-5.8-1.2-2-3.8-2.6-5.8-1.4l-11.4 7c-2 1.2-2.7 3.8-1.4 5.8zM525.1 234.2c1.2 2 3.8 2.6 5.8 1.4l11.4-7c2-1.2 2.6-3.8 1.4-5.8-1.2-2-3.8-2.6-5.8-1.4l-11.4 7c-2 1.2-2.7 3.8-1.4 5.8zM525.1 224.2c1.2 2 3.8 2.6 5.8 1.4l11.4-7c2-1.2 2.6-3.8 1.4-5.8-1.2-2-3.8-2.6-5.8-1.4l-11.4 7c-2 1.2-2.7 3.8-1.4 5.8zM525.1 214.2c1.2 2 3.8 2.6 5.8 1.4l11.4-7c2-1.2 2.6-3.8 1.4-5.8-1.2-2-3.8-2.6-5.8-1.4l-11.4 7c-2 1.2-2.7 3.8-1.4 5.8zM525.1 204.2c1.2 2 3.8 2.6 5.8 1.4l11.4-7c2-1.2 2.6-3.8 1.4-5.8-1.2-2-3.8-2.6-5.8-1.4l-11.4 7c-2 1.2-2.7 3.8-1.4 5.8zM525.1 194.2c1.2 2 3.8 2.6 5.8 1.4l11.4-7c2-1.2 2.6-3.8 1.4-5.8-1.2-2-3.8-2.6-5.8-1.4l-11.4 7c-2 1.2-2.7 3.8-1.4 5.8zM525.1 184.2c1.2 2 3.8 2.6 5.8 1.4l11.4-7c2-1.2 2.6-3.8 1.4-5.8-1.2-2-3.8-2.6-5.8-1.4l-11.4 7c-2 1.2-2.7 3.8-1.4 5.8zM525.1 174.2c1.2 2 3.8 2.6 5.8 1.4l11.4-7c2-1.2 2.6-3.8 1.4-5.8-1.2-2-3.8-2.6-5.8-1.4l-11.4 7c-2 1.3-2.7 3.8-1.4 5.8zM525.1 164.2c1.2 2 3.8 2.6 5.8 1.4l11.4-7c2-1.2 2.6-3.8 1.4-5.8-1.2-2-3.8-2.6-5.8-1.4l-11.4 7c-2 1.3-2.7 3.8-1.4 5.8zM525.1 154.2c1.2 2 3.8 2.6 5.8 1.4l11.4-7c2-1.2 2.6-3.8 1.4-5.8-1.2-2-3.8-2.6-5.8-1.4l-11.4 7c-2 1.3-2.7 3.8-1.4 5.8zM525.1 144.2c1.2 2 3.8 2.6 5.8 1.4l11.4-7c2-1.2 2.6-3.8 1.4-5.8-1.2-2-3.8-2.6-5.8-1.4l-11.4 7c-2 1.3-2.7 3.8-1.4 5.8zM525.1 134.2c1.2 2 3.8 2.6 5.8 1.4l11.4-7c2-1.2 2.6-3.8 1.4-5.8-1.2-2-3.8-2.6-5.8-1.4l-11.4 7c-2 1.3-2.7 3.8-1.4 5.8zM525.1 124.2c1.2 2 3.8 2.6 5.8 1.4l11.4-7c2-1.2 2.6-3.8 1.4-5.8-1.2-2-3.8-2.6-5.8-1.4l-11.4 7c-2 1.3-2.7 3.8-1.4 5.8zM525.1 114.2c1.2 2 3.8 2.6 5.8 1.4l11.4-7c2-1.2 2.6-3.8 1.4-5.8-1.2-2-3.8-2.6-5.8-1.4l-11.4 7c-2 1.3-2.7 3.9-1.4 5.8zM525.1 104.2c1.2 2 3.8 2.6 5.8 1.4l11.4-7c2-1.2 2.6-3.8 1.4-5.8-1.2-2-3.8-2.6-5.8-1.4l-11.4 7c-2 1.3-2.7 3.9-1.4 5.8zM525.1 94.2c1.2 2 3.8 2.6 5.8 1.4l11.4-7c2-1.2 2.6-3.8 1.4-5.8-1.2-2-3.8-2.6-5.8-1.4l-11.4 7c-2 1.3-2.7 3.9-1.4 5.8zM525.1 84.2c1.2 2 3.8 2.6 5.8 1.4l11.4-7c2-1.2 2.6-3.8 1.4-5.8-1.2-2-3.8-2.6-5.8-1.4l-11.4 7c-2 1.3-2.7 3.9-1.4 5.8zM525.1 74.2c1.2 2 3.8 2.6 5.8 1.4l11.4-7c2-1.2 2.6-3.8 1.4-5.8-1.2-2-3.8-2.6-5.8-1.4l-11.4 7c-2 1.3-2.7 3.9-1.4 5.8zM525.1 64.2c1.2 2 3.8 2.6 5.8 1.4l11.4-7c2-1.2 2.6-3.8 1.4-5.8-1.2-2-3.8-2.6-5.8-1.4l-11.4 7c-2 1.3-2.7 3.9-1.4 5.8zM525.1 54.2c1.2 2 3.8 2.6 5.8 1.4l11.4-7c2-1.2 2.6-3.8 1.4-5.8-1.2-2-3.8-2.6-5.8-1.4l-11.4 7c-2 1.3-2.7 3.9-1.4 5.8zM525.1 44.2c1.2 2 3.8 2.6 5.8 1.4l11.4-7c2-1.2 2.6-3.8 1.4-5.8-1.2-2-3.8-2.6-5.8-1.4l-11.4 7c-2 1.3-2.7 3.9-1.4 5.8zM525.1 34.2c1.2 2 3.8 2.6 5.8 1.4l11.4-7c2-1.2 2.6-3.8 1.4-5.8-1.2-2-3.8-2.6-5.8-1.4l-11.4 7c-2 1.3-2.7 3.9-1.4 5.8zM525.1 24.2c1.2 2 3.8 2.6 5.8 1.4l11.4-7c2-1.2 2.6-3.8 1.4-5.8-1.2-2-3.8-2.6-5.8-1.4l-11.4 7c-2 1.3-2.7 3.9-1.4 5.8z"/>
      <path class="st47" d="M525.1 14.3c1.2 2 3.8 2.6 5.8 1.4l11.4-7c2-1.2 2.6-3.8 1.4-5.8-1.2-2-3.8-2.6-5.8-1.4l-11.4 7c-2 1.2-2.7 3.8-1.4 5.8z"/>
    </g>
  </g>
</svg>
