<svg id="Layer_1" xmlns="http://www.w3.org/2000/svg" viewBox="0 0 72.9 49">
  <style>
    .st0{fill:#602700;}
  </style>
  <path class="st0" d="M9.1 44.4H4.4v-1.6c0-7.2-.1-12.7-.2-16.3v-.3l-.1-2-.7-22.4c0-.5-.2-.9-.6-1.3C2.5.2 2.1 0 1.6 0S.8.1.5.4c-.3.2-.5.5-.5.9C0 6 .2 13.1.6 22.6c.4 9.5.7 16.6.7 21.3l-.4 2.7c0 .5.2 1 .7 1.4.4.4 1 .6 1.6.6s1.2-.3 1.6-.8l2 .1c.4 0 .8 0 1.2-.1.4.1.8.2 1.1.2.3 0 .6-.2.9-.5.3-.4.5-.8.5-1.4s-.5-1-1.4-1.7zM21.7 45.5l-4.6.2c-.1 0-.1-1.2-.1-3.5l.3-11.3c0-1.6-.1-3.1-.2-4.7h1.6c.7.1 1.3.1 1.8.1.6 0 1-.2 1.4-.5.4-.3.5-.7.5-1.2 0-1.1-1-1.7-3-1.7l-2.2.1c-.1-.6-.2-.9-.2-1l.3-9c0-.9 0-1.8-.1-2.7 1.2.1 2.8.5 4.7 1.2 1.2-.4 1.8-1.1 1.8-2 0-.8-1-1.5-2.9-2s-3.5-.8-4.6-.8c-1.8 0-2.6 1.5-2.6 4.4l.3 5.3-.4 18.3.4 10.6v1.6c0 .5.3 1 .7 1.4.4.4.9.6 1.5.6h5.3c.7 0 1.3-.1 1.9-.4s.8-.7.8-1.4c0-1.1-.8-1.6-2.4-1.6zM42.9 5.3h-1.4c-.2 1.4-1 6.5-2.4 15.1-1.3 8.7-2.5 15.3-3.4 19.9-.1-.4-.2-1.5-.4-3.3-.2-1.9-.5-3.7-.7-5.6-.3-1.9-.7-4.5-1.2-8-.6-3.4-1.4-7.1-2.4-11.2-1.1-4-2.2-6-3.3-6-.4 0-.7.1-1.1.4-.3.3-.5.7-.5 1.3 0 .5.4 2 1.1 4.2.3 1 1 3.2 1.9 6.8.9 3.6 1.9 8 2.8 13.3 1 5.3 1.4 10.4 1.4 15.5l1.2.9c1 0 1.9-.7 2.6-2.1.7-1.4 1.3-3.3 1.7-5.6.4-2.3.7-4.6 1-6.8.2-2.2.5-4.5.6-6.8.2-2.3.4-4 .5-5 .2-1 .8-3.3 1.8-6.9 1-3.6 1.5-6.5 1.5-8.8 0-.4-.1-.7-.4-1-.2-.1-.6-.3-.9-.3zM56 45.5l-4.6.2c-.1 0-.1-1.2-.1-3.5l.3-11.3c0-1.6-.1-3.1-.2-4.7H53c.7.1 1.3.1 1.8.1s1-.2 1.4-.5.5-.7.5-1.2c0-1.1-1-1.7-3-1.7l-2.2.1c-.1-.6-.2-.9-.2-1l.3-9c0-.9 0-1.8-.1-2.7 1.2.1 2.8.5 4.7 1.2 1.2-.4 1.8-1.1 1.8-2 0-.8-1-1.5-2.9-2s-3.5-.8-4.6-.8c-1.8 0-2.6 1.5-2.6 4.4l.3 5.3-.4 18.3.4 10.6v1.6c0 .5.3 1 .7 1.4.4.4.9.6 1.5.6h5.3c.7 0 1.3-.1 1.9-.4.5-.3.8-.7.8-1.4-.1-1.1-.9-1.6-2.4-1.6zM69.5 45.5l-2.6.1c-1.4 0-2.1-1.4-2.1-4.3l.2-10V30c0-.9.1-1.6.4-2.1l-.2-15 .4-4.8c0-.4-.2-.8-.5-1.1-.3-.3-.7-.5-1.1-.5-1.4 0-2.2 2-2.2 5.9 0 1.3.1 3.3.4 5.9v.5c0 3.1-.1 7.7-.4 14-.3 6.2-.4 10.9-.4 14 0 .5.2 1 .5 1.4.3.4.8.6 1.5.6.6 0 1.3-.2 1.9-.6 2.2 0 4.1.2 5.6.7.5-.1.9-.2 1.3-.5s.6-.7.6-1.1c.1-1.2-1-1.8-3.3-1.8z"/>
</svg>
