<svg id="Layer_1" xmlns="http://www.w3.org/2000/svg" viewBox="0 0 488 518">
  <style>
    .st0{fill:#DBA25D;} .st1{fill:#F1D4A5;} .st2{opacity:0.25;} .st3{fill:#E5C08F;} .st4{fill:#E4B16B;} .st5{fill:#DDB577;} .st6{fill:#D6A566;} .st7{fill:#DAB272;} .st8{fill:#DDAA60;} .st9{fill:#77360A;} .st10{fill:none;stroke:#602700;stroke-width:8;stroke-miterlimit:10;} .st11{fill:#602700;} .st12{fill:#381C09;stroke:#381C0A;stroke-width:9;stroke-miterlimit:10;} .st13{fill:#381C09;stroke:#381C0A;stroke-width:7;stroke-miterlimit:10;} .st14{fill:none;stroke:#E09D70;stroke-width:4;stroke-miterlimit:10;}
  </style>
  <path class="st0" d="M242.7 432.9s28 7.1 87.8 19.5c1.9.4 3.9.9 5.8 1.3 3.4-1.4 6.7-2.9 10-4.5-34.5-6.3-69-11.9-103.6-16.3z"/>
  <path class="st1" d="M135.7 445.5c11 1.9 22 4.2 32.8 6.9 1.3.1 2.5.1 3.8.2 22.4 0 44.7.4 67.1 1-41.9-10.8-84.3-18.5-126.7-22 7.3 5.1 15 9.7 23 13.9z"/>
  <ellipse class="st2" cx="244" cy="267.8" rx="239" ry="230.2"/>
  <circle class="st3" cx="244.5" cy="249.8" r="228.9"/>
  <path class="st1" d="M242.1 285c-11 0-18.6 1.3-18.5 3.5.1 3 14.6 6.6 32.4 8 5.1.4 9.9.6 14.1.6 10.7 0 18-1.3 17.8-3.4-.1-3-14.8-6.8-32.6-8.1-4.5-.4-9-.6-13.2-.6m74.4 23.9c-9.9 0-21-.5-32.6-1.6-41.9-3.7-76.1-12.7-76.4-20.8-.3-6.1 19-9.9 46.7-9.9 8.7 0 18.2.4 28.3 1.2 42.3 3.3 77.2 13.2 77.6 21.5.1 6.2-17.8 9.6-43.6 9.6m-56-37.9c-33.4 0-66.9 4.3-99.8 10.2-21.9 4.1-27.3 9.3-21.1 11.8 2.6 1 7.8 1.3 13.8 1.3 3.6 0 7.4-.1 11.3-.2 3.7-.1 7.3-.2 10.4-.2h2.6c10.5.3 5.2 9 2.7 12.6-2.4 3.6 6.7 5.1 14.6 7.2 7.9 2.2 22.1 4.1 34.8 7.6 6.1 1.8 21.3 3.1 44.3 3.1 4.6 0 9.5-.1 14.7-.2 31.5-.7 126.2-6 113.7-19.9-12.3-13.9-55.6-23-99.6-30.8-14.1-1.8-28.2-2.6-42.4-2.5"/>
  <path class="st4" d="M270.3 297.1c-4.3 0-9.1-.2-14.1-.6-17.7-1.5-32.2-5-32.4-8-.1-2.2 7.4-3.5 18.5-3.5 4 0 8.6.2 13.3.6 17.8 1.4 32.4 5.1 32.6 8.1 0 2.1-7.3 3.4-17.9 3.4m-16.2-20.4c-27.7 0-47 3.8-46.7 9.9.4 8 34.5 17.1 76.4 20.8 11.7 1 22.7 1.6 32.6 1.6 26 0 43.8-3.4 43.5-9.5-.4-8.4-35.3-18.2-77.6-21.5-10-1-19.5-1.3-28.2-1.3"/>
  <path class="st5" d="M412.6 274.6c-1 0 2.5 1 9.1 2.5-4.5-1.5-7.7-2.4-9.1-2.5"/>
  <path class="st6" d="M322.1 140.2l13.8 4.5c14.1 3.2 28.4 5 42.7 5.8-18.7-3.8-37.6-7.3-56.5-10.3"/>
  <path class="st7" d="M179.8 345.2c34.9 3.1 69.6 7 104.4 11 9.5.5 19 .9 28.4 1.5-36.7-3.9-74.4-8.4-112.6-12.2-6.6-.1-13.4-.2-20.2-.3"/>
  <path class="st1" d="M321.1 34.1c-2.5.1-5 .3-7.4.4C276 43.3 237.7 48 201 48.8c-46.5-.5-40.1-3.5-40.1-3.5s17.9-5.4 30.4-8.9c-9.6 0-19.2-.1-28.8-.2-14.3 5.4-27.8 12.2-40.6 20.4 12.8.4 25.7.7 38.4.7 21.4 0 42.6-.6 63.9-1.5 36.4-2.4 73-8.3 109.2-16.9-4.1-1.8-8.1-3.4-12.3-4.8z"/>
  <path class="st4" d="M422.2 105.5c-3-.4-6.3-.6-9.6-.7-2.3-.1-4.4-.2-6.5-.2-9.8 0-17.1 1.4-23.6 2.8-6.4 1.4-11.8 2.8-17.4 2.8-8.8 0-18.4-3.4-33.7-15.6-13.5-15.6 20.9-19.5 45-19.5 6.4 0 12 .3 15.9.7.4 0 .7 0 1.1.1-8.7-7.4-17.9-14.2-27.6-20.3-28.6.9-57.2 2.8-85.3 7.4-60 12.7-121.2 20.3-182.2 20.3-3.6 0-7.2 0-10.8-.1-3.9 3.7-7.6 7.5-11.4 11.5h9.2c5.7 0 11.4 0 16.8-.1 5.2-.4 10.7-.6 16.4-.6 24.3 0 52.9 3.2 79.7 8.4 41.5 9.6 82.6 24.2 123.7 37.7 18.9 3 37.8 6.5 56.5 10.3 5.7.3 11.4.4 17 .4 18 0 36-1.4 53.9-3.1-7.3-15.1-16.5-29.2-27.1-42.2z"/>
  <path class="st1" d="M459 174.6c-.6-1.7-1.3-3.3-2-5.1-12.8-1-25.5-2.5-38-5.1-13.4-3.3-26.8-6.4-40.5-9.1-14.3-.8-28.6-2.5-42.7-5.8-4.6-1.5-9.2-2.9-13.8-4.5-50.6-8.2-101.7-14.2-152.1-21.4-25.9-3.2-75.3-8.9-105.2-10.8-1.5 2-3 3.8-4.4 5.8 45 5.7 149.2 8.9 123.4 20-34.8 11.3-83.6 15.6-127.1 15.6-6.1 0-12-.1-17.8-.3-2.3 4.5-4.3 9.2-6.3 13.9 8.2.3 16.6.5 24.9.5 43.2 0 87.3-4.4 127.7-17.7 11.6-5.9 19.8-9.5 35.9-9.5 12.7 0 30.4 2.3 58.5 7.5 59.2 11.1 119.4 21 179.5 26z"/>
  <path class="st4" d="M449.1 246.4c8-.3 16.2-.6 24.2-.9-.2-12.3-1.4-24.4-3.5-36.1-9.9.8-19.7 1.6-29.6 2.4-27.1 2.5-49.8 3.9-69.3 3.9-23.8 0-42.9-2.1-59.7-6.6-6.8-13.1-37.3-16.4-76.8-16.4-19 0-40.2.8-61.7 1.5-21.5.8-43.5 1.5-64.2 1.5-19.9 0-38.6-.7-54.8-2.7L23 190.9c-1.1 4-2.1 8-2.8 12 12.8-.6 25.2-1 36.6-1 11.4 0 21.7.4 31 1.3 7.6.9 15.7 1.3 24.1 1.3 8.8 0 17.9-.4 27-.7 9.1-.4 18.2-.7 27-.7 24.9 0 47.6 2.7 62.1 15.8-36.8 4.7-66.9 6.4-98.5 6.4-30.2 0-61.7-1.6-101.9-3.4l-10.8.9c-.6 4.8-1 9.6-1.3 14.5 43.8-1.9 87.6-2.3 131.3-3h6.2c56 0 77.5-11.9 136.1-12.8 41 .5 111.6 14.2 160 24.9z"/>
  <path class="st3" d="M473.4 248.4c-5.2 0-10.5-.1-15.7-.1 4.6 1.1 8.9 2.1 12.9 2.9l2.6.9v-2.3c.2-.5.2-.9.2-1.4z"/>
  <path class="st1" d="M421.7 277.2c9.9 3.5 26.6 10.5 47 19 .5-2.3.9-4.5 1.3-6.8-19.3-5.1-37.6-9.5-48.3-12.2zm-241.9 68c6.8.1 13.4.2 20.2.2-55.5-5.6-112.1-10-167.9-10 1.7 4.2 3.5 8.4 5.5 12.4 11.8 0 23.5.3 35.2.9 70.5 3.3 141 4.2 211.6 7.5-34.8-4-69.7-7.8-104.6-11z"/>
  <path class="st8" d="M32.5 336.4c57.2-4.9 114.8-6.8 171.7-6.8h2.2c-59.3-1.4-118.4-1.4-177.7-3.1 1.2 3.3 2.5 6.6 3.8 9.9z"/>
  <path class="st3" d="M56.5 380.5c1.4 1.9 2.6 3.8 4 5.7.4-.1.9-.1 1.3-.2 56.1-6.5 83-11.5 83-11.5-29.4 1.5-58.9 3.6-88.3 6z"/>
  <path class="st4" d="M349.7 392.6c-35.3-2.4-70.7-3.7-106.3-3.7-57.6 0-115.2 3.3-172.5 10.3 2.5 3 5.3 6 7.9 8.8 37.7-2.4 76.3-3.8 115.2-3.8 67.6 0 136.1 4.5 202.2 17 6.9-6.1 13.4-12.6 19.5-19.5-21.8-3.6-43.9-6.5-66-9.1z"/>
  <circle class="st9" cx="243" cy="259.3" r="143"/>
  <circle class="st10" cx="244" cy="250.2" r="230.2"/>
  <path class="st11" d="M176.8 118.5l-8.3-14.8c-.9-1.5-2.4-3.5-4.6-6.1-2.2-2.6-3.8-4.8-4.9-6.5-1-1.8-2.6-3.7-4.7-5.9s-4.1-4-6.1-5.6c-5.1-4.1-8.7-8.1-11-11.8-.2-.4-.2-.8.1-1.3.3-.5.6-.9 1.1-1.2.5-.3 1.3 0 2.5.8s2.6 2 4.1 3.6c1.5 1.5 3 3.1 4.4 4.6 1.4 1.6 2.8 3.1 4.2 4.6 1.3 1.5 2.2 2.4 2.6 2.8-.2-.5-.7-1.6-1.5-3.4-.9-1.7-1.7-3.5-2.6-5.4-.9-1.9-1.7-3.8-2.4-5.7-1.7-4.5-2-7.1-.6-7.9 1.3-.8 2.2-.9 2.5-.4 1.7 2.8 3.6 7.4 5.7 13.7 2.1 6.3 4.1 10.9 5.8 13.8l1.3 2.7.7 1.1 12.3 19.8 2.5 3.6 1 1.7c.4.7.5 1.3.2 2.1-.3.7-.7 1.2-1.3 1.6-.6.4-1.2.5-1.8.3-.4 0-.9-.3-1.2-.8zM176.2 89.1l-1.1-3.2c-.1-.3-.2-.4-.3-.4l-.6-1.5c-3.3-8.6-5.2-14.9-5.6-18.9-.4-3.4-.3-5.6.2-6.6s1.1-1.7 1.9-2c6.3-2.5 12-.9 16.8 4.5 2.8 3.1 5.3 7.4 7.3 12.8l.2.6 3.7 9.2c6.1 15.7 5.5 25-1.8 27.8-3 1.2-6 .4-8.9-2.3-2.8-2.6-4.9-5.4-6.5-8.4-2.2-4.3-4-8.2-5.3-11.6zm.5-13.1l2.5 7.7c3.1 7.9 6.4 14.6 9.9 20 2.7 2.9 4.8 4.4 6.2 4.6 1-.4 1.7-1.1 2.2-2.2.5-1.1.7-2.4.7-4-.1-1.5-.2-3.1-.5-4.7s-.7-3.2-1.1-5c-.9-3-1.7-5.5-2.5-7.6-.8-2.1-2.2-5.1-4.2-9.2s-3.4-7.2-4.2-9.3l-.6-1.4c-.8-2-2.2-3.5-4-4.6-1.9-1.1-3.8-1.2-5.7-.5-1.9.7-2.7 2.3-2.5 4.6.2 2 .8 4.2 1.8 6.8l2 4.8zM224 63l.3 1.5c4.4 25.6 2.9 39.1-4.5 40.4-2.9.5-5.2-.3-7-2.4-1.9-2.2-3.1-4.4-3.9-6.8-1.1-3.6-2.1-7.8-3-12.6-.9-4.8-2.1-11.7-3.7-20.7l-2.5-12.3c.3-1.3.8-2 1.5-2.1.7-.1 1.4.3 2.1 1.3.7 1 1.2 2 1.4 3.2l4.1 23.5c.4 2.1 1.1 5.1 2.2 9.1s1.8 7 2.2 9.1c.7 4.2 2.9 6 6.6 5.4 4.1-.7 3.5-16.6-1.9-47.6l-.8-4.9-.3-1.4c-.1-.7-.1-1.2.2-1.6.3-.4.8-.7 1.5-.8.8-.1 1.4-.1 1.8.1.4.2.7.5 1 .9.3.7.6 1.6.9 2.7l.9 8.8.9 7.2zM262 69.5l-.3 2.8v.4c-.4 5.1-1.3 12.7-2.6 22.8l-.3 2.2 6.6.9c1.1 1 1.7 1.9 1.6 2.7-.1.8-.4 1.4-.9 1.8-.5.4-1 .6-1.4.6-.5-.1-1-.2-1.5-.5-.5.1-1.1 0-1.7 0l-2.8-.5c-.7.6-1.5.9-2.4.8-.9-.1-1.6-.5-2.1-1.1-.5-.6-.8-1.3-.7-2.1l1.1-3.8c.9-6.6 1.9-16.5 3-29.8 1.2-13.3 2.2-23.2 3-29.8.1-.5.3-.9.8-1.2.5-.3 1-.4 1.7-.3.6.1 1.2.4 1.6 1 .5.6.6 1.2.6 1.9L262 69.5zM275.4 77.8l1.1-3.2c.1-.3.1-.4 0-.4l.5-1.5c2.7-8.8 5.1-14.9 7.2-18.3 1.8-2.9 3.2-4.6 4.2-5.1s1.9-.6 2.7-.4c6.5 2 10 6.6 10.5 13.9.3 4.2-.4 9.1-2.1 14.6l-.2.6-2.7 9.6c-4.9 16.1-11.1 23-18.5 20.8-3.1-.9-4.9-3.4-5.5-7.3-.6-3.8-.5-7.3.1-10.6.6-5 1.6-9.2 2.7-12.7zm8.4-10l-2.8 7.6c-2.5 8.1-4 15.4-4.5 21.9.3 4 1 6.4 2.1 7.4 1 .3 2.1.2 3.1-.4 1.1-.6 2.1-1.5 3-2.7.9-1.2 1.7-2.6 2.5-4s1.5-3 2.2-4.6c1.2-2.9 2.1-5.4 2.7-7.5.6-2.1 1.4-5.4 2.4-9.9s1.8-7.8 2.4-9.9l.4-1.5c.6-2.1.5-4.1-.3-6.1s-2.2-3.3-4.2-3.9c-1.9-.6-3.5.1-4.8 2.1-1.1 1.6-2 3.8-2.8 6.5l-1.4 5zM294.1 108.4l3 2.2c1 .5 2.1.5 3.3 0 1.2-.5 2.3-1.3 3.3-2.4 1.9-2.2 3.4-4.2 4.4-6.1 1-1.9 1.6-4 1.9-6.2.3-2.2.4-4.4.3-6.5-.1-2.1-.2-4.2-.3-6.4-.2-5.1.6-9.6 2.6-13.4 1.2-2.4 2.6-4.2 4.3-5.7 3.2-2.6 6-3.3 8.4-2.1.9.5 1.7 1.2 2.2 2.2.5 1 .6 1.9.3 2.5-.6 1.2-1.5 1.5-2.8.8-.6-.3-1-.7-1.4-1.3-1.7-.8-3.8.5-6.2 3.9-.5.7-1 1.6-1.6 2.7-.5 1.1-1 2.5-1.3 4.3-.3 1.8-.4 3.5-.3 5 .1 1.6.2 3.3.3 5.2.1 1.9.1 3.7.2 5.4 0 4-1 8.1-3.1 12.2-1.6 3.2-3.8 5.9-6.7 8-1.4 1.1-3 1.7-4.8 2-1.8.3-3.5 0-5.2-.8l-.1.2c-2-1.4-2.7-3-2-4.8l1.3-.9zM333.1 83.3l3.8-6.4c2.3-3.4 4.5-4.4 6.6-3.1 1.3.9 2.9 2.4 4.7 4.5 1.8 2.1 2.4 3.7 1.8 4.6-.7 1-1.9 1.3-3.7.8-1.7-2.3-3.2-4-4.5-5.1-.6 1.1-1.3 2.2-2 3.2L332.2 92s-.2.5-.6 1.3l2.7 1.7c2.3 1.6 3.1 3.1 2.2 4.4-.4.5-.9.8-1.6.9-.7.1-1.4-.1-2-.5-.6-.4-1.3-1-2-1.6l-1.8-1.3c-1.1 1.9-2.3 3.8-3.5 5.6l-9.3 12.9c-1.9 2.7-2.7 4.1-2.6 4.2l5.5 3.5c1.8 1.3 2.4 2.5 1.6 3.7-.5.7-1.2 1-2 .9-.9-.1-1.7-.4-2.5-1l-6.1-4.2c-.6-.4-1.1-1-1.3-1.8-.2-.8-.1-1.5.3-2.1l1.3-1.9 7.9-12.6 14.7-20.8z"/>
  <g>
    <g class="st2">
      <path class="st12" d="M73.7 290.8l-6.4.6c-3.7 0-5.6-1.5-5.6-4.6 0-2.7 3.5-4.4 10.5-5.2 1.4-.2 2.9-.2 4.5-.2s3.1.9 4.2 2.6c1.2 1.7 1.8 4 1.8 6.8s.5 7.5 1.6 13.9 1.6 10.8 1.6 13c0 4-1.3 6-4 6s-4.5-1.1-5.4-3.4v-.2l-3.6 1.8c-3.3 1.8-6.6 2.7-9.8 2.7-2.3 0-4.7-.5-7-1.4-5-2-8.8-5.3-11.5-10-2.9-4.9-4.8-9.7-5.7-14.2-.9-4.5-1.5-8.1-1.8-10.7-.4-2.7-.7-5.7-.9-9.1-.3-4.3-.4-9.5-.4-15.6l-.1-12.1c0-10.5.3-18.1 1-22.7.7-4.6 1.4-8.3 2.1-11.3.7-2.9 1.6-5.5 2.5-7.8 1-2.3 2.1-4.5 3.5-6.6 1.4-2.2 3-4 4.8-5.3 3.9-3.1 8.3-4.6 13.3-4.6s7.5 1.6 7.5 4.7c0 1.2-.4 2.1-1.3 2.8-.9.7-1.9 1-3 1l-4.7-.8c-4.1.1-7.3 2.5-9.7 7.4-2.5 5.4-4.1 10.5-4.8 15.3-.7 4.8-1.2 8.8-1.5 11.7-.4 2.9-.7 6.3-.8 10-.2 5.2-.3 10.3-.2 15.5l-.1 10.1c0 10.4.5 17.9 1.4 22.3.9 4.4 1.9 7.9 2.9 10.5 1 2.7 2.1 4.8 3.5 6.5 4.5 3.5 8.5 5.4 11.9 5.8 4.8 0 8.9-2.3 12.1-6.9.1-9.3-.8-15.5-2.4-18.3zM131.2 287.2l1.8 10.1c0 1.3.5 4.6 1.6 9.7 1 5.2 1.6 8.5 1.6 10.1v.2c0 2.4-.9 3.9-2.7 4.6-2.3 0-4.1-.4-5.3-1.1s-1.9-2.2-1.9-4.3c0-4.6-.8-11.4-2.4-20.2l-16.1-2.4c-1 3.6-1.8 7.6-2.3 11.9-.5 4.3-1 7.4-1.5 9.4-1 4-2.7 6.1-5.3 6.1-1.3 0-2.5-.4-3.6-1.2-1.1-.8-1.6-1.9-1.6-3.2l.4-1.4c7.3-28.4 12.8-56 16.4-82.8.1-.7.3-2.9.5-6.5.5-8 1.5-13.1 3-15.2h5.5c1.5 0 2.8.3 3.9 1s1.7 1.7 1.7 3.1c0 8.3 1.1 20.6 3.3 37 1.9 16.2 3 27.9 3 35.1zm-8.6 3.3c-.3-1.6-.5-4.4-.5-8.3 0-4-.2-8.9-.7-14.8-.5-5.9-1.1-12.7-2-20.5-.9-7.8-1.4-13.4-1.8-17-4.9 27.4-8.1 46.7-9.6 57.9 2.1 1.3 6.9 2.2 14.6 2.7zM205.2 318.7l.1-20.9c0-4.8-.4-11.9-1.2-21.3-.8-9.4-1.2-15.7-1.2-18.9 0-3.2.1-7.1.3-11.6.2-4.5.3-7.9.3-10.1-.5 1.4-2.3 9-5.5 22.6-8.3 35.2-14.2 52.8-17.8 52.8-2.1 0-3.8-.6-5-1.9-1.2-1.3-1.8-3-1.8-5.1 0-5.2-2-15.8-6.1-31.9-4.1-16.1-7.5-28.4-10.3-37-2.1 38.4-3.1 64.4-3.1 77.9l.2 4.9c0 1.8-.4 3.1-1.1 4-.7.9-1.9 1.4-3.5 1.4s-2.9-.4-3.9-1.2c-1-.8-1.5-1.7-1.5-2.8 0-11.1.8-27.8 2.5-50s2.5-38.8 2.5-50c-.6-1-1-2.1-1-3.4 0-1.2.7-2.2 2-2.8 1.3-.6 2.8-1 4.3-1 2.3 0 7 10.9 13.9 32.8s11.2 37 12.8 45.5c.5-1.6 1.5-5.6 3-12.1s3.1-13.2 4.8-20.2c1.7-7 3.6-14.1 5.6-21.2 4.6-16.4 8.5-24.6 11.7-24.6 1.4 0 2.8.4 4.1 1.2 1.3.8 1.9 1.9 1.9 3.3 0 7.9.3 19.6 1 35.3.7 15.6 1 27 1 34.1l-.4 17.2v.1c0 1.2.3 5.1 1 11.7l.3 3.2c.5 1.2.7 2.4.7 3.7 0 1.3-.5 2.7-1.5 4.2s-2.3 2.2-4 2.2c-3.4.2-5.1-3.3-5.1-10.1zM227.1 237.9l-.9-13.8c0-7.7 2.3-11.6 6.9-11.6 2.9 0 6.9.7 12 2 5.1 1.4 7.6 3.1 7.6 5.2 0 2.2-1.6 3.9-4.8 5.1-5.1-1.7-9.2-2.7-12.4-3.1.2 2.3.2 4.7.2 7l-.7 23.5c0 .1.2 1 .5 2.6l5.8-.2c5.3 0 7.9 1.5 7.9 4.5 0 1.2-.5 2.2-1.4 3.1-1 .9-2.2 1.3-3.6 1.3-1.5 0-3-.1-4.7-.3h-4.2c.3 4.2.5 8.3.5 12.4l-.7 29.6c0 6.1.1 9.2.3 9.2l12.1-.4c4.1 0 6.2 1.3 6.2 4 0 1.7-.7 2.8-2.2 3.6-1.4.7-3.1 1.1-4.9 1.1h-13.8c-1.4 0-2.7-.5-3.9-1.5-1.2-1-1.8-2.2-1.8-3.6v-4.3l-1-27.6 1-47.8zM321.6 271.1l-1.4 20.7v.7c-.7 3-1 6.3-1 9.8 0 3.5-.6 6.9-1.8 10.2-1.2 3.3-3.1 6.2-5.6 8.7-2.5 2.5-5.2 3.8-8.2 3.8-3 0-5.7-1-8.1-3-2.4-2-4.5-4.6-6.1-7.8-1.6-3.2-3-6.9-4.2-11.3-1.2-4.4-2.2-8.7-2.8-12.8-.7-4.2-1.2-8.6-1.6-13.2-.6-7.1-.9-12.6-.9-16.5v-10.1c-.1-2.8-.1-5.3-.2-7.5v-3.7-4.4c.1-3.1.1-6 .3-8.5.1-2.5.4-5.2.7-8.1.3-2.9.8-5.5 1.3-7.7s1.3-4.4 2.2-6.5c1-2.2 2-4 3.2-5.3 2.7-3.1 5.7-4.6 9.2-4.6s6.4.6 8.9 1.9c2.4 1.3 4.5 3.3 6.2 6 1.7 2.8 3.1 5.5 4.4 8.1 1.3 2.6 2.2 6.2 3 10.9.7 4.7 1.3 8.4 1.7 11.3.4 2.9.7 7.1.9 12.5.2 7.3.3 13 .3 17.1v9.3zm-14.5-59.8c-1.1-2.8-2.4-4.9-4.1-6.5-1.6-1.5-3.2-2.3-4.8-2.3-1.6 0-2.9.6-4 1.7-1 1.1-1.9 2.7-2.6 4.7-.7 2-1.4 4.2-1.9 6.6-.6 2.3-1 5-1.3 8.1-.3 3.1-.5 5.8-.8 8.3-.2 2.4-.3 5.2-.4 8.1-.1 4.9-.2 8.8-.2 11.6v.7c0 7.3.6 15.2 1.7 23.6 1.1 8.4 2.3 15.3 3.5 20.7 1.2 5.4 2.8 9.9 4.8 13.7 2 3.8 4.3 5.6 6.8 5.6 2.2 0 4-2 5.5-6.1s2.6-9.3 3.2-15.3c1.1-10.9 1.6-18.5 1.6-22.9V262c0-2-.1-5-.2-8.8-.1-3.9-.4-7.5-.7-10.9-.3-3.4-.7-7.1-1.2-11.2s-1.2-7.7-2-10.9c-.8-3.1-1.8-6.1-2.9-8.9zM354.4 300.7c2.4-12 5.3-29.4 8.8-52.1 3.5-22.7 5.5-35.9 6.2-39.6h3.7c1 0 1.8.3 2.6 1s1.2 1.5 1.2 2.6c0 6.1-1.3 13.8-3.9 23.1-2.6 9.3-4.1 15.3-4.6 18-.5 2.7-.9 7-1.4 13-.5 6-1 11.9-1.7 17.7-.6 5.8-1.5 11.7-2.6 17.7s-2.6 10.9-4.5 14.6c-1.9 3.7-4.2 5.6-6.9 5.6l-3-2.5c0-13.2-1.3-26.8-3.8-40.5-2.5-13.8-5-25.4-7.4-34.7-2.4-9.4-4.1-15.3-4.9-17.8-1.9-5.9-2.9-9.6-2.9-11s.4-2.5 1.2-3.3c.8-.7 1.7-1.1 2.8-1.1 3 0 5.9 5.2 8.7 15.6 2.8 10.5 4.8 20.3 6.2 29.4 1.4 9.1 2.4 16.1 3.1 21 .7 4.8 1.3 9.7 2 14.6.6 4.8 1 7.7 1.1 8.7zM387.1 237.9l-.9-13.8c0-7.7 2.3-11.6 6.9-11.6 2.9 0 6.9.7 12 2 5.1 1.4 7.6 3.1 7.6 5.2 0 2.2-1.6 3.9-4.8 5.1-5.1-1.7-9.2-2.7-12.4-3.1.2 2.3.2 4.7.2 7l-.7 23.5c0 .1.2 1 .5 2.6l5.8-.2c5.3 0 7.9 1.5 7.9 4.5 0 1.2-.5 2.2-1.4 3.1-1 .9-2.2 1.3-3.6 1.3-1.5 0-3-.1-4.7-.3h-4.2c.3 4.2.5 8.3.5 12.4l-.7 29.6c0 6.1.1 9.2.3 9.2l12.1-.4c4.2 0 6.2 1.3 6.2 4 0 1.7-.7 2.8-2.2 3.6-1.4.7-3.1 1.1-4.9 1.1h-13.8c-1.4 0-2.7-.5-3.9-1.5-1.2-1-1.8-2.2-1.8-3.6v-4.3l-1-27.6 1-47.8zM429.8 265.7l-.2 17.7c0 14.4 1 25.8 3.1 34.1l-1.8 4.4h-4.5l-2.2-2.4c.1-4.9.2-10.4.2-16.5s-.5-19.1-1.4-39.1c-.9-20-1.4-34.9-1.4-44.7 0-5.2 1.8-7.7 5.4-7.7 5.7 0 10.5 1.5 14.4 4.5 3.9 3 5.8 7.2 5.8 12.8v11.5c0 3.1-.6 6-1.8 8.6-1.2 2.6-2.5 5.3-4.1 8.1-1.5 2.8-2.4 4.4-2.6 4.7.6 2.7 1.6 7.9 3.1 15.6 3.2 17 6.7 29.2 10.6 36.6 1.1 2.1 1.7 3.8 1.7 5 0 1.2-.3 2.2-1 3-.7.8-1.6 1.2-2.7 1.2-2.3 0-4.5-2.6-6.6-7.9-2.1-5.2-3.8-11.1-5.1-17.4-3.9-19.5-6.3-30.3-7.1-32.2h-1.8zm.6-48.2l-.6 2.3c0 4.5.1 10.9.3 19.4.2 8.4.3 14.6.3 18.4 2.6-1.3 4.6-4.8 6.2-10.4 1.6-5.6 2.4-9.9 2.4-12.9s-.1-5.2-.2-6.6c-.2-1.4-.5-3-1-4.7-1.1-3.5-3.6-5.3-7.4-5.5z"/>
    </g>
    <path class="st13" d="M73.7 283.3l-6.4.6c-3.7 0-5.6-1.5-5.6-4.6 0-2.7 3.5-4.4 10.5-5.2 1.4-.2 2.9-.2 4.5-.2s3.1.9 4.2 2.6c1.2 1.7 1.8 4 1.8 6.8s.5 7.5 1.6 13.9 1.6 10.8 1.6 13c0 4-1.3 6-4 6s-4.5-1.1-5.4-3.4v-.2l-3.6 1.8c-3.3 1.8-6.6 2.7-9.8 2.7-2.3 0-4.7-.5-7-1.4-5-2-8.8-5.3-11.5-10-2.9-4.9-4.8-9.7-5.7-14.2-.9-4.5-1.5-8.1-1.8-10.7-.4-2.7-.7-5.7-.9-9.1-.3-4.3-.4-9.5-.4-15.6l-.1-12.1c0-10.5.3-18.1 1-22.7.7-4.6 1.4-8.3 2.1-11.3.7-2.9 1.6-5.5 2.5-7.8 1-2.3 2.1-4.5 3.5-6.6 1.4-2.2 3-4 4.8-5.3 3.9-3.1 8.3-4.6 13.3-4.6s7.5 1.6 7.5 4.7c0 1.2-.4 2.1-1.3 2.8-.9.7-1.9 1-3 1l-4.7-.8c-4.1.1-7.3 2.5-9.7 7.4-2.5 5.4-4.1 10.5-4.8 15.3-.7 4.8-1.2 8.8-1.5 11.7-.4 2.9-.7 6.3-.8 10-.2 5.2-.3 10.3-.2 15.5l-.1 10.1c0 10.4.5 17.9 1.4 22.3.9 4.4 1.9 7.9 2.9 10.5 1 2.7 2.1 4.8 3.5 6.5 4.5 3.5 8.5 5.4 11.9 5.8 4.8 0 8.9-2.3 12.1-6.9.1-9.3-.8-15.6-2.4-18.3zM131.2 279.7l1.8 10.1c0 1.3.5 4.6 1.6 9.7 1 5.2 1.6 8.5 1.6 10.1v.2c0 2.4-.9 3.9-2.7 4.6-2.3 0-4.1-.4-5.3-1.1-1.3-.7-1.9-2.2-1.9-4.3 0-4.6-.8-11.4-2.4-20.2l-16.1-2.4c-1 3.6-1.8 7.6-2.3 11.9-.5 4.3-1 7.4-1.5 9.4-1 4-2.7 6.1-5.3 6.1-1.3 0-2.5-.4-3.6-1.2-1.1-.8-1.6-1.9-1.6-3.2l.4-1.4c7.3-28.4 12.8-56 16.4-82.8.1-.7.3-2.9.5-6.5.5-8 1.5-13.1 3-15.2h5.5c1.5 0 2.8.3 3.9 1s1.7 1.7 1.7 3.1c0 8.3 1.1 20.6 3.3 37 1.9 16.1 3 27.9 3 35.1zm-8.6 3.2c-.3-1.6-.5-4.4-.5-8.3 0-4-.2-8.9-.7-14.8-.5-5.9-1.1-12.7-2-20.5-.9-7.8-1.4-13.4-1.8-17-4.9 27.4-8.1 46.7-9.6 57.9 2.1 1.3 6.9 2.2 14.6 2.7zM205.2 311.2l.1-20.9c0-4.8-.4-11.9-1.2-21.3-.8-9.4-1.2-15.7-1.2-18.9 0-3.2.1-7.1.3-11.6.2-4.5.3-7.9.3-10.1-.5 1.4-2.3 9-5.5 22.6-8.3 35.2-14.2 52.8-17.8 52.8-2.1 0-3.8-.6-5-1.9s-1.8-3-1.8-5.1c0-5.2-2-15.8-6.1-31.9-4.1-16.1-7.5-28.4-10.3-37-2.1 38.4-3.1 64.4-3.1 77.9l.2 4.9c0 1.8-.4 3.1-1.1 4-.7.9-1.9 1.4-3.5 1.4s-2.9-.4-3.9-1.2c-1-.8-1.5-1.7-1.5-2.8 0-11.1.8-27.8 2.5-50s2.5-38.8 2.5-50c-.6-1-1-2.1-1-3.4 0-1.2.7-2.2 2-2.8 1.3-.6 2.8-1 4.3-1 2.3 0 7 10.9 13.9 32.8s11.2 37 12.8 45.5c.5-1.6 1.5-5.6 3-12.1s3.1-13.2 4.8-20.2c1.7-7 3.6-14.1 5.6-21.2 4.6-16.4 8.5-24.6 11.7-24.6 1.4 0 2.8.4 4.1 1.2 1.3.8 1.9 1.9 1.9 3.3 0 7.9.3 19.6 1 35.3.7 15.6 1 27 1 34.1l-.4 17.2v.1c0 1.2.3 5.1 1 11.7l.3 3.2c.5 1.2.7 2.4.7 3.7 0 1.3-.5 2.7-1.5 4.2s-2.3 2.2-4 2.2c-3.4.1-5.1-3.3-5.1-10.1zM227.1 230.3l-.9-13.8c0-7.7 2.3-11.6 6.9-11.6 2.9 0 6.9.7 12 2 5.1 1.4 7.6 3.1 7.6 5.2 0 2.2-1.6 3.9-4.8 5.1-5.1-1.7-9.2-2.7-12.4-3.1.2 2.3.2 4.7.2 7l-.7 23.5c0 .1.2 1 .5 2.6l5.8-.2c5.3 0 7.9 1.5 7.9 4.5 0 1.2-.5 2.2-1.4 3.1-1 .9-2.2 1.3-3.6 1.3-1.5 0-3-.1-4.7-.3h-4.2c.3 4.2.5 8.3.5 12.4l-.7 29.6c0 6.1.1 9.2.3 9.2l12.1-.4c4.1 0 6.2 1.3 6.2 4 0 1.7-.7 2.8-2.2 3.6-1.4.7-3.1 1.1-4.9 1.1h-13.8c-1.4 0-2.7-.5-3.9-1.5-1.2-1-1.8-2.2-1.8-3.6v-4.3l-1-27.6 1-47.8zM321.6 263.5l-1.4 20.7v.7c-.7 3-1 6.3-1 9.8 0 3.5-.6 6.9-1.8 10.2-1.2 3.3-3.1 6.2-5.6 8.7-2.5 2.5-5.2 3.8-8.2 3.8-3 0-5.7-1-8.1-3-2.4-2-4.5-4.6-6.1-7.8-1.6-3.2-3-6.9-4.2-11.3-1.2-4.4-2.2-8.7-2.8-12.8-.7-4.2-1.2-8.6-1.6-13.2-.6-7.1-.9-12.6-.9-16.5v-10.1c-.1-2.8-.1-5.3-.2-7.5v-3.7-4.3c.1-3.1.1-6 .3-8.5.1-2.5.4-5.2.7-8.1.3-2.9.8-5.5 1.3-7.7s1.3-4.4 2.2-6.5c1-2.2 2-4 3.2-5.3 2.7-3.1 5.7-4.6 9.2-4.6s6.4.6 8.9 1.9c2.4 1.3 4.5 3.3 6.2 6 1.7 2.8 3.1 5.5 4.4 8.1 1.3 2.6 2.2 6.2 3 10.9.7 4.7 1.3 8.4 1.7 11.3.4 2.9.7 7.1.9 12.5.2 7.3.3 13 .3 17.1v9.2zm-14.5-59.8c-1.1-2.8-2.4-4.9-4.1-6.5-1.6-1.5-3.2-2.3-4.8-2.3-1.6 0-2.9.6-4 1.7-1 1.1-1.9 2.7-2.6 4.7-.7 2-1.4 4.2-1.9 6.6-.6 2.3-1 5-1.3 8.1-.3 3.1-.5 5.8-.8 8.3-.2 2.4-.3 5.2-.4 8.1-.1 4.9-.2 8.8-.2 11.6v.7c0 7.3.6 15.2 1.7 23.6 1.1 8.4 2.3 15.3 3.5 20.7 1.2 5.4 2.8 9.9 4.8 13.7 2 3.8 4.3 5.6 6.8 5.6 2.2 0 4-2 5.5-6.1s2.6-9.3 3.2-15.3c1.1-10.9 1.6-18.5 1.6-22.9v-9.6c0-2-.1-5-.2-8.8-.1-3.9-.4-7.5-.7-10.9-.3-3.4-.7-7.1-1.2-11.2s-1.2-7.7-2-10.9c-.8-3.1-1.8-6.1-2.9-8.9zM354.4 293.2c2.4-12 5.3-29.4 8.8-52.1 3.5-22.7 5.5-35.9 6.2-39.6h3.7c1 0 1.8.3 2.6 1s1.2 1.5 1.2 2.6c0 6.1-1.3 13.8-3.9 23.1-2.6 9.3-4.1 15.3-4.6 18-.5 2.7-.9 7-1.4 13-.5 6-1 11.9-1.7 17.7-.6 5.8-1.5 11.7-2.6 17.7s-2.6 10.9-4.5 14.6c-1.9 3.7-4.2 5.6-6.9 5.6l-3-2.5c0-13.2-1.3-26.8-3.8-40.5-2.5-13.8-5-25.4-7.4-34.7-2.4-9.4-4.1-15.3-4.9-17.8-1.9-5.9-2.9-9.6-2.9-11s.4-2.5 1.2-3.3c.8-.7 1.7-1.1 2.8-1.1 3 0 5.9 5.2 8.7 15.6 2.8 10.5 4.8 20.3 6.2 29.4 1.4 9.1 2.4 16.1 3.1 21 .7 4.8 1.3 9.7 2 14.6.6 4.8 1 7.7 1.1 8.7zM387.1 230.3l-.9-13.8c0-7.7 2.3-11.6 6.9-11.6 2.9 0 6.9.7 12 2 5.1 1.4 7.6 3.1 7.6 5.2 0 2.2-1.6 3.9-4.8 5.1-5.1-1.7-9.2-2.7-12.4-3.1.2 2.3.2 4.7.2 7l-.7 23.5c0 .1.2 1 .5 2.6l5.8-.2c5.3 0 7.9 1.5 7.9 4.5 0 1.2-.5 2.2-1.4 3.1-1 .9-2.2 1.3-3.6 1.3-1.5 0-3-.1-4.7-.3h-4.2c.3 4.2.5 8.3.5 12.4l-.7 29.6c0 6.1.1 9.2.3 9.2l12.1-.4c4.2 0 6.2 1.3 6.2 4 0 1.7-.7 2.8-2.2 3.6-1.4.7-3.1 1.1-4.9 1.1h-13.8c-1.4 0-2.7-.5-3.9-1.5-1.2-1-1.8-2.2-1.8-3.6v-4.3l-1-27.6 1-47.8zM429.8 258.1l-.2 17.7c0 14.4 1 25.8 3.1 34.1l-1.8 4.4h-4.5l-2.2-2.4c.1-4.9.2-10.4.2-16.5s-.5-19.1-1.4-39.1c-.9-20-1.4-34.9-1.4-44.7 0-5.2 1.8-7.7 5.4-7.7 5.7 0 10.5 1.5 14.4 4.5 3.9 3 5.8 7.2 5.8 12.8v11.5c0 3.1-.6 6-1.8 8.6-1.2 2.6-2.5 5.3-4.1 8.1-1.5 2.8-2.4 4.4-2.6 4.7.6 2.7 1.6 7.9 3.1 15.6 3.2 17 6.7 29.2 10.6 36.6 1.1 2.1 1.7 3.8 1.7 5 0 1.2-.3 2.2-1 3-.7.8-1.6 1.2-2.7 1.2-2.3 0-4.5-2.6-6.6-7.9-2.1-5.2-3.8-11.1-5.1-17.4-3.9-19.5-6.3-30.3-7.1-32.2h-1.8zm.6-48.1l-.6 2.3c0 4.5.1 10.9.3 19.4.2 8.4.3 14.6.3 18.4 2.6-1.3 4.6-4.8 6.2-10.4 1.6-5.6 2.4-9.9 2.4-12.9s-.1-5.2-.2-6.6c-.2-1.4-.5-3-1-4.7-1.1-3.5-3.6-5.3-7.4-5.5z"/>
    <g>
      <path class="st14" d="M73.5 273.4l-6.4.6c-3.7 0-5.6-1.5-5.6-4.6 0-2.7 3.5-4.4 10.5-5.2 1.4-.2 2.9-.2 4.5-.2s3.1.9 4.2 2.6c1.2 1.7 1.8 4 1.8 6.8s.5 7.5 1.6 13.9 1.6 10.8 1.6 13c0 4-1.3 6-4 6s-4.5-1.1-5.4-3.4v-.2l-3.6 1.8c-3.3 1.8-6.6 2.7-9.8 2.7-2.3 0-4.7-.5-7-1.4-5-2-8.8-5.3-11.5-10-2.9-4.9-4.8-9.7-5.7-14.2-.9-4.5-1.5-8.1-1.8-10.7-.4-2.7-.7-5.7-.9-9.1-.3-4.3-.4-9.5-.4-15.6l-.1-12.1c0-10.5.3-18.1 1-22.7.7-4.6 1.4-8.3 2.1-11.3.7-2.9 1.6-5.5 2.5-7.8 1-2.3 2.1-4.5 3.5-6.6 1.4-2.2 3-4 4.8-5.3 3.9-3.1 8.3-4.6 13.3-4.6s7.5 1.6 7.5 4.7c0 1.2-.4 2.1-1.3 2.8-.9.7-1.9 1-3 1l-4.7-.8c-4.1.1-7.3 2.5-9.7 7.4-2.5 5.4-4.1 10.5-4.8 15.3-.7 4.8-1.2 8.8-1.5 11.7-.4 2.9-.7 6.3-.8 10-.2 5.2-.3 10.3-.2 15.5l-.1 10.1c0 10.4.5 17.9 1.4 22.3.9 4.4 1.9 7.9 2.9 10.5 1 2.7 2.1 4.8 3.5 6.5 4.5 3.5 8.5 5.4 11.9 5.8 4.8 0 8.9-2.3 12.1-6.9.1-9.3-.8-15.6-2.4-18.3zM131 269.8l1.8 10.1c0 1.3.5 4.6 1.6 9.7 1 5.2 1.6 8.5 1.6 10.1v.2c0 2.4-.9 3.9-2.7 4.6-2.3 0-4.1-.4-5.3-1.1s-1.9-2.2-1.9-4.3c0-4.6-.8-11.4-2.4-20.2l-16.1-2.4c-1 3.6-1.8 7.6-2.3 11.9-.5 4.3-1 7.4-1.5 9.4-1 4-2.7 6.1-5.3 6.1-1.3 0-2.5-.4-3.6-1.2-1.1-.8-1.6-1.9-1.6-3.2l.4-1.4c7.3-28.4 12.8-56 16.4-82.8.1-.7.3-2.9.5-6.5.5-8 1.5-13.1 3-15.2h5.5c1.5 0 2.8.3 3.9 1s1.7 1.7 1.7 3.1c0 8.3 1.1 20.6 3.3 37 1.9 16.1 3 27.9 3 35.1zm-8.5 3.3c-.3-1.6-.5-4.4-.5-8.3 0-4-.2-8.9-.7-14.8-.5-5.9-1.1-12.7-2-20.5-.9-7.8-1.4-13.4-1.8-17-4.9 27.4-8.1 46.7-9.6 57.9 2 1.2 6.8 2.1 14.6 2.7zM205 301.3l.1-20.9c0-4.8-.4-11.9-1.2-21.3-.8-9.4-1.2-15.7-1.2-18.9 0-3.2.1-7.1.3-11.6.2-4.5.3-7.9.3-10.1-.5 1.4-2.3 9-5.5 22.6-8.3 35.2-14.2 52.8-17.8 52.8-2.1 0-3.8-.6-5-1.9-1.2-1.3-1.8-3-1.8-5.1 0-5.2-2-15.8-6.1-31.9-4.1-16.1-7.5-28.4-10.3-37-2.1 38.4-3.1 64.4-3.1 77.9l.2 4.9c0 1.8-.4 3.1-1.1 4-.7.9-1.9 1.4-3.5 1.4s-2.9-.4-3.9-1.2c-1-.8-1.5-1.7-1.5-2.8 0-11.1.8-27.8 2.5-50s2.5-38.8 2.5-50c-.6-1-1-2.1-1-3.4 0-1.2.7-2.2 2-2.8 1.3-.6 2.8-1 4.3-1 2.3 0 7 10.9 13.9 32.8s11.2 37 12.8 45.5c.5-1.6 1.5-5.6 3-12.1s3.1-13.2 4.8-20.2c1.7-7 3.6-14.1 5.6-21.2 4.6-16.4 8.5-24.6 11.7-24.6 1.4 0 2.8.4 4.1 1.2 1.3.8 1.9 1.9 1.9 3.3 0 7.9.3 19.6 1 35.3.7 15.6 1 27 1 34.1l-.4 17.2v.1c0 1.2.3 5.1 1 11.7l.3 3.2c.5 1.2.7 2.4.7 3.7 0 1.3-.5 2.7-1.5 4.2s-2.3 2.2-4 2.2c-3.4.1-5.1-3.3-5.1-10.1zM226.9 220.5l-.9-13.8c0-7.7 2.3-11.6 6.9-11.6 2.9 0 6.9.7 12 2 5.1 1.4 7.6 3.1 7.6 5.2 0 2.2-1.6 3.9-4.8 5.1-5.1-1.7-9.2-2.7-12.4-3.1.2 2.3.2 4.7.2 7l-.7 23.5c0 .1.2 1 .5 2.6l5.8-.2c5.3 0 7.9 1.5 7.9 4.5 0 1.2-.5 2.2-1.4 3.1-1 .9-2.2 1.3-3.6 1.3-1.5 0-3-.1-4.7-.3h-4.2c.3 4.1.5 8.3.5 12.4l-.7 29.6c0 6.1.1 9.2.3 9.2l12.1-.4c4.2 0 6.2 1.3 6.2 4 0 1.7-.7 2.8-2.2 3.6-1.4.7-3.1 1.1-4.9 1.1h-13.8c-1.4 0-2.7-.5-3.9-1.5-1.2-1-1.8-2.2-1.8-3.6v-4.3l-1-27.6 1-47.8zM321.4 253.7l-1.4 20.7v.7c-.7 3-1 6.3-1 9.8 0 3.5-.6 6.9-1.8 10.2-1.2 3.3-3.1 6.2-5.6 8.7-2.5 2.5-5.2 3.8-8.2 3.8-3 0-5.7-1-8.1-3-2.4-2-4.5-4.6-6.1-7.8-1.6-3.2-3-6.9-4.2-11.3-1.2-4.4-2.2-8.7-2.8-12.8-.7-4.2-1.2-8.6-1.6-13.2-.6-7.1-.9-12.6-.9-16.5v-10.1c-.1-2.8-.1-5.3-.2-7.5v-3.7-4.3c.1-3.1.1-6 .3-8.5.1-2.5.4-5.2.7-8.1.3-2.9.8-5.5 1.3-7.7s1.3-4.4 2.2-6.5c1-2.2 2-4 3.2-5.3 2.7-3.1 5.7-4.6 9.2-4.6 3.5 0 6.4.6 8.9 1.9 2.4 1.3 4.5 3.3 6.2 6 1.7 2.8 3.1 5.5 4.4 8.1 1.3 2.6 2.2 6.2 3 10.9.7 4.7 1.3 8.4 1.7 11.3.4 2.9.7 7.1.9 12.5.2 7.3.3 13 .3 17.1v9.2zM307 193.8c-1.1-2.8-2.4-4.9-4.1-6.5-1.6-1.5-3.2-2.3-4.8-2.3-1.6 0-2.9.6-4 1.7-1 1.1-1.9 2.7-2.6 4.7-.7 2-1.4 4.2-1.9 6.6-.6 2.3-1 5-1.3 8.1-.3 3.1-.5 5.8-.8 8.3-.2 2.4-.3 5.2-.4 8.1-.1 4.9-.2 8.8-.2 11.6v.7c0 7.3.6 15.2 1.7 23.6 1.1 8.4 2.3 15.3 3.5 20.7 1.2 5.4 2.8 9.9 4.8 13.7 2 3.8 4.3 5.6 6.8 5.6 2.2 0 4-2 5.5-6.1s2.6-9.3 3.2-15.3c1.1-10.9 1.6-18.5 1.6-22.9v-9.6c0-2-.1-5-.2-8.8-.1-3.9-.4-7.5-.7-10.9-.3-3.4-.7-7.1-1.2-11.2s-1.2-7.7-2-10.9c-.9-3.1-1.9-6.1-2.9-8.9zM354.2 283.3c2.4-12 5.3-29.4 8.8-52.1 3.5-22.7 5.5-35.9 6.2-39.6h3.7c1 0 1.8.3 2.6 1s1.2 1.5 1.2 2.6c0 6.1-1.3 13.8-3.9 23.1-2.6 9.3-4.1 15.3-4.6 18-.5 2.7-.9 7-1.4 13-.5 6-1 11.9-1.7 17.7-.6 5.8-1.5 11.7-2.6 17.7s-2.6 10.9-4.5 14.6c-1.9 3.7-4.2 5.6-6.9 5.6l-3-2.5c0-13.2-1.3-26.8-3.8-40.5-2.5-13.8-5-25.4-7.4-34.7-2.4-9.4-4.1-15.3-4.9-17.8-1.9-5.9-2.9-9.6-2.9-11s.4-2.5 1.2-3.3c.8-.7 1.7-1.1 2.8-1.1 3 0 5.9 5.2 8.7 15.6 2.8 10.5 4.8 20.3 6.2 29.4 1.4 9.1 2.4 16.1 3.1 21 .7 4.8 1.3 9.7 2 14.6.6 4.8 1 7.7 1.1 8.7zM386.9 220.5l-.9-13.8c0-7.7 2.3-11.6 6.9-11.6 2.9 0 6.9.7 12 2 5.1 1.4 7.6 3.1 7.6 5.2 0 2.2-1.6 3.9-4.8 5.1-5.1-1.7-9.2-2.7-12.4-3.1.2 2.3.2 4.7.2 7l-.7 23.5c0 .1.2 1 .5 2.6l5.8-.2c5.3 0 7.9 1.5 7.9 4.5 0 1.2-.5 2.2-1.4 3.1-1 .9-2.2 1.3-3.6 1.3s-3-.1-4.7-.3H395c.3 4.1.5 8.3.5 12.4l-.7 29.6c0 6.1.1 9.2.3 9.2l12.1-.4c4.2 0 6.2 1.3 6.2 4 0 1.7-.7 2.8-2.2 3.6-1.4.7-3.1 1.1-4.9 1.1h-13.8c-1.4 0-2.7-.5-3.9-1.5-1.2-1-1.8-2.2-1.8-3.6v-4.3l-1-27.6 1.1-47.8zM429.6 248.2l-.2 17.7c0 14.4 1 25.8 3.1 34.1l-1.8 4.4h-4.5L424 302c.1-4.9.2-10.4.2-16.5s-.5-19.1-1.4-39.1c-.9-20-1.4-34.9-1.4-44.7 0-5.2 1.8-7.7 5.4-7.7 5.7 0 10.5 1.5 14.4 4.5 3.9 3 5.8 7.2 5.8 12.8v11.5c0 3.1-.6 6-1.8 8.6-1.2 2.6-2.5 5.3-4.1 8.1-1.5 2.8-2.4 4.4-2.6 4.7.6 2.7 1.6 7.9 3.1 15.6 3.2 17 6.7 29.2 10.6 36.6 1.1 2.1 1.7 3.8 1.7 5 0 1.2-.3 2.2-1 3-.7.8-1.6 1.2-2.7 1.2-2.3 0-4.5-2.6-6.6-7.9-2.1-5.2-3.8-11.1-5.1-17.4-3.9-19.5-6.3-30.3-7.1-32.2h-1.8zm.6-48.1l-.6 2.3c0 4.5.1 10.9.3 19.4.2 8.4.3 14.6.3 18.4 2.6-1.3 4.6-4.8 6.2-10.4 1.6-5.6 2.4-9.9 2.4-12.9s-.1-5.2-.2-6.6c-.2-1.4-.5-3-1-4.7-1.1-3.5-3.5-5.3-7.4-5.5z"/>
    </g>
    <g>
      <path class="st14" d="M73.7 276.8l-6.4.6c-3.7 0-5.6-1.5-5.6-4.6 0-2.7 3.5-4.4 10.5-5.2 1.4-.2 2.9-.2 4.5-.2s3.1.9 4.2 2.6c1.2 1.7 1.8 4 1.8 6.8s.5 7.5 1.6 13.9 1.6 10.8 1.6 13c0 4-1.3 6-4 6s-4.5-1.1-5.4-3.4v-.2l-3.6 1.8c-3.3 1.8-6.6 2.7-9.8 2.7-2.3 0-4.7-.5-7-1.4-5-2-8.8-5.3-11.5-10-2.9-4.9-4.8-9.7-5.7-14.2-.9-4.5-1.5-8.1-1.8-10.7-.4-2.7-.7-5.7-.9-9.1-.3-4.3-.4-9.5-.4-15.6l-.1-12.1c0-10.5.3-18.1 1-22.7.7-4.6 1.4-8.3 2.1-11.3.7-2.9 1.6-5.5 2.5-7.8 1-2.3 2.1-4.5 3.5-6.6 1.4-2.2 3-4 4.8-5.3 3.9-3.1 8.3-4.6 13.3-4.6s7.5 1.6 7.5 4.7c0 1.2-.4 2.1-1.3 2.8-.9.7-1.9 1-3 1l-4.7-.8c-4.1.1-7.3 2.5-9.7 7.4-2.5 5.4-4.1 10.5-4.8 15.3-.7 4.8-1.2 8.8-1.5 11.7-.4 2.9-.7 6.3-.8 10-.2 5.2-.3 10.3-.2 15.5l-.1 10.1c0 10.4.5 17.9 1.4 22.3.9 4.4 1.9 7.9 2.9 10.5 1 2.7 2.1 4.8 3.5 6.5 4.5 3.5 8.5 5.4 11.9 5.8 4.8 0 8.9-2.3 12.1-6.9.1-9.3-.8-15.5-2.4-18.3zM131.2 273.2l1.8 10.1c0 1.3.5 4.6 1.6 9.7 1 5.2 1.6 8.5 1.6 10.1v.2c0 2.4-.9 3.9-2.7 4.6-2.3 0-4.1-.4-5.3-1.1-1.3-.7-1.9-2.2-1.9-4.3 0-4.6-.8-11.4-2.4-20.2l-16.1-2.4c-1 3.6-1.8 7.6-2.3 11.9-.5 4.3-1 7.4-1.5 9.4-1 4-2.7 6.1-5.3 6.1-1.3 0-2.5-.4-3.6-1.2-1.1-.8-1.6-1.9-1.6-3.2l.4-1.4c7.3-28.4 12.8-56 16.4-82.8.1-.7.3-2.9.5-6.5.5-8 1.5-13.1 3-15.2h5.5c1.5 0 2.8.3 3.9 1s1.7 1.7 1.7 3.1c0 8.3 1.1 20.6 3.3 37 1.9 16.2 3 27.9 3 35.1zm-8.6 3.3c-.3-1.6-.5-4.4-.5-8.3 0-4-.2-8.9-.7-14.8-.5-5.9-1.1-12.7-2-20.5-.9-7.8-1.4-13.4-1.8-17-4.9 27.4-8.1 46.7-9.6 57.9 2 1.3 6.9 2.1 14.6 2.7zM205.2 304.7l.1-20.9c0-4.8-.4-11.9-1.2-21.3-.8-9.4-1.2-15.7-1.2-18.9 0-3.2.1-7.1.3-11.6.2-4.5.3-7.9.3-10.1-.5 1.4-2.3 9-5.5 22.6-8.3 35.2-14.2 52.8-17.8 52.8-2.1 0-3.8-.6-5-1.9-1.2-1.3-1.8-3-1.8-5.1 0-5.2-2-15.8-6.1-31.9-4.1-16.1-7.5-28.4-10.3-37-2.1 38.4-3.1 64.4-3.1 77.9l.2 4.9c0 1.8-.4 3.1-1.1 4-.7.9-1.9 1.4-3.5 1.4s-2.9-.4-3.9-1.2c-1-.8-1.5-1.7-1.5-2.8 0-11.1.8-27.8 2.5-50s2.5-38.8 2.5-50c-.6-1-1-2.1-1-3.4 0-1.2.7-2.2 2-2.8 1.3-.6 2.8-1 4.3-1 2.3 0 7 10.9 13.9 32.8s11.2 37 12.8 45.5c.5-1.6 1.5-5.6 3-12.1s3.1-13.2 4.8-20.2c1.7-7 3.6-14.1 5.6-21.2 4.6-16.4 8.5-24.6 11.7-24.6 1.4 0 2.8.4 4.1 1.2 1.3.8 1.9 1.9 1.9 3.3 0 7.9.3 19.6 1 35.3.7 15.6 1 27 1 34.1l-.4 17.2v.1c0 1.2.3 5.1 1 11.7l.3 3.2c.5 1.2.7 2.4.7 3.7 0 1.3-.5 2.7-1.5 4.2s-2.3 2.2-4 2.2c-3.4.1-5.1-3.3-5.1-10.1zM227.1 223.9l-.9-13.8c0-7.7 2.3-11.6 6.9-11.6 2.9 0 6.9.7 12 2 5.1 1.4 7.6 3.1 7.6 5.2 0 2.2-1.6 3.9-4.8 5.1-5.1-1.7-9.2-2.7-12.4-3.1.2 2.3.2 4.7.2 7l-.7 23.5c0 .1.2 1 .5 2.6l5.8-.2c5.3 0 7.9 1.5 7.9 4.5 0 1.2-.5 2.2-1.4 3.1-1 .9-2.2 1.3-3.6 1.3-1.5 0-3-.1-4.7-.3h-4.2c.3 4.1.5 8.3.5 12.4l-.7 29.6c0 6.1.1 9.2.3 9.2l12.1-.4c4.1 0 6.2 1.3 6.2 4 0 1.7-.7 2.8-2.2 3.6-1.4.7-3.1 1.1-4.9 1.1h-13.8c-1.4 0-2.7-.5-3.9-1.5-1.2-1-1.8-2.2-1.8-3.6v-4.3l-1-27.6 1-47.8zM321.6 257.1l-1.4 20.7v.7c-.7 3-1 6.3-1 9.8 0 3.5-.6 6.9-1.8 10.2-1.2 3.3-3.1 6.2-5.6 8.7-2.5 2.5-5.2 3.8-8.2 3.8-3 0-5.7-1-8.1-3-2.4-2-4.5-4.6-6.1-7.8-1.6-3.2-3-6.9-4.2-11.3-1.2-4.4-2.2-8.7-2.8-12.8-.7-4.2-1.2-8.6-1.6-13.2-.6-7.1-.9-12.6-.9-16.5v-10.1c-.1-2.8-.1-5.3-.2-7.5v-3.7-4.3c.1-3.1.1-6 .3-8.5.1-2.5.4-5.2.7-8.1.3-2.9.8-5.5 1.3-7.7s1.2-4.4 2.2-6.5c1-2.2 2-4 3.2-5.3 2.7-3.1 5.7-4.6 9.2-4.6s6.4.6 8.9 1.9c2.4 1.3 4.5 3.3 6.2 6 1.7 2.8 3.1 5.5 4.4 8.1 1.3 2.6 2.2 6.2 3 10.9.7 4.7 1.3 8.4 1.7 11.3.4 2.9.7 7.1.9 12.5.2 7.3.3 13 .3 17.1v9.2zm-14.5-59.8c-1.1-2.8-2.4-4.9-4.1-6.5-1.6-1.5-3.2-2.3-4.8-2.3-1.6 0-2.9.6-4 1.7-1 1.1-1.9 2.7-2.6 4.7-.7 2-1.4 4.2-1.9 6.6-.6 2.3-1 5-1.3 8.1-.3 3.1-.5 5.8-.8 8.3-.2 2.4-.3 5.2-.4 8.1-.1 4.9-.2 8.8-.2 11.6v.7c0 7.3.6 15.2 1.7 23.6 1.1 8.4 2.3 15.3 3.5 20.7 1.2 5.4 2.8 9.9 4.8 13.7 2 3.8 4.3 5.6 6.8 5.6 2.2 0 4-2 5.5-6.1s2.6-9.3 3.2-15.3c1.1-10.9 1.6-18.5 1.6-22.9V248c0-2-.1-5-.2-8.8-.1-3.9-.4-7.5-.7-10.9-.3-3.4-.7-7.1-1.2-11.2s-1.2-7.7-2-10.9c-.8-3.1-1.8-6.1-2.9-8.9zM354.4 286.7c2.4-12 5.3-29.4 8.8-52.1 3.5-22.7 5.5-35.9 6.2-39.6h3.7c1 0 1.8.3 2.6 1s1.2 1.5 1.2 2.6c0 6.1-1.3 13.8-3.9 23.1-2.6 9.3-4.1 15.3-4.6 18-.5 2.7-.9 7-1.4 13-.5 6-1 11.9-1.7 17.7-.6 5.8-1.5 11.7-2.6 17.7s-2.6 10.9-4.5 14.6c-1.9 3.7-4.2 5.6-6.9 5.6l-3-2.5c0-13.2-1.3-26.8-3.8-40.5-2.5-13.8-5-25.4-7.4-34.7-2.4-9.4-4.1-15.3-4.9-17.8-1.9-5.9-2.9-9.6-2.9-11s.4-2.5 1.2-3.3c.8-.7 1.7-1.1 2.8-1.1 3 0 5.9 5.2 8.7 15.6 2.8 10.5 4.8 20.3 6.2 29.4 1.4 9.1 2.4 16.1 3.1 21 .7 4.8 1.3 9.7 2 14.6.6 4.8.9 7.7 1.1 8.7zM387 223.9l-.9-13.8c0-7.7 2.3-11.6 6.9-11.6 2.9 0 6.9.7 12 2 5.1 1.4 7.6 3.1 7.6 5.2 0 2.2-1.6 3.9-4.8 5.1-5.1-1.7-9.2-2.7-12.4-3.1.2 2.3.2 4.7.2 7l-.7 23.5c0 .1.2 1 .5 2.6l5.8-.2c5.3 0 7.9 1.5 7.9 4.5 0 1.2-.5 2.2-1.4 3.1-1 .9-2.2 1.3-3.6 1.3-1.5 0-3-.1-4.7-.3h-4.2c.3 4.1.5 8.3.5 12.4l-.7 29.6c0 6.1.1 9.2.3 9.2l12.1-.4c4.2 0 6.2 1.3 6.2 4 0 1.7-.7 2.8-2.2 3.6-1.4.7-3.1 1.1-4.9 1.1h-13.8c-1.4 0-2.7-.5-3.9-1.5-1.2-1-1.8-2.2-1.8-3.6v-4.3l-1-27.6 1-47.8zM429.7 251.7l-.2 17.7c0 14.4 1 25.8 3.1 34.1l-1.8 4.4h-4.5l-2.2-2.4c.1-4.9.2-10.4.2-16.5s-.5-19.1-1.4-39.1c-.9-20-1.4-34.9-1.4-44.7 0-5.2 1.8-7.7 5.4-7.7 5.7 0 10.5 1.5 14.4 4.5 3.9 3 5.8 7.2 5.8 12.8v11.5c0 3.1-.6 6-1.8 8.6-1.2 2.6-2.5 5.3-4.1 8.1-1.5 2.8-2.4 4.4-2.6 4.7.6 2.7 1.6 7.9 3.1 15.6 3.2 17 6.7 29.2 10.6 36.6 1.1 2.1 1.7 3.8 1.7 5 0 1.2-.3 2.2-1 3-.7.8-1.6 1.2-2.7 1.2-2.3 0-4.5-2.6-6.6-7.9-2.1-5.2-3.8-11.1-5.1-17.4-3.9-19.5-6.3-30.3-7.1-32.2h-1.8zm.7-48.2l-.6 2.3c0 4.5.1 10.9.3 19.4.2 8.4.3 14.6.3 18.4 2.6-1.3 4.6-4.8 6.2-10.4 1.6-5.6 2.4-9.9 2.4-12.9s-.1-5.2-.2-6.6c-.2-1.4-.5-3-1-4.7-1.1-3.5-3.6-5.3-7.4-5.5z"/>
    </g>
    <g>
      <path class="st11" d="M73.7 272.7l-6.4.6c-3.7 0-5.6-1.5-5.6-4.6 0-2.7 3.5-4.4 10.5-5.2 1.4-.2 2.9-.2 4.5-.2s3.1.9 4.2 2.6c1.2 1.7 1.8 4 1.8 6.8s.5 7.5 1.6 13.9 1.6 10.8 1.6 13c0 4-1.3 6-4 6s-4.5-1.1-5.4-3.4v-.2l-3.6 1.8c-3.3 1.8-6.6 2.7-9.8 2.7-2.3 0-4.7-.5-7-1.4-5-2-8.8-5.3-11.5-10-2.9-4.9-4.8-9.7-5.7-14.2-.9-4.5-1.5-8.1-1.8-10.7-.4-2.7-.7-5.7-.9-9.1-.3-4.3-.4-9.5-.4-15.6l-.1-12.1c0-10.5.3-18.1 1-22.7.7-4.6 1.4-8.3 2.1-11.3.7-2.9 1.6-5.5 2.5-7.8 1-2.3 2.1-4.5 3.5-6.6 1.4-2.2 3-4 4.8-5.3 3.9-3.1 8.3-4.6 13.3-4.6s7.5 1.6 7.5 4.7c0 1.2-.4 2.1-1.3 2.8-.9.7-1.9 1-3 1l-4.7-.8c-4.1.1-7.3 2.5-9.7 7.4-2.5 5.4-4.1 10.5-4.8 15.3-.7 4.8-1.2 8.8-1.5 11.7-.4 2.9-.7 6.3-.8 10-.2 5.2-.3 10.3-.2 15.5l.2 10.3c0 10.4.5 17.9 1.4 22.3.9 4.4 1.9 7.9 2.9 10.5 1 2.7 2.1 4.8 3.5 6.5 4.5 3.5 8.5 5.4 11.9 5.8 4.8 0 8.9-2.3 12.1-6.9-.2-9.5-1.1-15.8-2.7-18.5zM131.2 269.1l1.8 10.1c0 1.3.5 4.6 1.6 9.7 1 5.2 1.6 8.5 1.6 10.1v.2c0 2.4-.9 3.9-2.7 4.6-2.3 0-4.1-.4-5.3-1.1s-1.9-2.2-1.9-4.3c0-4.6-.8-11.4-2.4-20.2l-16.1-2.4c-1 3.6-1.8 7.6-2.3 11.9-.5 4.3-1 7.4-1.5 9.4-1 4-2.7 6.1-5.3 6.1-1.3 0-2.5-.4-3.6-1.2-1.1-.8-1.6-1.9-1.6-3.2l.4-1.4c7.3-28.4 12.8-56 16.4-82.8.1-.7.3-2.9.5-6.5.5-8 1.5-13.1 3-15.2h5.5c1.5 0 2.8.3 3.9 1s1.7 1.7 1.7 3.1c0 8.3 1.1 20.6 3.3 37 1.9 16.1 3 27.9 3 35.1zm-8.6 3.3c-.3-1.6-.5-4.4-.5-8.3 0-4-.2-8.9-.7-14.8-.5-5.9-1.1-12.7-2-20.5-.9-7.8-1.4-13.4-1.8-17-4.9 27.4-8.1 46.7-9.6 57.9 2.1 1.2 6.9 2.1 14.6 2.7zM205.2 300.6l.1-20.9c0-4.8-.4-11.9-1.2-21.3-.8-9.4-1.2-15.7-1.2-18.9 0-3.2.1-7.1.3-11.6.2-4.5.3-7.9.3-10.1-.5 1.4-2.3 9-5.5 22.6-8.3 35.2-14.2 52.8-17.8 52.8-2.1 0-3.8-.6-5-1.9-1.2-1.3-1.8-3-1.8-5.1 0-5.2-2-15.8-6.1-31.9-4.1-16.1-7.5-28.4-10.3-37-2.1 38.4-3.1 64.4-3.1 77.9l.2 4.9c0 1.8-.4 3.1-1.1 4-.7.9-1.9 1.4-3.5 1.4s-2.9-.4-3.9-1.2c-1-.8-1.5-1.7-1.5-2.8 0-11.1.8-27.8 2.5-50s2.5-38.8 2.5-50c-.6-1-1-2.1-1-3.4 0-1.2.7-2.2 2-2.8 1.3-.6 2.8-1 4.3-1 2.3 0 7 10.9 13.9 32.8s11.2 37 12.8 45.5c.5-1.6 1.5-5.6 3-12.1s3.1-13.2 4.8-20.2c1.7-7 3.6-14.1 5.6-21.2 4.6-16.4 8.5-24.6 11.7-24.6 1.4 0 2.8.4 4.1 1.2 1.3.8 1.9 1.9 1.9 3.3 0 7.9.3 19.6 1 35.3.7 15.6 1 27 1 34.1l-.4 17.2v.1c0 1.2.3 5.1 1 11.7l.3 3.2c.5 1.2.7 2.4.7 3.7 0 1.3-.5 2.7-1.5 4.2s-2.3 2.2-4 2.2c-3.4.1-5.1-3.3-5.1-10.1zM227.1 219.8l-.9-13.8c0-7.7 2.3-11.6 6.9-11.6 2.9 0 6.9.7 12 2 5.1 1.4 7.6 3.1 7.6 5.2 0 2.2-1.6 3.9-4.8 5.1-5.1-1.7-9.2-2.7-12.4-3.1.2 2.3.2 4.7.2 7l-.7 23.5c0 .1.2 1 .5 2.6l5.8-.2c5.3 0 7.9 1.5 7.9 4.5 0 1.2-.5 2.2-1.4 3.1-1 .9-2.2 1.3-3.6 1.3-1.5 0-3-.1-4.7-.3h-4.2c.3 4.1.5 8.3.5 12.4L235 287c0 6.1.1 9.2.3 9.2l12.1-.4c4.1 0 6.2 1.3 6.2 4 0 1.7-.7 2.8-2.2 3.6-1.4.7-3.1 1.1-4.9 1.1h-13.8c-1.4 0-2.7-.5-3.9-1.5-1.2-1-1.8-2.2-1.8-3.6v-4.3l-1-27.6 1.1-47.7zM321.6 253l-1.4 20.7v.7c-.7 3-1 6.3-1 9.8 0 3.5-.6 6.9-1.8 10.2-1.2 3.3-3.1 6.2-5.6 8.7-2.5 2.5-5.2 3.8-8.2 3.8-3 0-5.7-1-8.1-3-2.4-2-4.5-4.6-6.1-7.8-1.6-3.2-3-6.9-4.2-11.3-1.2-4.4-2.2-8.7-2.8-12.8-.7-4.2-1.2-8.6-1.6-13.2-.6-7.1-.9-12.6-.9-16.5v-10.1c-.1-2.8-.1-5.3-.2-7.5V221v-4.3c.1-3.1.1-6 .3-8.5.1-2.5.4-5.2.7-8.1.3-2.9.8-5.5 1.3-7.7s1.3-4.4 2.2-6.5c1-2.2 2-4 3.2-5.3 2.7-3.1 5.7-4.6 9.2-4.6s6.4.6 8.9 1.9c2.4 1.3 4.5 3.3 6.2 6 1.7 2.8 3.1 5.5 4.4 8.1 1.3 2.6 2.2 6.2 3 10.9.7 4.7 1.3 8.4 1.7 11.3.4 2.9.7 7.1.9 12.5.2 7.3.3 13 .3 17.1v9.2zm-14.5-59.9c-1.1-2.8-2.4-4.9-4.1-6.5-1.6-1.5-3.2-2.3-4.8-2.3-1.6 0-2.9.6-4 1.7-1 1.1-1.9 2.7-2.6 4.7-.7 2-1.4 4.2-1.9 6.6-.6 2.3-1 5-1.3 8.1-.3 3.1-.5 5.8-.8 8.3-.2 2.4-.3 5.2-.4 8.1-.1 4.9-.2 8.8-.2 11.6v.7c0 7.3.6 15.2 1.7 23.6 1.1 8.4 2.3 15.3 3.5 20.7 1.2 5.4 2.8 9.9 4.8 13.7 2 3.8 4.3 5.6 6.8 5.6 2.2 0 4-2 5.5-6.1s2.6-9.3 3.2-15.3c1.1-10.9 1.6-18.5 1.6-22.9v-9.6c0-2-.1-5-.2-8.8-.1-3.9-.4-7.5-.7-10.9-.3-3.4-.7-7.1-1.2-11.2s-1.2-7.7-2-10.9c-.8-3.1-1.8-6.1-2.9-8.9zM354.4 282.6c2.4-12 5.3-29.4 8.8-52.1 3.5-22.7 5.5-35.9 6.2-39.6h3.7c1 0 1.8.3 2.6 1s1.2 1.5 1.2 2.6c0 6.1-1.3 13.8-3.9 23.1-2.6 9.3-4.1 15.3-4.6 18-.5 2.7-.9 7-1.4 13-.5 6-1 11.9-1.7 17.7-.6 5.8-1.5 11.7-2.6 17.7s-2.6 10.9-4.5 14.6c-1.9 3.7-4.2 5.6-6.9 5.6l-3-2.5c0-13.2-1.3-26.8-3.8-40.5-2.5-13.8-5-25.4-7.4-34.7-2.4-9.4-4.1-15.3-4.9-17.8-1.9-5.9-2.9-9.6-2.9-11 0-1.4.4-2.5 1.2-3.3.8-.7 1.7-1.1 2.8-1.1 3 0 5.9 5.2 8.7 15.6 2.8 10.5 4.8 20.3 6.2 29.4 1.4 9.1 2.4 16.1 3.1 21 .7 4.8 1.3 9.7 2 14.6.6 4.8 1 7.7 1.1 8.7zM387.1 219.8l-.9-13.8c0-7.7 2.3-11.6 6.9-11.6 2.9 0 6.9.7 12 2 5.1 1.4 7.6 3.1 7.6 5.2 0 2.2-1.6 3.9-4.8 5.1-5.1-1.7-9.2-2.7-12.4-3.1.2 2.3.2 4.7.2 7l-.7 23.5c0 .1.2 1 .5 2.6l5.8-.2c5.3 0 7.9 1.5 7.9 4.5 0 1.2-.5 2.2-1.4 3.1-1 .9-2.2 1.3-3.6 1.3-1.5 0-3-.1-4.7-.3h-4.2c.3 4.1.5 8.3.5 12.4L395 287c0 6.1.1 9.2.3 9.2l12.1-.4c4.2 0 6.2 1.3 6.2 4 0 1.7-.7 2.8-2.2 3.6-1.4.7-3.1 1.1-4.9 1.1h-13.8c-1.4 0-2.7-.5-3.9-1.5-1.2-1-1.8-2.2-1.8-3.6v-4.3l-1-27.6 1.1-47.7zM429.8 247.5l-.2 17.7c0 14.4 1 25.8 3.1 34.1l-1.8 4.4h-4.5l-2.2-2.4c.1-4.9.2-10.4.2-16.5s-.5-19.1-1.4-39.1c-.9-20-1.4-34.9-1.4-44.7 0-5.2 1.8-7.7 5.4-7.7 5.7 0 10.5 1.5 14.4 4.5 3.9 3 5.8 7.2 5.8 12.8v11.5c0 3.1-.6 6-1.8 8.6-1.2 2.6-2.5 5.3-4.1 8.1-1.5 2.8-2.4 4.4-2.6 4.7.6 2.7 1.6 7.9 3.1 15.6 3.2 17 6.7 29.2 10.6 36.6 1.1 2.1 1.7 3.8 1.7 5 0 1.2-.3 2.2-1 3-.7.8-1.6 1.2-2.7 1.2-2.3 0-4.5-2.6-6.6-7.9-2.1-5.2-3.8-11.1-5.1-17.4-3.9-19.5-6.3-30.3-7.1-32.2h-1.8zm.6-48.1l-.6 2.3c0 4.5.1 10.9.3 19.4.2 8.4.3 14.6.3 18.4 2.6-1.3 4.6-4.8 6.2-10.4 1.6-5.6 2.4-9.9 2.4-12.9s-.1-5.2-.2-6.6c-.2-1.4-.5-3-1-4.7-1.1-3.5-3.6-5.3-7.4-5.5z"/>
    </g>
  </g>
</svg>
