<svg id="Layer_1" xmlns="http://www.w3.org/2000/svg" viewBox="0 0 624 195">
  <style>
    .st0{fill:#FFFFFF;}
  </style>
  <path class="st0" d="M624 97.5c0 18.8-15.2 34-34 34-3.5 0-6.8-.5-10-1.5v1.1c5.4 3.5 9 9.5 9 16.4 0 10.8-8.7 19.5-19.5 19.5h-.6c-11.5 16.9-30.9 28-52.9 28H108c-22 0-41.4-11.1-52.9-28h-.6c-10.8 0-19.5-8.7-19.5-19.5 0-6.9 3.6-13 9-16.4V130c-3.2 1-6.5 1.5-10 1.5-18.8 0-34-15.2-34-34 0-17.9 13.9-32.6 31.5-33.9-5.1-3.5-8.5-9.4-8.5-16.1C23 36.7 31.7 28 42.5 28c3.9 0 7.5 1.1 10.6 3.1C64.3 12.5 84.7 0 108 0h408c23.3 0 43.7 12.5 54.9 31.1 3.1-2 6.7-3.1 10.6-3.1 10.8 0 19.5 8.7 19.5 19.5 0 6.7-3.4 12.6-8.5 16.1 17.6 1.3 31.5 16 31.5 33.9z"/>
</svg>
