<svg xmlns="http://www.w3.org/2000/svg" data-name="Layer 1" viewBox="0 0 504.77 567.96">
  <path d="M502.27 567.98H2.5a2.5 2.5 0 1 1 0-5h499.77a2.5 2.5 0 0 1 0 5z" opacity=".4"/>
  <circle cx="81.08" cy="503.84" r="60.38" fill="#292d30"/>
  <circle cx="92.78" cy="542.48" r="59" fill="#54575b" transform="rotate(-88.41 62.087 534.95)"/>
  <circle cx="92.78" cy="542.48" r="37.37" fill="#9b9b9b" transform="rotate(-88.41 62.087 534.95)"/>
  <circle cx="92.78" cy="542.48" r="22.81" fill="#54575b" transform="rotate(-88.41 62.087 534.95)"/>
  <circle cx="92.78" cy="542.48" r="22.81" fill="#47494c" transform="rotate(-88.41 62.087 534.95)"/>
  <path class="wheel" fill="#292d30" d="M92.15 500.49l-17.75 3.13a.74.74 0 0 1-.55-1.34l14.76-10.36a.74.74 0 0 0 .18-1 23 23 0 0 0-4.75-4.75.74.74 0 0 0-1 .18l-10.36 14.69a.74.74 0 0 1-1.34-.55l3.11-17.72a.74.74 0 0 0-.61-.87 23 23 0 0 0-6.72 0 .74.74 0 0 0-.61.87l3.1 17.68a.74.74 0 0 1-1.34.55l-10.35-14.69a.74.74 0 0 0-1-.18 22.95 22.95 0 0 0-4.75 4.74.74.74 0 0 0 .18 1l14.74 10.33a.74.74 0 0 1-.55 1.34l-17.74-3.09a.74.74 0 0 0-.87.61 22.95 22.95 0 0 0 0 6.71.74.74 0 0 0 .87.61l17.73-3.12a.74.74 0 0 1 .55 1.34L52.3 516.98a.74.74 0 0 0-.18 1 23 23 0 0 0 4.74 4.75.74.74 0 0 0 1-.18l10.33-14.75a.74.74 0 0 1 1.34.55l-3.09 17.75a.74.74 0 0 0 .61.87 23 23 0 0 0 6.71 0 .74.74 0 0 0 .61-.87l-3.12-17.74a.74.74 0 0 1 1.34-.55l10.36 14.74a.74.74 0 0 0 1 .18 23 23 0 0 0 4.75-4.74.74.74 0 0 0-.18-1l-14.65-10.32a.74.74 0 0 1 .55-1.34l17.74 3.09a.74.74 0 0 0 .87-.61 22.95 22.95 0 0 0 0-6.71.74.74 0 0 0-.88-.61zm-21.69 4z"/>
  <circle cx="92.78" cy="542.48" r="7.45" fill="#aeaeaf" transform="rotate(-88.41 62.087 534.95)"/>
  <circle cx="431.08" cy="503.84" r="60.38" fill="#292d30"/>
  <circle cx="442.78" cy="542.48" r="59" fill="#54575b" transform="rotate(-88.41 412.09 534.942)"/>
  <circle cx="442.78" cy="542.48" r="37.37" fill="#9b9b9b" transform="rotate(-88.41 412.09 534.942)"/>
  <circle cx="442.78" cy="542.48" r="22.81" fill="#54575b" transform="rotate(-88.41 412.09 534.942)"/>
  <circle cx="442.78" cy="542.48" r="22.81" fill="#47494c" transform="rotate(-88.41 412.09 534.942)"/>
  <path class="wheel" fill="#292d30" d="M442.15 500.49l-17.75 3.13a.74.74 0 0 1-.55-1.34l14.76-10.36a.74.74 0 0 0 .18-1 23 23 0 0 0-4.75-4.75.74.74 0 0 0-1 .18l-10.36 14.69a.74.74 0 0 1-1.34-.55l3.11-17.72a.74.74 0 0 0-.61-.87 23 23 0 0 0-6.72 0 .74.74 0 0 0-.61.87l3.1 17.68a.74.74 0 0 1-1.34.55l-10.33-14.69a.74.74 0 0 0-1-.18 22.95 22.95 0 0 0-4.75 4.74.74.74 0 0 0 .18 1l14.74 10.33a.74.74 0 0 1-.55 1.34l-17.74-3.09a.74.74 0 0 0-.87.61 22.95 22.95 0 0 0 0 6.71.74.74 0 0 0 .87.61l17.73-3.12a.74.74 0 0 1 .55 1.34l-14.8 10.38a.74.74 0 0 0-.18 1 23 23 0 0 0 4.74 4.75.74.74 0 0 0 1-.18l10.33-14.75a.74.74 0 0 1 1.34.55l-3.09 17.75a.74.74 0 0 0 .61.87 23 23 0 0 0 6.71 0 .74.74 0 0 0 .61-.87l-3.12-17.74a.74.74 0 0 1 1.34-.55l10.36 14.74a.74.74 0 0 0 1 .18 23 23 0 0 0 4.75-4.74.74.74 0 0 0-.18-1l-14.74-10.33a.74.74 0 0 1 .55-1.34l17.74 3.09a.74.74 0 0 0 .87-.61 22.95 22.95 0 0 0 0-6.71.74.74 0 0 0-.79-.6zm-21.69 4z"/>
  <circle cx="442.78" cy="542.48" r="7.45" fill="#aeaeaf" transform="rotate(-88.41 412.09 534.942)"/>

  <g class="scooter-body">
      <path fill="#fff" d="M280.58 223.98a17.94 17.94 0 0 1-12.37-5c-5.32-5-15.21-14.4-21.77-27.28a18 18 0 0 1 32.08-16.34c3.74 7.34 10.44 13.68 14.44 17.47a18 18 0 0 1-12.38 31.15z"/>
      <path fill="#fbbda4" d="M368.06 262.62c-23 0-43.54-4.94-61.28-14.76a98.81 98.81 0 0 1-34.52-31.27 15 15 0 0 1 25-16.52c22.83 34.62 69.77 33.21 83.61 31.95a15.002 15.002 0 1 1 2.72 29.88q-7.91.72-15.53.72z"/>
      <path fill="#f9a58c" d="M365.85 262.58c-54.69 0-83-30.68-93-44.71a7.002 7.002 0 1 1 11.38-8.16c9.45 13.27 37.65 43.43 94.45 38.27a7 7 0 1 1 1.27 13.94c-4.91.45-9.59.66-14.1.66z" opacity=".8"/>
      <path fill="#f9a58c" d="M274.8 219.36a15 15 0 0 1 21.5-20.6 15 15 0 0 0-23.5 18.6c2.5 3.31 3.88 4.53 2 2z" opacity=".8"/>
      <circle cx="391.54" cy="252.09" r="20.54" fill="#fbbda4"/>
      <path fill="#f9a58c" d="M409.84 242.79c0 .58.09 1.17.09 1.77a20.53 20.53 0 0 1-38.84 9.29 20.53 20.53 0 1 0 38.75-11.06z" opacity=".8"/>
      <ellipse cx="419.14" cy="280.34" fill="#ffcebd" rx="6.45" ry="8.63" transform="rotate(-70.74 381.235 277.048)" opacity=".74"/>
      <path fill="#0071bc" d="M158.98 275.29c-4.66 25.21 2.07 45 18.74 57.47 20 9.28 83.74 2.7 83.74 2.7l-.21-64.17z"/>
      <path fill="#057" d="M324.26 299.88l-62.95-8.78-.07-19.81-31 1.21.21 63s-12.09 1.25-27.4 1.89c25.88 1.47 58.4-1.89 58.4-1.89v-4l38.59 5.38-8.71 107.45a20 20 0 0 0 18.35 21.56c.55 0 1.1.07 1.64.07a20 20 0 0 0 19.91-18.38l10.24-126.27a20 20 0 0 0-17.21-21.43z"/>
      <path fill="#0071bc" d="M326.86 471.46l16.43 4.52 2.26-9.11-10.11-2.83-7.62-6.17-.96 13.59"/>
      <path fill="#1c3547" d="M343.04 465.56l-1.15-.14a12 12 0 0 1-10.66-13.13l.88-8.46a4.08 4.08 0 0 0-4.48 3.64l-.27 2.56a17.1 17.1 0 0 0 15.25 18.78h.18l-.3 2.86h-.18a20 20 0 0 1-17.81-21.94 6.66 6.66 0 0 0-5.93-7.31l-24.54-2.8.07-.92a2.52 2.52 0 0 0-2.25-2.7l-.27 3.47-3.57 34.38a4.18 4.18 0 0 0 3.71 4.59l54.36 5.81.62-5.94.63-6.08.3-2.86.13-1.26a2 2 0 0 0-1.81-2.23z"/>
      <path fill="#fff" d="M339.01 472.69h-.11a.72.72 0 0 1-.51-.88l.69-5.76a.71.71 0 0 1 .88-.51.72.72 0 0 1 .51.88l-.69 5.76a.72.72 0 0 1-.77.51zm-4.14-.91a.66.66 0 0 1-.19 0 .72.72 0 0 1-.4-.93l2.32-5.86a.71.71 0 0 1 .93-.4.72.72 0 0 1 .4.93l-2.32 5.86a.72.72 0 0 1-.74.4zm-3.29-1.8a.72.72 0 0 1-.54-1.08l3.25-5.48a.72.72 0 1 1 1.24.73l-3.25 5.48a.72.72 0 0 1-.7.35zm-3.51-2.71a.72.72 0 0 1-.44-1.22l4.5-4.54a.72.72 0 0 1 1 1l-4.5 4.54a.72.72 0 0 1-.56.22zm-3.07-3.52a.72.72 0 0 1-.31-1.32l5.49-3.45a.72.72 0 0 1 .77 1.22l-5.49 3.47a.71.71 0 0 1-.46.08zm-2.1-4.02a.72.72 0 0 1-.17-1.39l6.26-2.29a.72.72 0 1 1 .49 1.35l-6.26 2.29a.7.7 0 0 1-.32.04zm-1.22-4.89a.72.72 0 0 1 0-1.43l6.79-.77a.72.72 0 0 1 .16 1.43l-6.79.77zm-.68-5.02a.72.72 0 0 1 .13-1.43l7.72.6a.77.77 0 0 1 .66.77.72.72 0 0 1-.77.66l-7.72-.6z"/>
      <path fill="#fff" d="M301.84 474.51a11.34 11.34 0 0 0-12.66-12.53l-1.33 12.77 13.64 1.42a11.31 11.31 0 0 0 .35-1.66z" opacity=".1"/>
      <path fill="#9b1818" d="M216.08 287.85c-34.45.07-50.3-6.56-56.2-13.49-4.5-5.29-5.48-13.55-7-23.46l-.62-4.24c-2.09-29.83-3-42.08.89-74.9 4-34 39.43-41.8 80.23-36.76 32.07 4 41.12 33.51 35.22 65.27-2.41 13-3.48 23.31-2.65 37.52l.64 4.36c4.63 32-12.18 40.48-44.15 45.12a59.37 59.37 0 0 1-6.36.58z"/>
      <path fill="#7f0d0d" d="M233.39 134.98l-2.85-.32c3.67 16.62 4.11 36.46 1.86 56.86a345.24 345.24 0 0 0-1.89 58.64l.72 6.65c1.32 12.3 1.24 20.49-.11 29 26.29-5.33 39.68-14.68 35.48-43.63l-.64-4.36c-.83-14.21.23-24.53 2.65-37.52 5.91-31.79-3.15-61.32-35.22-65.32z" opacity=".8"/>
      <path fill="#fff" d="M223.24 282.98a66.79 66.79 0 0 1-6.77.59c-36.56.14-53.61-8.19-59.85-15.11l-.16-.19c.86 2.31.95 5.35 2.41 7.07 5.9 6.93 22.75 12.56 57.21 12.49a59.38 59.38 0 0 0 6.37-.57c23-3.33 41.29-8.74 43.11-23.27-7.25 10.11-21.68 16.15-42.32 18.99z"/>
      <path fill="#8c0000" d="M214.68.04a64.33 64.33 0 0 0-66.35 62.21v1.56c0 1.79 16 3.59 35.22 4.32l11.61.4c19.42.74 34.87 13 34.2 27.53-.44 14.51 13.55 19.85 31.31 12.08 0 0 15.28-6.7 16.25-41.52C277.88 30.9 250.19.98 214.68.04z"/>
      <path fill="#fbbda4" d="M172 138.98l1.85-50a42.87 42.87 0 1 1 85.73 1.27l-3.91 54c-17.67 16.73-58.78 10.16-83.67-5.27z"/>
      <path fill="#f9a58c" d="M205.27 47.35a45.36 45.36 0 0 1 12.31-1.6 42.88 42.88 0 0 1 42.23 43.5l-3.85 54.53c-4.73 4.76-12.9 8.74-21.93 9.68l1-64.58a43 43 0 0 0-29.75-41.53z"/>
      <path fill="#111" d="M214.37 6.98c40.61 1.94 75.9 31.94 56.75 87.93a40.37 40.37 0 0 1-3.21 5.76c5.33-13.1-5.24-22.85-24.66-23.59l-13.84-.43c-19.42-.74-35.61 7.29-36 17.33-.38 10.27-15.84 13.83-34.28 8 0 0-9.11-2.82-11.34-33-2.6-35.32 31.09-63.63 66.57-62z" style="isolation:isolate" opacity=".25"/>
      <path d="M259.56 106.55a7.93 7.93 0 0 1-2.24.41 12 12 0 0 1-4.9-1l-10.66-3.73a20.37 20.37 0 0 0-13.62-.2l-11.89 3.62a17 17 0 0 1-4.7.6h-.22a19 19 0 0 1-18.7-18.81l-.06 4a19 19 0 0 0 18.69 19.26h.22a17 17 0 0 0 4.7-.6l11.89-3.62a23.58 23.58 0 0 1 13.62.2l10.66 3.73a19 19 0 0 0 4.9 1 7.93 7.93 0 0 0 2.24-.41z" style="isolation:isolate" opacity=".07"/>
      <path fill="#1f9fff" d="M211.09 107.62a17.41 17.41 0 0 0 4.92-.6l11.89-3.62a23.58 23.58 0 0 1 13.62.2l10.66 3.73a19 19 0 0 0 4.9 1c6.7.1 12.64-9.41 14.52-15.42l1.45-7.12a15.91 15.91 0 0 0-15.62-16.09l-48.89-.72a15.91 15.91 0 0 0-16.09 15.62l-.05 3.57a19 19 0 0 0 18.69 19.48z" style="isolation:isolate" opacity=".4"/>
      <path fill="#1f9fff" d="M271.83 92.22c-1.88 6-8 15.51-14.52 15.42a12 12 0 0 1-4.9-1l-10.88-4a20.37 20.37 0 0 0-13.62-.2l-11.89 3.62a17 17 0 0 1-4.7.6h-.22a19 19 0 0 1-18.69-19.26v.89a19 19 0 0 0 18.69 19.26h.22a17 17 0 0 0 4.7-.6l11.89-3.62a23.58 23.58 0 0 1 13.62.2l10.66 3.73a19 19 0 0 0 4.9 1c6.7.1 12.64-9.41 14.52-15.42l1.45-7.12v-.67l-1.22 7.13z" style="isolation:isolate" opacity=".5"/>
      <path fill="#fff" d="M243.84 70.14l-31.73 37.49a18.11 18.11 0 0 0 3.89-.57l10-3 28.37-33.52-10.53-.38m-11.07-.41l-30.23 35.68a16 16 0 0 0 3.51 1.39l31.28-37-4.55-.11" style="isolation:isolate" opacity=".3"/>
      <path fill="none" d="M211.09 107.62a17.41 17.41 0 0 0 4.92-.6l11.89-3.62a23.58 23.58 0 0 1 13.62.2l10.66 3.73a19 19 0 0 0 4.9 1c6.7.1 12.64-9.41 14.52-15.42l1.45-7.12c.13-8.71-7.37-15.07-16.08-15.2l-48.88-1.61A15.91 15.91 0 0 0 192 84.6l-.05 3.57c.29 10.72 8.64 19.33 19.14 19.49"/>
      <path fill="none" d="M211.09 107.62a17.41 17.41 0 0 0 4.92-.6l11.89-3.62a23.58 23.58 0 0 1 13.62.2l10.66 3.73a19 19 0 0 0 4.9 1c6.7.1 12.64-9.41 14.52-15.42l1.45-7.12c.13-8.71-7.37-15.07-16.08-15.2l-48.88-1.61A15.91 15.91 0 0 0 192 84.6l-.05 3.57c.29 10.72 8.64 19.33 19.14 19.49"/>
      <path fill="none" d="M211.09 107.62a17.41 17.41 0 0 0 4.92-.6l11.89-3.62a23.58 23.58 0 0 1 13.62.2l10.66 3.73a19 19 0 0 0 4.9 1c6.7.1 12.64-9.41 14.52-15.42l1.45-7.12c.13-8.71-7.37-15.07-16.08-15.2l-48.88-1.61A15.91 15.91 0 0 0 192 84.6l-.05 3.57c.29 10.72 8.64 19.33 19.14 19.49"/>
      <path fill="#d30000" d="M214.47.26c40.61 1.94 76 37.31 57.12 93.3l-.47 1.56c4.21-13.11-8.35-24.24-27.55-24.75l-13.84-.39c-19.42-.74-35.66 10.64-36.1 25.14s-14.8 19-32.08 10c0 0-14.62-7.81-13.66-42.63 1.42-35.48 31.1-63.85 66.58-62.21z"/>
      <path fill="#c40000" d="M214.47.26l-6-.09.22.23c34.32 4.31 62.94 32.42 55.81 76.53 6 4.55 8.77 11.07 6.43 18.18l.47-1.56C290.73 37.57 255.08 2.2 214.47.26z"/>
      <path fill="#fff" d="M162.94 56.43a3.38 3.38 0 0 1-3.31-3c-.76-8.72 4.57-22.26 12.46-26.83a3.255 3.255 0 0 1 3.27 5.63c-5.4 3-9.59 13.93-9 20.19a3.47 3.47 0 0 1-3 3.75.69.69 0 0 1-.42.26z" style="isolation:isolate" opacity=".4"/>
      <circle cx="201.16" cy="136.67" r="6.7" fill="#212121" transform="rotate(-89.15 170.705 128.987)"/>
      <path fill="#6b0000" d="M178.68 107.36a8.11 8.11 0 0 1-6.21-2.77 9.17 9.17 0 0 1-2.36-6.29 8.67 8.67 0 0 1 8.83-8.35 8.71 8.71 0 1 1-.26 17.41zm.2-13.4a4.58 4.58 0 0 0-3.46 7.76 4.41 4.41 0 0 0 3.11 1.39v2-2a4.83 4.83 0 0 0 4.75-4.4 4.68 4.68 0 0 0-4.37-4.73z"/>
      <path fill="#703a16" d="M234.89 128.51a16.25 16.25 0 0 1-10.21-3.72 2.234 2.234 0 0 1 3-3.31c2.42 2.27 9.54 3.94 13.39.42a2.21 2.21 0 1 1 3.08 3.17 12.59 12.59 0 0 1-9.21 3.44z"/>
      <path fill="#212121" d="M228.16 147.62c-27.8-.41-46.55-16.58-52.51-45.59l8.42-2.08c3.2 22.56 24.35 40.09 47.73 41.1l-2.53 6.58z" opacity=".2"/>
      <path d="M209.68 144.48a4.09 4.09 0 0 1-1.54-.46l-4.38-2.27a3.93 3.93 0 0 1-1.69-4.88l1.82-3.73a3.93 3.93 0 0 1 4.88-1.69l4.38 2.27a3.13 3.13 0 0 1 1.74 2 3.69 3.69 0 0 1-.26 2.64l-1.82 3.73a3.25 3.25 0 0 1-3.13 2.39zm-2.49-10.41a1.15 1.15 0 0 0-.89.43l-1.82 3.73a.81.81 0 0 0 .42 1.11l4.38 2.27a.81.81 0 0 0 1.11-.42l1.82-3.73c0-.22.23-.44 0-.66a.47.47 0 0 0-.43-.45l-4.38-2.27z" opacity=".15"/>
      <path fill="#212121" d="M260.34 106.39l-1.78.86c-.25 17-6.25 34.12-29.64 33.77h-.66c-24.49-.36-40.39-14.73-46-41.52l-6.37 1.48c6.18 29.67 24.69 46.28 52.28 46.69h1.1c28.72-1.59 30.78-21.96 31.07-41.28z"/>
      <path fill="#666" d="M208.76 146.67a3.19 3.19 0 0 1-1.54-.46l-4.6-2.28a3.53 3.53 0 0 1-1.69-4.88l2-3.94a4 4 0 0 1 5.1-1.69l4.6 2.28a4 4 0 0 1 2 2.24 3.3 3.3 0 0 1-.26 2.87l-2 3.94a3.74 3.74 0 0 1-3.56 1.93zm-2.49-10.85a1.15 1.15 0 0 0-.89.43l-2 3.94a.81.81 0 0 0 .42 1.11l4.6 2.28c.44.23 1.1 0 1.11-.42l2-3.94c0-.22.23-.44 0-.66a.47.47 0 0 0-.43-.45l-4.6-2.28z"/>
      <path fill="#f9a58c" d="M172.05 135.98l-.06 4c24.89 15.41 66.26 22 83.93 5.25l.06-4c-17.67 16.75-59.04 10.18-83.93-5.25z"/>
      <path fill="#fff" d="M172 138.98l-.06 4c24.89 15.41 66.27 22 83.93 5.19l.06-4c-17.66 16.81-59.04 10.24-83.93-5.19zm6.52 80.61a18.51 18.51 0 0 1-17.35-12.08 91.57 91.57 0 0 1-5.72-31.93 18.5 18.5 0 0 1 37 0 54.7 54.7 0 0 0 3.41 19.07 18.51 18.51 0 0 1-17.34 24.93z"/>
      <path fill="#fbbda4" d="M251.3 274.98a86.56 86.56 0 0 1-45.62-13.23c-18.85-11.67-33-30-38.8-50.3a15 15 0 1 1 28.8-8.25c9.13 31.88 42.74 46.56 68.39 40.26a15 15 0 0 1 7.15 29.13 83.48 83.48 0 0 1-19.92 2.39z"/>
      <path fill="#f9a58c" d="M250.04 275.36a84.73 84.73 0 0 1-50.24-16.89c-16.78-12.34-28.93-30-33.35-48.52a7.002 7.002 0 1 1 13.62-3.26c7.31 30.58 41 59.56 79.57 54a7.002 7.002 0 0 1 2 13.86 80.74 80.74 0 0 1-11.6.81z" opacity=".8"/>
      <path fill="#f9a58c" d="M194.79 200.88a15.01 15.01 0 0 0-27.11 12.9q.74 1.54 1.53 3.05c-.17-.35-.36-.7-.53-1.05a15.002 15.002 0 0 1 27.09-12.9z"/>
      <circle cx="273.45" cy="261.67" r="20.16" fill="#fbbda4"/>
      <ellipse cx="295.77" cy="293.32" fill="#ffcebd" rx="11.15" ry="8.33" transform="rotate(-20.87 181.43 334.944)" opacity=".9"/>
      <path fill="#c15240" d="M254.51 268.25c.95 3.73 4.23 7.2 4.23 7.2s-1.62-4.86-.51-8z" opacity=".4"/>
      <path fill="#292d30" d="M259.73 264.78c0-2.43-1.12-4.41-2.55-4.67v-.05h-6.45v9.45h6.45v-.05c1.43-.27 2.55-2.25 2.55-4.68z"/>
      <ellipse cx="250.42" cy="264.83" fill="#54575b" rx="2.87" ry="4.72"/>
      <path fill="#ff983a" d="M252.68 473.46a42.83 42.83 0 0 1-42-33.87c-4.17-20.15 2.39-43.76 24.8-58.13h-78l-3 92z"/>
      <path fill="#ff751c" d="M215.78 402.46a56.27 56.27 0 0 1 19.68-21h-78l-.68 21z"/>
      <path fill="#ffb15c" d="M215.68 452.46h-50l-1.14 21h88.14a43.12 43.12 0 0 1-37-21z"/>
      <path fill="#bf0000" d="M98.76 369.04l-16.2.34-15.88 8.6 18 2.09z"/>
      <path fill="#ef252c" d="M87.95 377.37l-24.16.55-.34 4-.16 12.54 4.76-.08z"/>
      <path fill="#ffbd39" d="M56.46 500.46c-32.19-65.92 2.69-130.93 71-138h66v19c-22.41 14.37-29 38-24.8 58.13a42.83 42.83 0 0 0 42.02 33.87h86.27c16.31-.14 29.47-11.15 29.47-27.47V318.98l25-.5v182z"/>
      <path fill="#d8a887" d="M60.46 363.04h88.74v-103a10 10 0 0 0-10-10H60.46z"/>
      <path fill="#f7e4bc" d="M139.19 250.07H60.46v10h78.74a10 10 0 0 1 10 10v-10a10 10 0 0 0-10.01-10z" opacity=".3"/>
      <path fill="#f7e4bc" d="M18.54 363.04h80.65v-103c0-5.52-4.81-10-10.75-10h-48.4c-17.81 0-32.25 13.43-32.25 30v73c0 5.52 4.81 10 10.75 10z"/>
      <path d="M7.79 283.42h141.48v1H7.79z" opacity=".2"/>
      <path fill="none" stroke="#aa7f63" stroke-width="4" stroke-miterlimit="10" d="M118.79 283.92h14.48" stroke-linecap="round"/>
      <path fill="#aa7f63" d="M98.46 380.98a2.5 2.5 0 0 1-2.5-2.5v-61.94a14.52 14.52 0 0 1 14.5-14.5h27.22a14.52 14.52 0 0 1 14.5 14.5v39.92a2.5 2.5 0 0 1-5 0v-39.92a9.51 9.51 0 0 0-9.5-9.5h-27.22a9.51 9.51 0 0 0-9.5 9.5v61.92a2.5 2.5 0 0 1-2.5 2.52z"/>
      <path fill="#fff" d="M100.19 379.72a1 1 0 0 1-1-1V314.8a13 13 0 0 1 13-13h27.26a13 13 0 0 1 13 13v42.92a1 1 0 0 1-2 0V314.8a11 11 0 0 0-11-11h-27.26a11 11 0 0 0-11 11v63.92a1 1 0 0 1-1 1z"/>
      <path fill="#ff983a" d="M311.68 300.79a14.36 14.36 0 0 1 14.22-16.33h-10c-8.72 0-16.49 8-14.22 16.33 22.44 52.16 31.34 107.24 29.87 164.54a26.86 26.86 0 0 1-26.87 26.13H52.46a88.9 88.9 0 0 0 4 9h251.76a33.31 33.31 0 0 0 33.3-32.23c1.85-58.35-6.97-114.4-29.84-167.44z"/>
      <path fill="#ffbd39" d="M355.93 500.46h-16.47c6.67-70-.74-136.93-27.73-199.67-2.27-8.33 5.51-16.33 14.22-16.33h58c6.5 0 11.5 5 14.22 12.38 19.79 47.49 29.91 94.14 31.51 140.14-49.95 0-73.75 63.48-73.75 63.48z"/>
      <path fill="#fff" d="M399.54 354.69a3 3 0 0 1-2.92-2.34 208.13 208.13 0 0 0-12.56-39.37 3 3 0 1 1 5.54-2.31 213.4 213.4 0 0 1 12.87 40.31 3 3 0 0 1-2.93 3.66z" opacity=".3"/>
      <path fill="#ff983a" d="M193.46 362.46h41.87a5.13 5.13 0 0 1 5.13 5.13v8.74a5.13 5.13 0 0 1-5.13 5.13h-41.87v-19z"/>
      <g opacity=".8">
          <path fill="#bf0000" d="M351.62 417.11l-5.48 2.87-2.55-24 6.09 1.7c2.1.76 4.82 1.57 5.09 4.1l1 9.07c.22 2.53.03 4.7-4.15 6.26z"/>
          <path fill="#ef252c" d="M346.14 419.98l-2.55-24s7.48 3.5 7.65 6.93l1 9.07c-.02 2.8-6.1 8-6.1 8z"/>
      </g>
      <g opacity=".8">
          <path fill="#bf0000" d="M421.94 411.73l-4.33 2.25-2-19 4.8 1.32c1.67.61 3.82 1.25 4 3.25l.77 7.19c.23 2.03.07 3.75-3.24 4.99z"/>
          <path fill="#ef252c" d="M417.61 413.98l-2-19s5.93 2.77 6.06 5.49l.77 7.19c-.02 2.21-4.83 6.32-4.83 6.32z"/>
      </g>
      <path fill="#ff983a" d="M415.05 429.46l-3.19-30.62c-1.63-12.89-11.37-18.38-17.12-18.38h-30.13c5.75 0 16.3 5.49 17.12 18.38l3.19 30.62z"/>
      <path fill="#292d30" d="M232.35 330.46h-57.9v32h57.9a12.1 12.1 0 0 0 12.1-12.1v-7.8a12.1 12.1 0 0 0-12.1-12.1z"/>
      <path fill="#54575b" d="M119.93 330.46h75.43a12.1 12.1 0 0 1 12.1 12.1v7.8a12.1 12.1 0 0 1-12.1 12.1h-71.13a16.4 16.4 0 0 1-16.4-16.4v-3.5a12.1 12.1 0 0 1 12.1-12.1z"/>
      <path fill="#6c7175" d="M155.46 362.46v-20c0-6.26 2.86-11.44 9-11.95-.33 0-.66-.05-1-.05h-6c-6.6 0-10 5.4-10 12v20z"/>
      <path fill="#292d30" d="M389.18 253.1a1.11 1.11 0 0 0-.23 0l-10.27.75c-1 .23-1.85 1.91-1.85 4s.81 3.76 1.85 4l10.27-.75a1.1 1.1 0 0 0 .23 0c1.15 0 2.08-1.8 2.08-4s-.93-4-2.08-4z"/>
      <path fill="#f78d37" d="M383.3 250.9h-.2l-25.42-1.09a19.32 19.32 0 0 0 0 19.4l25.46-5.08h.2c1.64 0 3-3 3-6.61s-1.4-6.62-3.04-6.62z"/>
      <path fill="#ffbd39" d="M377.1 261.92c0 17.33-8.53 31.38-19 31.38-19.24 0-47.35-15.11-47.35-32.44s28.11-30.31 47.35-30.31c10.47-.01 19 14.04 19 31.37z"/>
      <ellipse cx="358.06" cy="261.92" fill="#ff983a" rx="19.05" ry="31.37"/>
      <ellipse cx="359.12" cy="261.92" fill="#ff751c" rx="12.67" ry="21.8"/>
      <path fill="#cff6ff" d="M356.94 283.37c4.21.34 8.47-9.23 8.47-21.46 0-13.29-3.19-21.8-8.47-21.46-6 1.78-10.49 10.7-10.49 21.46s4.53 19.68 10.49 21.46z"/>
      <path fill="#ff983a" d="M296.81 270.28l29.75 2.22a3.29 3.29 0 0 0 2.83-1.21c4.07-5.17 4-12.73.38-18.47a3.38 3.38 0 0 0-3.34-1.58l-29.46 4.26z"/>
      <ellipse cx="297.72" cy="262.92" fill="#ffbd39" rx="4.6" ry="7.57"/>
      <path fill="#292d30" d="M296.39 258.81v-.05l-4.11-.13c1 2.35.9 5.07.68 7.76a16.54 16.54 0 0 1-.34 1.84h3.77v-.05c1.43-.26 2.55-2.24 2.55-4.67s-1.12-4.43-2.55-4.7z"/>
      <path fill="#ff983a" d="M92.46 401.5c35.35 0 64 24.07 64 53.76v31.58c0 7.49-7.23 13.57-16.15 13.57h-122c-8.92 0-16.15-6.08-16.15-13.57v-9.45c-.05-41.91 40.4-75.89 90.3-75.89z"/>
      <path fill="#ff751c" d="M88.63 491.57v8.85h52.3c6.67 0 12.35-3.69 14.54-8.85z"/>
      <path fill="#ffbd39" d="M77.26 401.5h6.68a47.05 47.05 0 0 1 47 47.08v38.27a13.56 13.56 0 0 1-13.55 13.57H15.01a13.56 13.56 0 0 1-13.55-13.57v-9.45a75.85 75.85 0 0 1 75.8-75.9z"/>
      <rect width="61.61" height="8.49" x="35.15" y="456.38" fill="#ff983a" rx="4.24" ry="4.24"/>
      <rect width="61.61" height="8.49" x="35.15" y="469.96" fill="#ff983a" rx="4.24" ry="4.24"/>
      <path fill="#fff" d="M44.63 428.68a3 3 0 0 1-2-5.27c12.78-11 31.18-11.85 42.76-7a3 3 0 1 1-2.32 5.53c-9.63-4-25.7-3.3-36.52 6a3 3 0 0 1-1.92.74z" opacity=".3"/>
      <path fill="#ff983a" d="M488.08 452.38c-12-23.69-29.57-38-61-37.91a132.42 132.42 0 0 0-13.4.72s-29.85 24.67-43.63 54.53h109.24c7.88-.05 12.68-9.64 8.79-17.34z"/>
      <path fill="#ffbd48" d="M405.4 468.98h60.23c7.93 0 12.8-9.47 8.86-17.08-12.13-23.4-35.41-38.83-61.85-37.44-34.21 1.8-62.05 32.21-64.05 70a83.14 83.14 0 0 0 .25 12.29c.84 8.77 10.85 12.09 16 5.31l14.82-19.68c6.31-8.46 15.76-13.4 25.74-13.4z"/>
      <path fill="#fff" d="M436.22 436.98a3 3 0 0 1-1.67-.51c-8.68-5.81-24.59-8.17-37-1.11a3.006 3.006 0 0 1-3-5.21c14.66-8.34 32.88-5.64 43.31 1.34a3 3 0 0 1-1.67 5.49z" opacity=".3"/>
      <path fill="#0071bc" d="M274.35 472.75a21.5 21.5 0 0 1-21.43-20.1l-7.61-116.27-59.86-2.4a21.518 21.518 0 0 1 1.75-43l79.18 3.23a21.5 21.5 0 0 1 20.58 20.08l8.88 135.56a21.5 21.5 0 0 1-20 22.86q-.78.04-1.49.04z"/>
      <path fill="#076599" d="M176.13 294.08l-.13-1.49c-.08-1-.14-2-.18-3.07l-.05-1.5 3-.11.05 1.5c0 1 .09 2 .17 2.92l.13 1.5zm93.21 158.32l-.5-9.12 3-.17.5 9.12zm-.66-12.24l-.5-9.12 3-.17.5 9.11zm-.67-12.25l-.5-9.12 3-.17.5 9.12zm-.67-12.24l-.5-9.12 3-.17.5 9.12zm-.66-12.24l-.5-9.12 3-.17.5 9.12zm-.67-12.25l-.5-9.12 3-.17.5 9.12zm-.71-12.2l-.5-9.12 3-.17.5 9.12zm-.67-12.24l-.5-9.12 3-.17.5 9.12zm-.67-12.25l-.5-9.12 3-.17.5 9.12zm-.67-12.24l-.5-9.12 3-.17.5 9.12zm-.69-12.27l-.41-7.35a1.54 1.54 0 0 1 0-.35v-.13l.13-1.5 3 .25-.13 1.49v.21l.4 7.19zm-1.51-10.81l-1.14-1a8.18 8.18 0 0 0-3.31-1.72h-2.8v-3h3a3 3 0 0 1 .33 0 11.18 11.18 0 0 1 4.75 2.4l1.14 1zm-68.57-2.48v-3h9.13v3zm12.26 0v-3h9.13v3zm12.26 0v-3h9.13v3zm12.26 0v-3h9.13v3zm12.26 0v-3h9.13v3zm-52.76-1.07l-1.31-.73a18.83 18.83 0 0 1-5.15-4.17l-1-1.13 2.27-2 1 1.13a15.87 15.87 0 0 0 4.33 3.51l1.31.73zm-9.27-9.12l-.61-1.37a33.47 33.47 0 0 1-2-6.09l-.33-1.46 2.93-.66.33 1.46a30.05 30.05 0 0 0 1.81 5.55l.6 1.37zm89.95 149.07l2.995-.164.327 5.99-2.995.165z" opacity=".8"/>
      <path fill="#006aa5" d="M259.87 465.44a7.5 7.5 0 0 1-7.48-7.08l-7-123.36-64.48-1.66a7.48 7.48 0 0 1-1.93-.3c-7.12-2.1-12.84-11.85-15.62-17.47-2.17-4.41-7.05-15.61-5.43-24.47a7.5 7.5 0 1 1 14.75 2.71c-1.12 6.1 6.26 21.07 10.41 24.59l69.59 1.79a7.5 7.5 0 0 1 7.3 7.07l7.38 130.25a7.5 7.5 0 0 1-7.06 7.91zm-76.19-146.58z"/>
      <ellipse cx="294.93" cy="349.01" fill="#fff" rx="9.93" ry="8.72" transform="rotate(-12.78 113.918 429.515)" opacity=".1"/>
      <path fill="#164a6d" d="M319.62 463.74c2.68 2.29 4.29 2.6 4.3 6.73s-1.69 8.17-4.36 10.39c-2.95 2.46-6.68 2.63-10.2 2.63-6.45 0-19.26-1.18-25.38-3.9-3.23-1.44-6.32-3.54-9.67-4.38-3.51-.88-9.08-.29-12.65-.52-4.3-.28-5.5 1.34-8.25-3-1.85-2.88-2.83-40.14-2.48-42.85 9.94 5.37 21.22 3 27.62 2.85a5.37 5.37 0 0 1 4.84 3.94v2h7.46l.35-2c.67-1.78 2.35-3.94 4.26-3.95l.25 3 1 10.29c.14 10.16 7.19 13.28 13.66 16.36z"/>
      <path fill="#1c3547" d="M308.08 471.7c-16.73-3.9-24.4-14.3-24.79-33.72l7.87-.17c.34 15.81 5.58 23.17 18.71 26.23z"/>
      <path fill="#fff" d="M282.93 442.98a.63.63 0 0 1 0-1.26l9.42-.16a.63.63 0 0 1 0 1.26l-9.42.16zm.91 4.61a.63.63 0 0 1-.06-1.25l9.4-.92a.64.64 0 0 1 .69.56.63.63 0 0 1-.56.69l-9.4.92zm1.03 5.09a.63.63 0 0 1-.1-1.25l9.53-1.62a.63.63 0 0 1 .21 1.24l-9.53 1.62zm1.92 5.22a.63.63 0 0 1-.2-1.23l9.57-3.16a.63.63 0 1 1 .39 1.19l-9.57 3.16a.6.6 0 0 1-.19.04zm3.26 4.46a.63.63 0 0 1-.31-1.18l8.76-4.9a.63.63 0 0 1 .61 1.1l-8.76 4.9a.62.62 0 0 1-.3.08zm3.96 4.31a.63.63 0 0 1-.42-1.1l7.19-6.4a.63.63 0 1 1 .84.94l-7.19 6.4a.63.63 0 0 1-.42.16z"/>
      <ellipse cx="288.66" cy="488.49" fill="#1c3547" rx="7.42" ry="8.69" transform="rotate(-1.34 -1346.992 1425.325)"/>
      <path fill="#d64343" d="M266.06 444.3l1.59 3.54 3.39.5-2.38 2.84.67 3.92-3.06-1.79-2.97 1.93.49-3.95-2.51-2.73 3.36-.65 1.42-3.61" opacity=".5"/>
      <path fill="#2b546d" d="M251.54 456.23c.35 7.55.91 14.67 1.69 15.89a6.08 6.08 0 0 0 5.68 2.61h.47l-1.05-8.13c-.11-4.5-3.18-7.77-6.79-10.36"/>
      <path fill="#fff" d="M325.39 468.55c-2.49-5.14-7-6.87-14-5.88s-11.26 7.66-12.41 13.35a3.85 3.85 0 0 0 .39 2.74c-5.79-.58-11.9-1.56-15.16-3-1-.47-2.08-1-3.18-1.58a31.66 31.66 0 0 0-6.9-2.94 35.11 35.11 0 0 0-6.62-.52c-4.48-.12-10-.27-14.32-1.78a2.36 2.36 0 0 0-.66-.12v.84a5.27 5.27 0 0 0 4.43 5.08 80.68 80.68 0 0 0 10.4.76 35.8 35.8 0 0 1 5.58.38 27.77 27.77 0 0 1 5.85 2.54c1.11.58 2.26 1.19 3.45 1.71 6.84 3 22.34 4.07 28.36 4.07h1.46c3.11-.07 6.28-.47 9.1-2.29 6.73-2.98 5.73-10.25 4.23-13.36z"/>
  </g>
</svg>
