<svg id="Layer_1" xmlns="http://www.w3.org/2000/svg" viewBox="0 0 5481.4 280.9"><style>.st0{fill:#9E4000;} .st1{fill:#AB4500;}</style><path class="st0" d="M1336.2 145.5l-88.1-14.8h-79.7L1058.1 146l-42.7-9.7-66.7-12.1-77.9-16.7-68.5-29.6L741.6.6V0l-.3.3-.2-.3v.6l-60.7 77.3-68.6 29.6-77.9 16.7-66.7 12.1-42.7 9.7-110.3-15.3H234.5l-88 14.8L0 161.3v119.6h1371.4V149.3z"/><path class="st1" d="M991.5 130.5l-120.7-23-68.5-29.6-61 50.8-60.9-50.8-68.6 29.6-120.7 23-66.6 15.5 217.9 60.7 43.5-8.3 55.4-3.7 55.4 3.7 43.6 8.3 217.8-60.7z"/><path class="st0" d="M849.5 104.8l-17.9 3.1-90.3 32.4-90.3-32.4-17.9-3.1-15.3.6 6.7 4.6 8.6 3 84 83.3 24.2-1.6 24.2 1.6 84-83.3 8.7-3 6.6-4.6zM1405.2 145.5l88.1-14.8h79.7l110.3 15.3 42.6-9.7 66.8-12.1 77.8-16.7 68.6-29.6L1999.8.6V0l.2.3.3-.3v.6l60.7 77.3 68.6 29.6 77.8 16.7 66.8 12.1 42.6 9.7 110.3-15.3h79.7l88.1 14.8 146.5 15.8v119.6H1370V149.3z"/><path class="st1" d="M1750.8 130.5l120.7-23 68.6-29.6 60.9 50.8 61-50.8 68.6 29.6 120.7 23 66.5 15.5-217.8 60.7-43.6-8.3-55.4-3.7-55.3 3.7-43.6 8.3-217.8-60.7z"/><path class="st0" d="M1892.9 104.8l17.9 3.1 90.2 32.4 90.3-32.4 17.9-3.1 15.3.6-6.6 4.6-8.7 3-83.9 83.3-24.3-1.6-24.2 1.6-83.9-83.3-8.7-3-6.6-4.6z"/><g><path class="st0" d="M4145.2 145.5l88.1-14.8h79.7l110.3 15.3 42.6-9.7 66.8-12.1 77.8-16.7 68.6-29.6L4739.8.6V0l.2.3.3-.3v.6l60.7 77.3 68.6 29.6 77.8 16.7 66.8 12.1 42.6 9.7 110.3-15.3h79.7l88.1 14.8 146.5 15.8v119.6H4110V149.3z"/><path class="st1" d="M4489.8 130.5l120.7-23 68.6-29.6 60.9 50.8 61-50.8 68.6 29.6 120.7 23 66.5 15.5-217.8 60.7-43.6-8.3-55.4-3.7-55.3 3.7-43.6 8.3-217.8-60.7z"/><path class="st0" d="M4631.9 104.8l17.9 3.1 90.2 32.4 90.3-32.4 17.9-3.1 15.3.6-6.6 4.6-8.7 3-83.9 83.3-24.3-1.6-24.2 1.6-83.9-83.3-8.7-3-6.6-4.6zM4076.2 145.5l-88.1-14.8h-79.7L3798.1 146l-42.7-9.7-66.7-12.1-77.9-16.7-68.5-29.6L3481.6.6V0l-.3.3-.2-.3v.6l-60.7 77.3-68.6 29.6-77.9 16.7-66.7 12.1-42.7 9.7-110.3-15.3H2974.5l-88 14.8-146.5 15.8v119.6h1371.4V149.3z"/><path class="st1" d="M3730.5 130.5l-120.7-23-68.5-29.6-61 50.8-60.9-50.8-68.6 29.6-120.7 23-66.6 15.5 217.9 60.7 43.5-8.3 55.4-3.7 55.4 3.7 43.6 8.3 217.8-60.7z"/><path class="st0" d="M3588.5 104.8l-17.9 3.1-90.3 32.4-90.3-32.4-17.9-3.1-15.3.6 6.7 4.6 8.6 3 84 83.3 24.2-1.6 24.2 1.6 84-83.3 8.7-3 6.6-4.6z"/></g></svg>