<svg id="Layer_1" xmlns="http://www.w3.org/2000/svg" viewBox="0 0 488 518">
  <style>
    .st0{opacity:0.2;} .st1{fill:#E5C08F;} .st2{fill:#F1D4A5;} .st3{fill:#E4B16B;} .st4{fill:#DDB577;} .st5{fill:#D6A566;} .st6{fill:#DAB272;} .st7{fill:#DDAA60;} .st8{fill:#DBA25D;} .st9{fill:#77360A;} .st10{opacity:0.3;} .st11{fill:none;stroke:#602700;stroke-width:8;stroke-miterlimit:10;} .st12{fill:#602700;} .st13{fill:#F3AE17;} .st14{fill:#FAB218;} .st15{fill:#E36E0E;} .st16{opacity:0.16;fill:#FFFFFF;}
  </style>
  <path class="st0" d="M488 251.1c.1-129.8-109.1-235-243.9-235.1C109.3 15.9.1 121.1 0 250.9c0 106.9 74.1 197.2 175.5 225.7 0 0 7.4 1.3 7.4 7v25H178c-2.3 0-4.3 1.6-4.8 3.7-.1.3-.1.6-.1.9 0 1 .3 1.9.8 2.6.9 1.2 2.4 2.1 4 2.1h131.8c2.7 0 4.9-2.1 4.9-4.7s-2.2-4.7-4.9-4.7h-4.9v-25c0-5.7 7.4-7 7.4-7C413.8 448.3 488 358.1 488 251.1z"/>
  <circle class="st1" cx="244.5" cy="238.6" r="233.7"/>
  <path class="st2" d="M242.1 274.5c-11.2 0-19 1.3-18.9 3.6.1 3.1 14.9 6.7 33.1 8.2 5.2.4 10.1.6 14.4.6 10.9 0 18.4-1.3 18.2-3.5-.1-3.1-15.1-6.9-33.3-8.3-4.7-.4-9.3-.6-13.5-.6m75.9 24.4c-10.1 0-21.4-.5-33.3-1.6-42.8-3.8-77.7-13-78-21.2-.3-6.2 19.4-10.1 47.7-10.1 8.9 0 18.6.4 28.9 1.2 43.2 3.4 78.8 13.5 79.2 22 .1 6.3-18.1 9.7-44.5 9.7m-57.2-38.7c-34.1 0-68.3 4.4-101.9 10.4-22.4 4.2-27.9 9.5-21.5 12 2.7 1 8 1.3 14.1 1.3 3.7 0 7.6-.1 11.5-.2 3.8-.1 7.5-.2 10.6-.2h2.7c10.7.3 5.3 9.2 2.8 12.9-2.4 3.7 6.8 5.2 14.9 7.3 8.1 2.2 22.6 4.2 35.5 7.8 6.2 1.8 21.7 3.2 45.2 3.2 4.7 0 9.7-.1 15-.2 32.2-.7 128.8-6.1 116.1-20.3-12.6-14.2-56.8-23.5-101.7-31.4-14.4-1.8-28.8-2.6-43.3-2.6"/>
  <path class="st3" d="M270.8 286.9c-4.4 0-9.3-.2-14.4-.6-18.1-1.5-32.9-5.1-33.1-8.2-.1-2.2 7.6-3.6 18.9-3.6 4.1 0 8.8.2 13.6.6 18.2 1.4 33.1 5.2 33.3 8.3 0 2.2-7.4 3.5-18.3 3.5m-16.5-20.8c-28.3 0-48 3.9-47.7 10.1.4 8.2 35.2 17.5 78 21.2 11.9 1 23.2 1.6 33.3 1.6 26.5 0 44.7-3.5 44.4-9.7-.4-8.6-36-18.6-79.2-22-10.2-.9-19.9-1.2-28.8-1.2"/>
  <path class="st4" d="M416.1 263.9c-1 0 2.6 1 9.3 2.6-4.6-1.6-7.8-2.5-9.3-2.6"/>
  <path class="st5" d="M323.7 126.7c4.7 1.5 9.4 3.1 14.1 4.6 14.4 3.3 29 5.1 43.6 5.9-19.1-3.9-38.4-7.4-57.7-10.5"/>
  <path class="st6" d="M178.5 336c35.6 3.2 71.1 7.1 106.6 11.2 9.7.5 19.4.9 29 1.5-37.5-4-76-8.6-115-12.5-6.8 0-13.7-.1-20.6-.2"/>
  <path class="st2" d="M322.7 18.4c-2.6.1-5.1.3-7.6.4-38.5 9-77.6 13.8-115.1 14.6-47.5-.5-40.9-3.6-40.9-3.6s18.3-5.5 31-9.1c-9.8 0-19.6-.1-29.4-.2-14.6 5.5-28.4 12.5-41.4 20.8 13.1.4 26.2.7 39.2.7 21.8 0 43.5-.6 65.2-1.5 37.2-2.4 74.5-8.5 111.5-17.3-4.1-1.7-8.2-3.4-12.5-4.8z"/>
  <path class="st3" d="M425.9 91.3c-3.1-.4-6.4-.6-9.8-.7-2.3-.1-4.5-.2-6.6-.2-10 0-17.5 1.4-24.1 2.9-6.5 1.4-12 2.9-17.8 2.9-9 0-18.8-3.5-34.4-15.9-13.8-15.9 21.3-19.9 45.9-19.9 6.5 0 12.3.3 16.2.7.4 0 .7 0 1.1.1-8.9-7.6-18.3-14.5-28.2-20.7-29.2.9-58.4 2.9-87.1 7.6-61.3 13-123.7 20.7-186 20.7-3.7 0-7.3 0-11-.1-4 3.8-7.8 7.7-11.6 11.7h9.4c5.8 0 11.6 0 17.2-.1 5.3-.4 10.9-.6 16.7-.6 24.8 0 54 3.3 81.4 8.6 42.4 9.8 84.3 24.7 126.3 38.5 19.3 3.1 38.6 6.6 57.7 10.5 5.8.3 11.6.4 17.4.4 18.4 0 36.8-1.4 55-3.2-7.5-15.5-16.9-29.9-27.7-43.2z"/>
  <path class="st2" d="M463.5 161.8c-.6-1.7-1.3-3.4-2-5.2-13.1-1-26-2.6-38.8-5.2-13.7-3.4-27.4-6.5-41.3-9.3-14.6-.8-29.2-2.6-43.6-5.9-4.7-1.5-9.4-3-14.1-4.6-51.7-8.4-103.8-14.5-155.3-21.8-26.4-3.3-76.9-9.1-107.4-11-1.5 2-3.1 3.9-4.5 5.9 45.9 5.8 152.3 9.1 126 20.4C147 136.6 97.1 141 52.7 141c-6.2 0-12.3-.1-18.2-.3-2.3 4.6-4.4 9.4-6.4 14.2 8.4.3 16.9.5 25.4.5 44.1 0 89.1-4.5 130.4-18.1 11.8-6 20.2-9.7 36.6-9.7 13 0 31 2.3 59.7 7.7 60.5 11.3 121.9 21.4 183.3 26.5z"/>
  <path class="st3" d="M453.4 235.1c8.2-.3 16.5-.6 24.7-.9-.2-12.6-1.4-24.9-3.6-36.9-10.1.8-20.1 1.6-30.2 2.5-27.7 2.6-50.8 4-70.7 4-24.3 0-43.8-2.1-60.9-6.7-6.9-13.4-38.1-16.7-78.4-16.7-19.4 0-41 .8-63 1.5-22 .8-44.4 1.5-65.5 1.5-20.3 0-39.4-.7-55.9-2.8l-31.3-2.1c-1.1 4.1-2.1 8.2-2.9 12.3 13.1-.6 25.7-1 37.4-1 11.6 0 22.2.4 31.6 1.3 7.8.9 16 1.3 24.6 1.3 9 0 18.3-.4 27.6-.7 9.3-.4 18.6-.7 27.6-.7 25.4 0 48.6 2.8 63.4 16.1-37.6 4.8-68.3 6.5-100.6 6.5-30.8 0-63-1.6-104-3.5-3.7.3-7.3.6-11 .9-.6 4.9-1 9.8-1.3 14.8 44.7-1.9 89.4-2.3 134-3.1h6.3c57.2 0 79.1-12.2 138.9-13.1 41.7.6 113.8 14.6 163.2 25.5z"/>
  <path class="st1" d="M478.2 237.2c-5.3 0-10.7-.1-16-.1 4.7 1.1 9.1 2.1 13.2 3l2.7.9v-2.3c.1-.6.1-1 .1-1.5z"/>
  <path class="st2" d="M425.4 266.6c10.1 3.6 27.2 10.7 48 19.4.5-2.3.9-4.6 1.3-6.9-19.7-5.3-38.4-9.8-49.3-12.5zM178.5 336c6.9.1 13.7.2 20.6.2C142.4 330.5 84.7 326 27.7 326c1.7 4.3 3.6 8.6 5.6 12.7 12 0 24 .3 35.9.9 72 3.4 144 4.3 216 7.7-35.5-4.2-71.1-8-106.7-11.3z"/>
  <path class="st7" d="M28.1 327c58.4-5 117.2-6.9 175.3-6.9h2.2c-60.5-1.4-120.9-1.4-181.4-3.2 1.2 3.4 2.5 6.7 3.9 10.1z"/>
  <path class="st1" d="M52.6 372c1.4 1.9 2.7 3.9 4.1 5.8.4-.1.9-.1 1.3-.2 57.3-6.6 84.7-11.7 84.7-11.7-30 1.5-60.1 3.7-90.1 6.1z"/>
  <path class="st3" d="M351.9 384.4c-36-2.5-72.2-3.8-108.5-3.8-58.8 0-117.6 3.4-176.1 10.5 2.6 3.1 5.4 6.1 8.1 9 38.5-2.4 77.9-3.9 117.6-3.9 69 0 138.9 4.6 206.4 17.4 7-6.2 13.7-12.9 19.9-19.9-22.3-3.7-44.8-6.7-67.4-9.3z"/>
  <path class="st8" d="M242.7 432.9s28 7.1 87.8 19.5c1.9.4 3.9.9 5.8 1.3 3.4-1.4 6.7-2.9 10-4.5-34.5-6.3-69-11.9-103.6-16.3z"/>
  <path class="st2" d="M135.7 445.5c11 1.9 22 4.2 32.8 6.9 1.3.1 2.5.1 3.8.2 22.4 0 44.7.4 67.1 1-41.9-10.8-84.3-18.5-126.7-22 7.3 5.1 15 9.7 23 13.9z"/>
  <circle class="st9" cx="243" cy="248.3" r="146"/>
  <path class="st10" d="M335.3 224c.6-5.9.9-11.6 1.1-17h9.4c4.7 0 8.6-3.9 8.6-8.7 0-4.8-3.8-8.7-8.6-8.7H140.4c-3.7.4-6.8 3.2-7.5 6.9-.1.6-.2 1.2-.2 1.8s.1 1.2.2 1.8c.7 3.7 3.8 6.5 7.5 6.9h10.3c.1 2.7.2 5.4.4 8.2v.4l.3 3.9v.3c.1 1.4.2 2.8.4 4.2h-33.6V236.4c0 .4 0 .7.1 1.1v.6c0 .4.1.8.1 1.2v.6c0 .4.1.8.1 1.2 0 .2 0 .4.1.7 0 .4.1.8.1 1.3 0 .2 0 .5.1.7 0 .4.1.9.1 1.3 0 .2.1.5.1.7.1.5.1.9.2 1.4 0 .2.1.4.1.7.1.5.1 1 .2 1.5 0 .2.1.4.1.7.1.5.2 1.1.2 1.6 0 .2.1.4.1.6.1.6.2 1.1.3 1.7 0 .2.1.4.1.6l.3 1.8c0 .2.1.4.1.5.1.6.2 1.3.4 1.9 0 .1.1.3.1.4.1.7.3 1.4.4 2.1 0 .1 0 .2.1.3.2.8.3 1.5.5 2.3 1.6 6.8 3.8 14.2 6.7 21.9v.1c.3.9.7 1.7 1 2.6 0 .1.1.2.1.3.3.8.7 1.6 1 2.5.1.2.1.3.2.5.3.8.7 1.6 1.1 2.4l.3.6c.4.8.7 1.5 1.1 2.3.1.2.2.5.3.7.4.8.7 1.5 1.1 2.3.1.3.3.5.4.8.4.7.8 1.5 1.2 2.2.1.3.3.5.4.8.4.7.8 1.5 1.2 2.2.2.3.3.6.5.8.4.7.8 1.4 1.3 2.2.2.3.3.6.5.9.4.7.9 1.4 1.3 2.1l.6.9c.5.7.9 1.4 1.4 2.1l.6.9c.5.7 1 1.4 1.4 2.1l.6.9 1.5 2.1c.2.3.5.6.7.9.5.7 1 1.4 1.6 2.1.2.3.5.6.7.9.5.7 1.1 1.4 1.7 2.1.2.3.5.6.7.9.6.7 1.1 1.4 1.7 2.1.3.3.5.6.8.9l1.8 2.1c.3.3.5.6.8.9.6.7 1.3 1.4 1.9 2.1.3.3.5.6.8.8.7.7 1.3 1.4 2 2.1l.8.8 2.1 2.1.8.8c.7.7 1.5 1.4 2.3 2.1.3.2.5.5.8.7l2.4 2.1c.2.2.5.4.7.6.9.7 1.7 1.5 2.6 2.2.2.2.4.3.6.5 1 .8 1.9 1.5 2.9 2.3.1.1.2.2.3.2 6.9 5.3 14.6 10.3 23.2 14.9.7.8 1.3 1.5 2 2.3l.1.1c.7.7 1.3 1.4 2 2.1l.1.1c.7.7 1.4 1.4 2.1 2l.1.1c.7.7 1.4 1.3 2.1 2 2.9 2.6 5.8 4.8 8.9 6.7-.5 1.6-.8 3.4-.9 5.1v.3c0 .6-.1 1.1-.1 1.7V392.6c0 .3.1.7.1 1 0 .1 0 .3.1.4 0 .3.1.7.1 1 0 .1 0 .3.1.4.1.4.1.7.2 1.1v.2c1.3 5.6 4.5 10.4 8.9 13.8-.3 2.5-.9 5.6-2 9.1v.1c-.3 1-.6 2-1 3 0 .1 0 .1-.1.2-.2.4-.3.9-.5 1.4 0 .1-.1.1-.1.2l-.6 1.5c0 .1 0 .1-.1.2-.2.4-.4.9-.6 1.4-.1.1-.1.2-.2.4-.2.5-.4 1-.7 1.5-.2.5-.5 1-.7 1.5-.1.1-.1.3-.2.5-.2.4-.4.8-.6 1.3-.1.1-.1.2-.2.4-.3.5-.6 1-.8 1.6-.1.2-.2.3-.3.5-.2.4-.5.8-.7 1.2-.1.2-.2.3-.3.5-.3.5-.6 1.1-1 1.6-.1.1-.2.2-.2.4-.3.4-.6.9-.9 1.3-.1.2-.2.4-.4.6-.3.5-.6.9-.9 1.4-.1.1-.1.2-.2.3-.4.5-.8 1.1-1.2 1.6-.1.2-.3.4-.4.5-.3.4-.6.8-1 1.3-.1.2-.3.3-.4.5-.4.5-.9 1.1-1.4 1.6-.1.2-.3.3-.4.5-.4.4-.7.9-1.1 1.3-.2.2-.3.4-.5.5-.5.6-1 1.1-1.6 1.7-.1.1-.1.2-.2.2l-1.5 1.5-.5.5c-.5.5-1 .9-1.5 1.4l-.3.3c-.6.6-1.2 1.1-1.9 1.7-.2.2-.3.3-.5.4-.5.5-1 .9-1.6 1.3-.2.1-.3.3-.5.4-.7.6-1.4 1.1-2.1 1.7-.1.1-.3.2-.4.3-.6.5-1.2.9-1.8 1.4-.2.1-.4.3-.6.4-.8.6-1.5 1.1-2.3 1.7h-16.5c-1.7 0-3.2.9-4.1 2.2-.1.2-.3.4-.4.6 22.9 7.5 47.4 11.5 72.8 11.5 25.1 0 49.2-3.9 71.9-11.2-.7-1.8-2.5-3.2-4.6-3.2h-16.5c-28.2-19.8-35.1-42.8-36.7-54.5 5.8-4.5 9.6-11.6 9.6-19.6 0-2.5-.4-4.9-1-7.1 6.1-3.8 11.9-9 17.3-15.4 92.6-50.2 84.9-144 84.9-144h-33z"/>
  <circle class="st11" cx="244" cy="239" r="235"/>
  <g>
    <path class="st12" d="M185.3 447.1h117.5v51.2H185.3z"/>
    <path class="st13" d="M257.2 380.6h-26.5s2.4 31.5-34.8 57.2h96c-37.1-25.7-34.7-57.2-34.7-57.2z"/>
    <circle class="st14" cx="244" cy="369.6" r="22.7"/>
    <path class="st14" d="M177.2 216.3h-50.6s-7.7 92.3 88.6 137.1v-10.1s-67.3-35.8-73.7-102.4h41.3l-5.6-24.6zM310.8 216.3h50.6s7.7 92.3-88.6 137.1v-10.1s67.3-35.8 73.7-102.4h-41.3l5.6-24.6z"/>
    <path class="st13" d="M244 194.6h-87.1c0 65.4 35 174.9 87.1 174.9 52 0 87.1-109.6 87.1-174.9H244z"/>
    <path class="st14" d="M347.8 192.6c0 4.4-3.6 8-8 8H148.3c-4.4 0-8-3.6-8-8s3.6-8 8-8h191.5c4.4 0 8 3.5 8 8z"/>
    <path class="st15" d="M168.2 269.9h151.6c1.7-6.1 3.2-12.3 4.5-18.4H163.6c1.4 6.1 2.9 12.3 4.6 18.4z"/>
    <path class="st13" d="M312.1 442.5c0 2.6-2.1 4.7-4.7 4.7H180.5c-2.6 0-4.7-2.1-4.7-4.7s2.1-4.7 4.7-4.7h126.9c2.7 0 4.7 2.1 4.7 4.7zM312.1 501.3c0 2.6-2.1 4.7-4.7 4.7H180.5c-2.6 0-4.7-2.1-4.7-4.7s2.1-4.7 4.7-4.7h126.9c2.7 0 4.7 2.1 4.7 4.7zM280.7 481.6c0 4.1-3.4 7.5-7.5 7.5h-58.4c-4.1 0-7.5-3.4-7.5-7.5v-19.5c0-4.1 3.4-7.5 7.5-7.5h58.4c4.1 0 7.5 3.4 7.5 7.5v19.5z"/>
    <path class="st16" d="M244 184.6h-95.7c-4.4 0-8 3.6-8 8s3.6 8 8 8h8.8c.2 5 .5 10.3 1 15.7h-31.4s-7.2 86.4 79.5 132.6c5.1 5.8 10.5 10.6 16.2 14.2-.6 2.1-1 4.3-1 6.6 0 7.4 3.5 13.9 9 18-1.5 10.7-7.9 31.9-34.4 50.2h-15.4c-2.6 0-4.7 2.1-4.7 4.7s2.1 4.7 4.7 4.7h4.7v49.5h-4.7c-2.6 0-4.7 2.1-4.7 4.7s2.1 4.7 4.7 4.7H244V184.6zm-102.6 56.2h20.1c.6 3.5 1.4 7.1 2.1 10.7 1.3 6.1 2.8 12.3 4.5 18.4 5.5 19.9 13 39.4 22 55.7-19.8-16.8-44.8-45.4-48.7-84.8z"/>
  </g>
  <g>
    <path class="st12" d="M170.7 106.1L160.8 90c-1-1.6-2.8-3.8-5.4-6.6-2.5-2.8-4.4-5.2-5.7-7.1-1.2-1.9-3.1-4-5.5-6.3s-4.7-4.3-7-6c-5.8-4.4-10-8.6-12.7-12.6-.3-.4-.2-.9 0-1.5.3-.6.7-1 1.2-1.4.5-.3 1.5-.1 2.8.8 1.4.9 2.9 2.1 4.7 3.8 1.7 1.6 3.4 3.3 5.1 5 1.7 1.7 3.3 3.3 4.8 4.9 1.5 1.6 2.5 2.6 3.1 3.1-.2-.5-.8-1.8-1.8-3.7-1-1.9-2-3.9-3.1-5.9-1-2.1-2-4.2-2.9-6.3-2.1-4.9-2.5-7.8-1-8.7 1.5-.9 2.4-1.1 2.8-.5 2 3.1 4.3 8.1 6.9 15 2.6 6.9 5 12 7 15.1l1.6 3 .8 1.2L171 96.8l2.9 3.9 1.2 1.8c.5.7.6 1.5.3 2.3-.3.8-.7 1.4-1.4 1.8-.6.4-1.3.6-2 .4-.5 0-1-.4-1.3-.9zM168.9 73.4l-1.3-3.5c-.1-.3-.2-.4-.3-.4l-.7-1.6c-3.9-9.5-6.2-16.4-6.8-20.8-.5-3.8-.5-6.2 0-7.4.5-1.1 1.2-1.9 2-2.2 7-2.9 13.3-1.4 18.8 4.6 3.2 3.4 6.1 8.1 8.5 14l.3.7 4.4 10.1c7.2 17.3 6.8 27.6-1.2 30.9-3.3 1.4-6.6.6-9.9-2.3-3.1-2.8-5.6-5.9-7.4-9.1-2.7-5-4.9-9.3-6.4-13zm.2-14.6l3 8.5c3.6 8.7 7.5 16 11.6 21.9 3.1 3.2 5.4 4.8 7.1 4.9 1.1-.5 1.9-1.3 2.4-2.5s.7-2.7.6-4.4c-.1-1.7-.3-3.4-.7-5.2-.3-1.7-.8-3.6-1.4-5.5-1-3.3-2-6.1-3-8.4-.9-2.3-2.6-5.6-4.9-10.1-2.3-4.5-4-7.9-4.9-10.2l-.7-1.6c-1-2.2-2.5-3.8-4.6-5-2.1-1.1-4.2-1.3-6.4-.4-2.1.9-2.9 2.6-2.6 5.2.2 2.2 1 4.7 2.2 7.5l2.3 5.3zM221.7 43.3l.4 1.6c5.3 28.4 3.8 43.4-4.5 44.9-3.2.6-5.8-.2-7.8-2.6-2.1-2.4-3.6-4.9-4.4-7.5-1.3-4-2.5-8.6-3.5-13.9-1.1-5.3-2.5-12.9-4.4-22.9l-3-13.7c.3-1.5.9-2.3 1.7-2.4.8-.1 1.6.3 2.4 1.4.8 1.1 1.3 2.2 1.6 3.6l4.8 26.1c.4 2.3 1.3 5.6 2.6 10s2.1 7.8 2.6 10c.9 4.7 3.3 6.7 7.4 5.9 4.6-.8 3.7-18.5-2.7-52.9l-1-5.4-.3-1.6c-.1-.8-.1-1.3.2-1.8.3-.4.8-.7 1.7-.9.9-.2 1.5-.1 2 .1s.8.5 1.1 1c.4.7.7 1.7 1 3l1.1 9.8 1 8.2zM291.7 28.8c.3-1.6 1.4-2.2 3.2-1.8 1.8.4 2.5 1.3 2.2 2.8-.4 2-.8 3.3-1 3.9l-.1.5c-1.4 2.5-2.4 5.3-3.1 8.5l-1.4 7c-.8 4-2.5 9.9-5.1 17.7-2.6 7.8-4.3 13.5-5 17.1-1.3 6.5-3.2 9.5-5.7 9-1.8-.4-2.5-1.9-1.9-4.6.6-2.7 1-5.5 1.4-8.3.4-2.8.7-5.9.9-9.3.3-3.4.4-6.2.6-8.5.1-2.2.3-5.4.5-9.6.2-4.2.3-7 .4-8.5-.6 2.1-1.2 4.2-1.6 6.3-.4 2.1-1.5 6.2-3.2 12-1.7 5.9-3.8 11.8-6.2 17.7-2.5 5.9-4.4 8.7-6 8.4-2.5-.5-3-7.6-1.5-21.2.6-5.8 1.3-11.7 2-17.6 1.9-15.1 2.6-23.6 2.2-25.7.8-1 1.8-1.4 3.1-1.1 2.1.4 2.6 2.9 1.7 7.6-.9 4.6-1.7 11.8-2.3 21.6-.6 9.8-1.2 16.8-2 21.2 6.5-17.9 10.7-31.7 12.6-41.4l2.8-.6c.8.2 1.4.5 1.9 1s.6 1.2.5 1.9l-.2.8c.6 6.5.2 15.7-1.1 27.6-.6 5.4-1 9.7-1.1 12.7 3-8.6 5.7-19 8.2-31.3.3-1.6 1.1-4 2.2-7.1 1.1-3.1 1.9-5.4 2.2-7-.2-.6-.2-1.2-.1-1.7zM298 65.6l1.7-3.3c.1-.3.2-.5.1-.5l.7-1.6c4.3-9.3 8-15.6 10.9-19 2.4-2.9 4.3-4.5 5.5-4.9 1.2-.4 2.2-.4 3 0 6.9 3.2 10 8.9 9.3 17-.4 4.7-1.9 9.9-4.6 15.7l-.3.6-4.5 10.1c-7.9 17-15.8 23.6-23.7 19.9-3.3-1.5-4.9-4.5-4.9-8.9 0-4.2.6-8.1 1.7-11.6 1.6-5.3 3.4-9.8 5.1-13.5zm10.9-9.7l-4.3 8c-4 8.6-6.8 16.3-8.4 23.3-.3 4.4.1 7.2 1.1 8.5 1.1.5 2.2.5 3.5.1 1.3-.5 2.5-1.3 3.7-2.5 1.2-1.2 2.3-2.6 3.4-4s2.1-3 3.1-4.8c1.8-3 3.2-5.6 4.2-7.8s2.4-5.7 4.2-10.5c1.8-4.8 3.2-8.3 4.2-10.5l.7-1.6c1-2.2 1.1-4.4.6-6.8-.6-2.3-1.9-4-4-5-2-.9-3.9-.4-5.6 1.5-1.4 1.6-2.8 3.9-4.1 6.7l-2.3 5.4zM335.3 73.3l11.9-13.8c1.9-2.4 4.3-3.5 7.3-3.4l-.4.5c.3 0 .5.1.7.3 1.2 1 1 4.2-.5 9.7-1.5 5.5-3.5 11.3-6 17.4-2.5 6.1-5.1 12.2-7.7 18.3-2.6 6.1-4.1 9.8-4.4 10.9 9.6-9.8 20.4-22.3 32.6-37.4l1.5-2.1c1.2-1.5 2.5-1.8 3.7-.7.7.6 1 1.3.9 2.2-.1.9-.5 1.7-1.1 2.5l-4.6 5.8c-4.9 5.9-11.5 13.7-20 23.3-8.5 9.6-13.7 14.7-15.5 15.3-1.7-.7-2.9-1.3-3.4-1.7-.5-.4-.8-.9-.8-1.5s.2-1.3.6-2.2c.4-.9.7-1.5.8-1.8l.3-.3c1.5-1.9 4.5-9.3 9-22.3s7.4-22.1 8.8-27.2l-30.8 38.3c0 .1-.1.4-.1.8-.1.8-.4 1.4-.7 1.9-.4.5-1 .8-1.8.9-.8.1-1.6-.1-2.2-.6-1.7-1.3-1.2-3.6 1.2-6.6l20.7-26.5z"/>
  </g>
</svg>
